<svg xmlns="http://www.w3.org/2000/svg" version="1.1" id="Layer_1" xmlns:xlink="http://www.w3.org/1999/xlink" x="0px" y="0px"
	 width="82.529px" height="82.529px" viewBox="0 0 82.529 82.529" enable-background="new 0 0 82.529 82.529" xml:space="preserve">
<g>
	<circle fill="#6798AC" cx="41.265" cy="41.265" r="41.043"/>
	<g>
		<g>
			<g>
				<polygon fill="#FFFFFF" points="23.813,29.676 23.813,67.686 7.265,58.131 7.265,20.121 				"/>
				<polygon fill="#FFFFFF" points="75.263,20.121 75.263,58.131 58.714,67.686 58.714,29.676 				"/>
				<polygon fill="#FFFFFF" points="40.964,20.121 40.964,58.131 24.415,67.686 24.415,29.676 				"/>
				<polygon fill="#FFFFFF" points="58.114,29.676 58.114,67.686 41.565,58.131 41.565,20.121 				"/>
			</g>
			<g>
				<g>
					<g enable-background="new    ">
						<defs>
							<polygon id="SVGID_1_" enable-background="new    " points="11.144,39.081 11.185,24.581 19.319,29.278 19.278,43.777 
															"/>
						</defs>
						<clipPath id="SVGID_2_">
							<use xlink:href="#SVGID_1_"  overflow="visible"/>
						</clipPath>
						<g clip-path="url(#SVGID_2_)">
							<g>
								<g>
									<g>
										<path fill="#6798AC" d="M15.229,34.937c-1.545-0.892-2.793-3.052-2.788-4.828c0.005-1.768,1.262-2.483,2.806-1.591
											c1.545,0.892,2.793,3.053,2.788,4.821C18.03,35.114,16.774,35.829,15.229,34.937 M15.247,26.927
											c-0.543-0.313-1.095-0.516-1.63-0.578c-2.251-0.263-3.345,2.045-2.452,5.147c0.076,0.257,0.165,0.521,0.261,0.775
											l3.256,8.501c0.113,0.284,0.318,0.535,0.531,0.658c0.074,0.042,0.149,0.07,0.222,0.078
											c0.134,0.011,0.236-0.033,0.308-0.124l3.294-4.719c0.103-0.147,0.187-0.305,0.264-0.473
											c0.411-0.923,0.446-2.248,0.011-3.756C18.629,30.077,16.986,27.931,15.247,26.927"/>
									</g>
								</g>
							</g>
						</g>
					</g>
				</g>
			</g>
			<g>
				<g>
					<path fill="none" stroke="#6798AC" stroke-width="2" stroke-miterlimit="10" d="M16.507,42.041
						c0.815,0.159,1.64,0.287,2.47,0.386"/>
					<path fill="none" stroke="#6798AC" stroke-width="2" stroke-miterlimit="10" stroke-dasharray="5.225,5.225" d="M24.192,42.686
						c4.789-0.071,9.624-0.943,14.105-2.264c5.943-1.752,11.223-5.256,17.171-6.92c10.095-2.824,20.542,7.766,16.265,18.014
						c-2.379,5.698-9.173,7.689-15.313,8.295"/>
					<path fill="none" stroke="#6798AC" stroke-width="2" stroke-miterlimit="10" d="M53.812,59.994
						c-0.869,0.038-1.708,0.052-2.499,0.051"/>
				</g>
			</g>
			<g>
				<g>
					<g enable-background="new    ">
						<defs>
							<polygon id="SVGID_3_" enable-background="new    " points="45.407,57.515 45.448,43.017 53.582,47.713 53.541,62.211 
															"/>
						</defs>
						<clipPath id="SVGID_4_">
							<use xlink:href="#SVGID_3_"  overflow="visible"/>
						</clipPath>
						<g clip-path="url(#SVGID_4_)">
							<g>
								<g>
									<g>
										<path fill="#6798AC" d="M49.492,53.37c-1.545-0.892-2.792-3.053-2.787-4.821c0.005-1.775,1.261-2.491,2.805-1.599
											c1.545,0.892,2.793,3.053,2.788,4.828C52.293,53.546,51.037,54.262,49.492,53.37 M49.517,45.366
											c-0.545-0.314-1.1-0.517-1.637-0.578c-2.251-0.263-3.345,2.038-2.451,5.14c0.075,0.264,0.164,0.521,0.26,0.775
											l3.257,8.501c0.111,0.287,0.315,0.535,0.526,0.657c0.075,0.043,0.151,0.071,0.226,0.079
											c0.135,0.019,0.237-0.033,0.308-0.124l3.294-4.719c0.103-0.139,0.187-0.304,0.264-0.472
											c0.412-0.924,0.447-2.24,0.011-3.75C52.894,48.515,51.254,46.369,49.517,45.366"/>
									</g>
								</g>
							</g>
						</g>
					</g>
				</g>
			</g>
		</g>
	</g>
</g>
</svg>




