<?xml version="1.0" standalone="no"?>
<!DOCTYPE svg PUBLIC "-//W3C//DTD SVG 1.1//EN" "http://www.w3.org/Graphics/SVG/1.1/DTD/svg11.dtd" >
<svg xmlns="http://www.w3.org/2000/svg" xmlns:xlink="http://www.w3.org/1999/xlink" version="1.1">
<metadata>
Created by FontForge 20150102 at Wed Jan  7 20:15:31 2015
 By uniteet7
2008 Mike Abbink published by FSI FontShop International GmbH
</metadata>
<defs>
<font id="MiloOTLight" horiz-adv-x="510" >
  <font-face 
    font-family="MiloOTLight"
    font-weight="350"
    font-stretch="normal"
    units-per-em="1000"
    panose-1="2 11 5 4 2 1 1 1 1 2"
    ascent="794"
    descent="-206"
    x-height="486"
    cap-height="623"
    bbox="-465 -250 1153 851"
    underline-thickness="40"
    underline-position="-50"
    unicode-range="U+000D-FB04"
  />
<missing-glyph horiz-adv-x="508" 
d="M84 0v623h340v-623h-340zM128 44h252v535h-252v-535z" />
    <glyph glyph-name="f_f" unicode="ff" horiz-adv-x="530" 
d="M154 444v-444h-52v444h-78v42h78v53q0 69 33.5 103.5t96.5 34.5q30 0 51 -7v-45q-24 8 -43 8q-44 0 -65 -22.5t-21 -73.5v-51h187v64q0 138 134 138q31 0 52 -7v-45q-21 7 -43 7q-47 0 -69 -22t-22 -73v-62h117v-42h-117v-444h-52v444h-187z" />
    <glyph glyph-name="f_f_i" unicode="ffi" horiz-adv-x="723" 
d="M341 0v444h-187v-444h-52v444h-78v42h78v53q0 69 33.5 103.5t96.5 34.5q30 0 51 -7v-45q-24 8 -43 8q-44 0 -65 -22.5t-21 -73.5v-51h187v45q0 80 45.5 118.5t122.5 38.5q51 0 97 -16v-45q-44 16 -94 16q-63 0 -91 -28.5t-28 -86.5v-42h241v-486h-52v444h-189v-444h-52z
" />
    <glyph glyph-name="f_f_l" unicode="ffl" horiz-adv-x="718" 
d="M154 444v-444h-52v444h-78v42h78v53q0 69 33.5 103.5t96.5 34.5q30 0 51 -7v-45q-24 8 -43 8q-44 0 -65 -22.5t-21 -73.5v-51h187v46q0 80 47 118t121 38q61 0 124 -15v-673h-52v637q-25 6 -69 6q-62 0 -90.5 -28.5t-28.5 -86.5v-42h114v-42h-114v-444h-52v444h-187z" />
    <glyph glyph-name="f_i" unicode="fi" horiz-adv-x="484" 
d="M343 0v444h-189v-444h-52v444h-78v42h78v45q0 80 45.5 118.5t122.5 38.5q51 0 97 -16v-45q-44 16 -94 16q-63 0 -91 -28.5t-28 -86.5v-42h241v-486h-52z" />
    <glyph glyph-name="f_j" unicode="fj" horiz-adv-x="479" 
d="M102 0v444h-78v42h78v45q0 80 45.5 118.5t122.5 38.5q51 0 97 -16v-45q-44 16 -94 16q-63 0 -91 -28.5t-28 -86.5v-42h241v-539q0 -70 -33 -102.5t-100 -32.5q-22 0 -44 6v45q20 -6 41 -6q42 0 63 21t21 70v496h-189v-444h-52z" />
    <glyph glyph-name="f_l" unicode="fl" horiz-adv-x="478" 
d="M24 444v42h78v46q0 80 47 118t121 38q61 0 124 -15v-673h-52v637q-25 6 -69 6q-62 0 -90.5 -28.5t-28.5 -86.5v-42h114v-42h-114v-444h-52v444h-78z" />
    <glyph glyph-name=".notdef" horiz-adv-x="508" 
d="M84 0v623h340v-623h-340zM128 44h252v535h-252v-535z" />
    <glyph glyph-name=".null" horiz-adv-x="0" 
 />
    <glyph glyph-name=".null" horiz-adv-x="0" 
 />
    <glyph glyph-name="nonmarkingreturn" horiz-adv-x="333" 
 />
    <glyph glyph-name="CR" unicode="&#xd;" horiz-adv-x="236" 
 />
    <glyph glyph-name="space" unicode=" " horiz-adv-x="236" 
 />
    <glyph glyph-name="exclam" unicode="!" horiz-adv-x="260" 
d="M131 -8q-18 0 -30.5 12.5t-12.5 30.5t12.5 30t30.5 12q17 0 29.5 -12t12.5 -30t-12.5 -30.5t-29.5 -12.5zM109 160l-11 463h64l-11 -463h-42z" />
    <glyph glyph-name="quotedbl" unicode="&#x22;" horiz-adv-x="300" 
d="M69 466l-16 214h64l-8 -214h-40zM191 466l-8 214h64l-16 -214h-40z" />
    <glyph glyph-name="numbersign" unicode="#" horiz-adv-x="485" 
d="M307 0h-43l23 152h-118l-23 -152h-43l23 152h-101l6 42h101l19 127h-100l6 42h101l20 134h43l-20 -134h118l20 134h43l-20 -134h97l-6 -42h-98l-19 -127h97l-6 -42h-97zM293 194l19 127h-118l-19 -127h118z" />
    <glyph glyph-name="dollar" unicode="$" horiz-adv-x="447" 
d="M187 -101v93q-80 3 -129 25v49q73 -30 137 -30q63 0 102.5 28.5t39.5 84.5q0 27 -10.5 47.5t-34.5 38t-42 27t-55 25.5q-32 15 -51.5 26t-43 30t-34.5 45.5t-11 60.5q0 58 37.5 96.5t103.5 45.5v81h45v-79q58 -3 114 -25v-49q-54 28 -125 28q-56 0 -88.5 -26t-32.5 -73
q0 -22 9 -39.5t29.5 -32.5t35.5 -23t44 -22q34 -16 50 -24t42.5 -25.5t39 -33.5t23 -41.5t10.5 -56.5q0 -63 -44 -106.5t-116 -50.5v-94h-45z" />
    <glyph glyph-name="percent" unicode="%" horiz-adv-x="806" 
d="M190 297q-71 0 -113.5 49t-42.5 118q0 70 42.5 118.5t113.5 48.5q70 0 111.5 -48.5t41.5 -117.5q0 -71 -41.5 -119.5t-111.5 -48.5zM190 336q50 0 76.5 38t26.5 90q0 51 -26.5 89t-76.5 38q-51 0 -78.5 -38t-27.5 -89q0 -50 28 -89t78 -39zM619 -8q-71 0 -113.5 48.5
t-42.5 118.5t42.5 118t113.5 48q70 0 111.5 -48t41.5 -118t-41.5 -118.5t-111.5 -48.5zM619 31q50 0 76.5 38t26.5 90q0 50 -26.5 88.5t-76.5 38.5q-52 0 -79 -37.5t-27 -89.5q0 -50 27.5 -89t78.5 -39zM172 -23l420 666h48l-421 -666h-47z" />
    <glyph glyph-name="ampersand" unicode="&#x26;" horiz-adv-x="601" 
d="M250 -8q-93 0 -149 47t-56 117q0 54 33 97t105 81q-50 54 -68.5 85.5t-18.5 71.5q0 60 44.5 100t114.5 40q62 0 105.5 -37t43.5 -92q0 -50 -35 -89t-116 -86l181 -191q43 63 61 156l48 -8q-21 -107 -78 -182q63 -65 97 -65q19 0 30 5v-42q-18 -8 -40 -8q-30 0 -56.5 19
t-61.5 56q-77 -75 -184 -75zM251 37q91 1 153 63l-193 203q-112 -63 -112 -146q0 -51 41 -85.5t111 -34.5zM147 493q0 -30 16.5 -59t62.5 -78q128 70 128 145q0 36 -28.5 62.5t-71.5 26.5q-46 0 -76.5 -28t-30.5 -69z" />
    <glyph glyph-name="quotesingle" unicode="'" horiz-adv-x="176" 
d="M68 466l-13 214h66l-13 -214h-40z" />
    <glyph glyph-name="parenleft" unicode="(" horiz-adv-x="302" 
d="M242 -131q-88 77 -134.5 181.5t-46.5 212.5q0 236 182 417h53q-181 -187 -181 -418q0 -121 52.5 -223t128.5 -170h-54z" />
    <glyph glyph-name="parenright" unicode=")" horiz-adv-x="302" 
d="M59 -131h-54q76 68 128.5 170t52.5 223q0 231 -181 418h53q182 -181 182 -417q0 -108 -46.5 -212.5t-134.5 -181.5z" />
    <glyph glyph-name="asterisk" unicode="*" horiz-adv-x="435" 
d="M133 355l-34 25l87 117l-139 44l12 40l135 -46v145h44v-146l135 47l12 -40l-139 -44l87 -117l-34 -25l-83 115z" />
    <glyph glyph-name="plus" unicode="+" horiz-adv-x="572" 
d="M43 232v44h219v210h49v-210h218v-44h-218v-232h-49v232h-219z" />
    <glyph glyph-name="comma" unicode="," horiz-adv-x="227" 
d="M76 -129l-28 22q48 54 48 125q0 32 -6 53h58q5 -23 5 -46q0 -41 -22 -82.5t-55 -71.5z" />
    <glyph glyph-name="hyphen" unicode="-" horiz-adv-x="304" 
d="M58 266v45h189v-45h-189z" />
    <glyph glyph-name="period" unicode="." horiz-adv-x="207" 
d="M104 -8q-18 0 -30.5 12.5t-12.5 30.5t12.5 30t30.5 12q17 0 29.5 -12t12.5 -30t-12.5 -30.5t-29.5 -12.5z" />
    <glyph glyph-name="slash" unicode="/" horiz-adv-x="403" 
d="M34 -103l280 783h50l-281 -783h-49z" />
    <glyph glyph-name="zero" unicode="0" horiz-adv-x="571" 
d="M287 -8q-107 0 -168 70t-61 180q0 104 62 178t167 74q106 0 166 -71t60 -180q0 -103 -61 -177t-165 -74zM287 37q85 0 128.5 62t43.5 144q0 81 -43.5 143.5t-128.5 62.5t-130 -63t-45 -144t45 -143t130 -62z" />
    <glyph glyph-name="one" unicode="1" horiz-adv-x="332" 
d="M171 0v428q-68 -35 -136 -47v45q31 5 75.5 22.5t71.5 37.5h42v-486h-53z" />
    <glyph glyph-name="two" unicode="2" horiz-adv-x="449" 
d="M47 0v40q10 7 53.5 37.5t63 45.5t55 46.5t53 54.5t32 55t14.5 63q0 48 -30.5 78t-93.5 30q-65 0 -129 -36v45q65 35 136 35q82 0 127 -41.5t45 -109.5q0 -46 -22 -89t-67 -84.5t-76 -65t-87 -61.5h279v-43h-353z" />
    <glyph glyph-name="three" unicode="3" horiz-adv-x="432" 
d="M163 -141q-68 0 -127 23v46q63 -24 121 -24q71 0 116 32t45 92q0 77 -52.5 106.5t-148.5 29.5v42q82 2 134 32.5t52 98.5q0 52 -32.5 82.5t-93.5 30.5q-73 0 -120 -20v45q53 19 125 19q82 0 128.5 -42t46.5 -112q0 -55 -32 -93t-88 -56v-1q67 -13 102 -55t35 -104
q0 -78 -57.5 -125t-153.5 -47z" />
    <glyph glyph-name="four" unicode="4" horiz-adv-x="536" 
d="M342 -132v132h-308v35l303 451h56v-443h98v-43h-98v-132h-51zM341 413l-247 -370h248z" />
    <glyph glyph-name="five" unicode="5" horiz-adv-x="454" 
d="M173 -141q-70 0 -109 16v46q46 -17 104 -17q81 0 128.5 41t47.5 116q0 67 -40 104t-113 37q-55 0 -105 -13l11 297h271v-45h-223l-8 -199q30 6 58 6q96 0 150 -49.5t54 -133.5q0 -100 -63.5 -153t-162.5 -53z" />
    <glyph glyph-name="six" unicode="6" horiz-adv-x="512" 
d="M272 -8q-105 0 -158 76t-53 216q0 154 73 250.5t193 96.5q55 0 98 -13v-48q-43 16 -95 16q-90 0 -146.5 -66.5t-65.5 -176.5q25 22 69.5 39t87.5 17q86 0 134 -53.5t48 -145.5q0 -88 -50.5 -148t-134.5 -60zM268 37q64 0 99.5 45.5t35.5 116.5q0 69 -34.5 112.5
t-99.5 43.5q-83 0 -153 -55q-2 -24 -2 -35q0 -106 39.5 -167t114.5 -61z" />
    <glyph glyph-name="seven" unicode="7" horiz-adv-x="417" 
d="M104 -132q28 140 89 297t137 275h-302v46h359v-39q-87 -132 -147.5 -297t-80.5 -282h-55z" />
    <glyph glyph-name="eight" unicode="8" horiz-adv-x="496" 
d="M250 -8q-84 0 -135.5 47.5t-51.5 112.5q0 63 37 104t102 73q-32 18 -50.5 30.5t-39 31.5t-30 43t-9.5 55q0 59 51 100.5t121 41.5q79 0 126.5 -40.5t47.5 -99.5t-34 -95t-92 -65q34 -17 53.5 -30t42.5 -34t33.5 -49t10.5 -64q0 -74 -53.5 -118t-129.5 -44zM252 38
q55 0 91 31.5t36 85.5q0 49 -37 85t-100 67q-60 -30 -93.5 -64.5t-33.5 -88.5q0 -51 40.5 -83.5t96.5 -32.5zM126 490q0 -26 9 -46t30.5 -37.5t38.5 -27.5t50 -27q114 55 114 137q0 42 -35 69.5t-86 27.5t-86 -26.5t-35 -69.5z" />
    <glyph glyph-name="nine" unicode="9" horiz-adv-x="512" 
d="M189 -141q-62 0 -102 15v47q46 -17 99 -17q91 0 145.5 64t62.5 177q-26 -24 -70 -39.5t-85 -15.5q-84 0 -134 52t-50 144q0 87 51 147.5t136 60.5q209 0 209 -294q0 -155 -70.5 -248t-191.5 -93zM246 134q87 0 150 53q2 24 2 32q0 230 -152 230q-65 0 -101 -44t-36 -118
q0 -69 36.5 -111t100.5 -42z" />
    <glyph glyph-name="colon" unicode=":" horiz-adv-x="232" 
d="M116 408q-18 0 -30.5 12.5t-12.5 30.5t12.5 30t30.5 12q17 0 29.5 -12t12.5 -30t-12.5 -30.5t-29.5 -12.5zM116 -8q-18 0 -30.5 12.5t-12.5 30.5t12.5 30t30.5 12q17 0 29.5 -12t12.5 -30t-12.5 -30.5t-29.5 -12.5z" />
    <glyph glyph-name="semicolon" unicode=";" horiz-adv-x="233" 
d="M73 -129l-28 22q48 54 48 125q0 32 -6 53h58q5 -23 5 -46q0 -41 -22 -82.5t-55 -71.5zM118 408q-18 0 -30.5 12.5t-12.5 30.5t12.5 30t30.5 12q17 0 29.5 -12t12.5 -30t-12.5 -30.5t-29.5 -12.5z" />
    <glyph glyph-name="less" unicode="&#x3c;" horiz-adv-x="360" 
d="M280 29l-245 214l246 216l31 -32l-207 -182l206 -181z" />
    <glyph glyph-name="equal" unicode="=" horiz-adv-x="456" 
d="M35 165v45h385v-45h-385zM35 323v45h385v-45h-385z" />
    <glyph glyph-name="greater" unicode="&#x3e;" horiz-adv-x="360" 
d="M79 459l245 -214l-246 -216l-31 32l207 182l-206 181z" />
    <glyph glyph-name="question" unicode="?" horiz-adv-x="398" 
d="M128 161q-7 28 -7 50q0 39 17.5 70t42 51.5t49 40.5t42 46.5t17.5 59.5q0 50 -35.5 78.5t-97.5 28.5q-50 0 -97 -19v46q52 18 104 18q83 0 131.5 -41.5t48.5 -105.5q0 -42 -18 -74.5t-43.5 -53.5t-50.5 -40.5t-43 -47t-18 -62.5q0 -17 5 -45h-47zM155 -8
q-18 0 -30.5 12.5t-12.5 30.5t12.5 30t30.5 12q17 0 29.5 -12t12.5 -30t-12.5 -30.5t-29.5 -12.5z" />
    <glyph glyph-name="at" unicode="@" horiz-adv-x="720" 
d="M344 -54q-146 0 -227 86t-81 233q0 158 99.5 262t248.5 104q143 0 225.5 -85.5t82.5 -196.5q0 -106 -47.5 -177t-131.5 -71q-39 0 -61 20.5t-26 51.5q-20 -29 -53 -50.5t-69 -21.5q-45 0 -72.5 32.5t-27.5 88.5q0 105 58.5 181.5t151.5 76.5q48 0 95 -15l-37 -230
q-3 -18 -3 -35q0 -60 52 -60q54 0 91 54.5t37 149.5q0 113 -76.5 180t-187.5 67q-126 0 -214.5 -91t-88.5 -233q0 -136 71 -208.5t197 -72.5q84 0 157 29v-41q-62 -28 -163 -28zM315 142q29 0 58 22t46 51l35 217q-19 6 -46 6q-63 0 -107 -61t-44 -155q0 -40 16 -60t42 -20z
" />
    <glyph glyph-name="A" unicode="A" horiz-adv-x="557" 
d="M23 0l226 623h65l220 -623h-59l-60 176h-276l-61 -176h-55zM279 575l-124 -353h244z" />
    <glyph glyph-name="B" unicode="B" horiz-adv-x="538" 
d="M94 0v623h181q88 0 134.5 -40.5t46.5 -113.5q0 -55 -30.5 -91.5t-76.5 -46.5v-2q56 -10 90.5 -48.5t34.5 -103.5q0 -78 -51 -127.5t-141 -49.5h-188zM148 306v-260h127q69 0 105.5 34t36.5 96q0 130 -143 130h-126zM148 577v-228h123q64 0 97.5 31t33.5 87q0 52 -32.5 81
t-97.5 29h-124z" />
    <glyph glyph-name="C" unicode="C" horiz-adv-x="530" 
d="M337 -8q-130 0 -203.5 84t-73.5 227q0 144 72 236t205 92q81 0 136 -25v-50q-56 28 -134 28q-109 0 -166 -76t-57 -205q0 -121 60 -192.5t169 -71.5q82 0 141 31v-50q-62 -28 -149 -28z" />
    <glyph glyph-name="D" unicode="D" horiz-adv-x="608" 
d="M94 0v623h177q72 0 127 -25.5t87 -69.5t47.5 -98.5t15.5 -118.5q0 -61 -15.5 -114.5t-47 -99t-87 -71.5t-129.5 -26h-175zM148 578v-532h112q65 0 112 22t72 61t36.5 83.5t11.5 98.5t-11 98.5t-35.5 84t-71 62t-111.5 22.5h-115z" />
    <glyph glyph-name="E" unicode="E" horiz-adv-x="469" 
d="M94 0v623h314v-46h-260v-217h223v-45h-223v-269h260v-46h-314z" />
    <glyph glyph-name="F" unicode="F" horiz-adv-x="460" 
d="M94 0v623h326v-46h-272v-217h246v-45h-246v-315h-54z" />
    <glyph glyph-name="G" unicode="G" horiz-adv-x="599" 
d="M346 -8q-132 0 -209 80.5t-77 230.5q0 145 75 236.5t216 91.5q81 0 137 -28v-48q-57 30 -134 30q-119 0 -178.5 -77t-59.5 -205q0 -129 62.5 -197t172.5 -68q65 0 116 19v204h-117v44h168v-280q-82 -33 -172 -33z" />
    <glyph glyph-name="H" unicode="H" horiz-adv-x="636" 
d="M94 0v623h54v-274h341v274h53v-623h-53v305h-341v-305h-54z" />
    <glyph glyph-name="I" unicode="I" horiz-adv-x="247" 
d="M96 0v623h54v-623h-54z" />
    <glyph glyph-name="J" unicode="J" horiz-adv-x="248" 
d="M20 -151q-34 0 -54 7v46q21 -7 39 -7q49 0 71 22t22 69v637h53v-643q0 -67 -35.5 -99t-95.5 -32z" />
    <glyph glyph-name="K" unicode="K" horiz-adv-x="520" 
d="M476 -4q-51 0 -100 57l-228 264v-317h-54v623h54v-300l272 300h63l-274 -300l215 -247q30 -35 62 -35q9 0 14 1v-44q-16 -2 -24 -2z" />
    <glyph glyph-name="L" unicode="L" horiz-adv-x="429" 
d="M94 0v623h54v-577h251v-46h-305z" />
    <glyph glyph-name="M" unicode="M" horiz-adv-x="777" 
d="M67 0l83 623h73l167 -564l163 564h74l83 -623h-51l-74 558l-163 -558h-67l-165 561l-72 -561h-51z" />
    <glyph glyph-name="N" unicode="N" horiz-adv-x="634" 
d="M95 0v623h60l333 -546v545h51v-622h-62l-331 541v-541h-51z" />
    <glyph glyph-name="O" unicode="O" horiz-adv-x="654" 
d="M328 -8q-136 0 -202 88t-66 231q0 87 26 157t88.5 116.5t153.5 46.5q135 0 201 -88.5t66 -230.5q0 -136 -67 -228t-200 -92zM328 38q105 0 157.5 75.5t52.5 198.5q0 124 -52 198.5t-158 74.5t-158.5 -75.5t-52.5 -198.5q0 -125 52 -199t159 -74z" />
    <glyph glyph-name="P" unicode="P" horiz-adv-x="495" 
d="M94 0v623h185q81 0 128.5 -50t47.5 -132q0 -77 -47 -129t-128 -52h-132v-260h-54zM148 578v-276h121q63 0 96.5 38.5t33.5 100.5t-33.5 99.5t-97.5 37.5h-120z" />
    <glyph glyph-name="Q" unicode="Q" horiz-adv-x="654" 
d="M460 -169q-61 0 -100.5 42t-40.5 120q-132 3 -195.5 90.5t-63.5 227.5q0 87 26 157t88.5 116.5t153.5 46.5q135 0 201 -88.5t66 -230.5q0 -124 -56.5 -213t-168.5 -104q3 -120 100 -120q46 0 76 13v-43q-37 -14 -86 -14zM328 38q105 0 157.5 75.5t52.5 198.5
q0 124 -52 198.5t-158 74.5t-158.5 -75.5t-52.5 -198.5q0 -125 52 -199t159 -74z" />
    <glyph glyph-name="R" unicode="R" horiz-adv-x="545" 
d="M493 -4q-59 0 -94 54l-159 243h-92v-293h-54v623h181q82 0 130 -43.5t48 -122.5q0 -60 -40.5 -105.5t-115.5 -55.5l147 -220q22 -35 58 -35q4 0 18 2v-45q-16 -2 -27 -2zM148 579v-244h115q64 0 99.5 34.5t35.5 87.5q0 122 -134 122h-116z" />
    <glyph glyph-name="S" unicode="S" horiz-adv-x="459" 
d="M215 -8q-92 0 -160 29v49q70 -32 153 -32q63 0 102.5 30.5t39.5 90.5q0 53 -33 82.5t-119 68.5q-32 15 -50.5 26t-41.5 30.5t-33.5 47t-10.5 63.5q0 73 49.5 113.5t132.5 40.5q79 0 138 -27v-48q-58 29 -136 29q-61 0 -96 -28.5t-35 -79.5q0 -47 28 -71.5t101 -57.5
q31 -14 46 -21.5t41.5 -25t39.5 -34.5t24 -45t11 -61q0 -74 -52.5 -121.5t-138.5 -47.5z" />
    <glyph glyph-name="T" unicode="T" horiz-adv-x="434" 
d="M184 0v577h-176v46h418v-46h-189v-577h-53z" />
    <glyph glyph-name="U" unicode="U" horiz-adv-x="613" 
d="M307 -8q-98 0 -159 56.5t-61 163.5v411h54v-403q0 -88 42.5 -135t123.5 -47t124 47t43 135v403h52v-411q0 -106 -60.5 -163t-158.5 -57z" />
    <glyph glyph-name="V" unicode="V" horiz-adv-x="538" 
d="M238 0l-219 623h59l191 -561l196 561h54l-222 -623h-59z" />
    <glyph glyph-name="W" unicode="W" horiz-adv-x="765" 
d="M509 0l-125 448l-129 -448h-62l-168 623h56l147 -552l133 459l-26 93h55l151 -552l149 552h51l-171 -623h-61z" />
    <glyph glyph-name="X" unicode="X" horiz-adv-x="513" 
d="M22 0l201 329l-186 293h60l158 -252l150 252h58l-182 -293l210 -329h-60l-181 287l-173 -287h-55z" />
    <glyph glyph-name="Y" unicode="Y" horiz-adv-x="473" 
d="M209 0v246l-200 376h60l170 -323l168 323h57l-201 -376v-246h-54z" />
    <glyph glyph-name="Z" unicode="Z" horiz-adv-x="461" 
d="M39 0v47l321 530h-309v46h368v-49l-319 -528h327v-46h-388z" />
    <glyph glyph-name="bracketleft" unicode="[" horiz-adv-x="298" 
d="M86 -111v791h185v-42h-134v-707h134v-42h-185z" />
    <glyph glyph-name="backslash" unicode="\" horiz-adv-x="401" 
d="M88 680l280 -783h-49l-281 783h50z" />
    <glyph glyph-name="bracketright" unicode="]" horiz-adv-x="298" 
d="M212 680v-791h-185v42h134v707h-134v42h185z" />
    <glyph glyph-name="asciicircum" unicode="^" horiz-adv-x="567" 
d="M59 244l205 379h39l205 -379h-48l-176 326l-177 -326h-48z" />
    <glyph glyph-name="underscore" unicode="_" horiz-adv-x="463" 
d="M-2 -122v44h467v-44h-467z" />
    <glyph glyph-name="grave" unicode="`" horiz-adv-x="500" 
d="M232 556l-121 119h75l94 -119h-48z" />
    <glyph glyph-name="a" unicode="a" horiz-adv-x="447" 
d="M190 -8q-69 0 -109 37t-40 96q0 70 55.5 109t155.5 39q25 0 59 -2v70q0 58 -27 83t-88 25q-60 0 -116 -30v47q60 28 125 28q158 0 158 -137v-272q0 -49 42 -49q7 0 19 2v-40q-20 -6 -38 -6q-55 0 -69 53q-19 -22 -54.5 -37.5t-72.5 -15.5zM199 36q67 0 112 45v151
q-24 2 -54 2q-78 0 -120 -26.5t-42 -77.5q0 -43 28 -68.5t76 -25.5z" />
    <glyph glyph-name="b" unicode="b" horiz-adv-x="502" 
d="M233 -8q-79 0 -149 31v657h52v-234q17 18 49.5 33t71.5 15q102 0 152 -69t50 -181q0 -110 -61 -181t-165 -71zM235 37q83 0 126 59t43 146q0 92 -37 148.5t-120 56.5q-64 0 -111 -40v-354q39 -16 99 -16z" />
    <glyph glyph-name="c" unicode="c" horiz-adv-x="412" 
d="M258 -8q-98 0 -156.5 65t-58.5 175q0 113 53.5 187.5t155.5 74.5q72 0 118 -26v-45q-49 27 -113 27q-81 0 -121 -58t-40 -160q0 -95 46 -145.5t123 -50.5q69 0 115 26v-44q-49 -26 -122 -26z" />
    <glyph glyph-name="d" unicode="d" horiz-adv-x="502" 
d="M245 -8q-97 0 -149.5 65.5t-52.5 183.5q0 109 60 181t161 72q64 0 102 -23v209h52v-680h-52v39q-15 -17 -47.5 -32t-73.5 -15zM255 38q66 0 111 40v349q-44 22 -97 22q-82 0 -126.5 -56t-44.5 -150q0 -91 37.5 -148t119.5 -57z" />
    <glyph glyph-name="e" unicode="e" horiz-adv-x="466" 
d="M267 -8q-109 0 -166.5 67t-57.5 182q0 114 56.5 183.5t152.5 69.5q60 0 101 -32t57 -76.5t16 -96.5q0 -21 -1 -34h-329v-12q0 -92 43 -149.5t129 -57.5q71 0 131 30v-46q-56 -28 -132 -28zM251 450q-55 0 -98 -35t-54 -119h274v5q0 62 -32.5 105.5t-89.5 43.5z" />
    <glyph glyph-name="f" unicode="f" horiz-adv-x="290" 
d="M24 444v42h78v64q0 138 134 138q31 0 52 -7v-45q-21 7 -43 7q-47 0 -69 -22t-22 -73v-62h117v-42h-117v-444h-52v444h-78z" />
    <glyph glyph-name="g" unicode="g" horiz-adv-x="475" 
d="M226 166q-30 0 -58 9q-35 -18 -35 -48q0 -41 49 -44l86 -4q159 -7 159 -122q0 -71 -56.5 -108t-150.5 -37q-84 0 -138 32.5t-54 94.5q0 38 28.5 68t65.5 45q-37 18 -37 65q0 24 14.5 44t34.5 29q-81 47 -81 138q0 71 48.5 118.5t124.5 47.5q28 0 55 -8h163v-44h-90
q46 -48 46 -112q0 -69 -48 -116.5t-126 -47.5zM226 209q58 0 89.5 35t31.5 85t-31.5 86t-89.5 36q-57 0 -89 -36t-32 -86t32.5 -85t88.5 -35zM223 -145q151 0 151 101q0 38 -29.5 57t-98.5 22l-80 3q-35 -13 -60.5 -37t-25.5 -58q0 -43 39.5 -65.5t103.5 -22.5z" />
    <glyph glyph-name="h" unicode="h" horiz-adv-x="508" 
d="M84 0v680h52v-233q61 47 136 47q157 0 157 -173v-321h-52v312q0 67 -26.5 102t-92.5 35q-61 0 -122 -40v-409h-52z" />
    <glyph glyph-name="i" unicode="i" horiz-adv-x="229" 
d="M114 596q-15 0 -26 11.5t-11 27.5t11 27.5t26 11.5q16 0 27 -11.5t11 -27.5t-11 -27.5t-27 -11.5zM88 0v486h52v-486h-52z" />
    <glyph glyph-name="j" unicode="j" horiz-adv-x="234" 
d="M19 -188q-23 0 -45 6v45q20 -6 41 -6q42 0 63 21t21 70v538h52v-539q0 -70 -32.5 -102.5t-99.5 -32.5zM125 596q-15 0 -26 11.5t-11 27.5t11 27.5t26 11.5t26.5 -11.5t11.5 -27.5t-11.5 -27.5t-26.5 -11.5z" />
    <glyph glyph-name="k" unicode="k" horiz-adv-x="436" 
d="M84 0v680h52v-411l208 217h64l-211 -217l156 -188q19 -22 32 -30.5t35 -8.5v-43q-5 -1 -15 -1q-51 0 -96 56l-173 210v-264h-52z" />
    <glyph glyph-name="l" unicode="l" horiz-adv-x="220" 
d="M84 0v680h52v-680h-52z" />
    <glyph glyph-name="m" unicode="m" horiz-adv-x="767" 
d="M84 0v486h52v-38q58 46 136 46q72 0 110 -48q71 48 149 48q85 0 120.5 -45.5t35.5 -127.5v-321h-52v312q0 66 -24.5 101.5t-92.5 35.5q-62 0 -120 -34q15 -33 15 -82v-333h-52v319q0 68 -26.5 99t-81.5 31t-117 -40v-409h-52z" />
    <glyph glyph-name="n" unicode="n" horiz-adv-x="508" 
d="M84 0v486h52v-39q61 47 136 47q157 0 157 -173v-321h-52v312q0 67 -26.5 102t-92.5 35q-61 0 -122 -40v-409h-52z" />
    <glyph glyph-name="o" unicode="o" horiz-adv-x="494" 
d="M246 -8q-102 0 -152.5 69t-50.5 181q0 107 51.5 179.5t152.5 72.5q102 0 152.5 -69.5t50.5 -182.5q0 -106 -52 -178t-152 -72zM247 35q44 0 75 19t46.5 51.5t22 65.5t6.5 71q0 54 -11 97t-46.5 77t-93.5 34q-43 0 -74 -19t-46.5 -51.5t-22 -66t-6.5 -71.5
q0 -30 3.5 -57.5t14 -55.5t27 -48t43.5 -33t62 -13z" />
    <glyph glyph-name="p" unicode="p" horiz-adv-x="502" 
d="M84 -180v666h52v-40q16 18 49 33t72 15q101 0 151.5 -65.5t50.5 -184.5q0 -110 -60 -181t-161 -71q-58 0 -102 20v-192h-52zM234 37q83 0 126.5 57.5t43.5 147.5q0 206 -156 206q-66 0 -112 -41v-352q43 -18 98 -18z" />
    <glyph glyph-name="q" unicode="q" horiz-adv-x="502" 
d="M366 -180v219q-17 -18 -49.5 -32.5t-71.5 -14.5q-99 0 -150.5 67t-51.5 182q0 110 61 181.5t166 71.5q82 0 148 -32v-642h-52zM255 38q61 0 111 42v353q-48 16 -98 16q-82 0 -126 -57.5t-44 -148.5t37.5 -148t119.5 -57z" />
    <glyph glyph-name="r" unicode="r" horiz-adv-x="319" 
d="M83 0v486h52v-51q48 59 120 59q21 0 44 -7v-49q-32 8 -49 8q-67 0 -115 -54v-392h-52z" />
    <glyph glyph-name="s" unicode="s" horiz-adv-x="383" 
d="M177 -8q-83 0 -135 27v46q58 -29 128 -29q119 0 119 93q0 22 -6.5 37t-25.5 27t-32 17.5t-47 18.5q-64 23 -97 54t-33 83q0 63 41.5 95.5t111.5 32.5q65 0 116 -23v-47q-47 26 -115 26q-49 0 -76 -21t-27 -60q0 -36 25 -56t76 -38q33 -12 52.5 -21t43 -25.5t35 -41
t11.5 -56.5q0 -63 -45.5 -101t-119.5 -38z" />
    <glyph glyph-name="t" unicode="t" horiz-adv-x="290" 
d="M21 444v42h67l11 130h42v-130h112v-42h-112v-318q0 -49 17 -69t57 -20q34 0 58 12v-45q-33 -12 -67 -12q-62 0 -90 29.5t-28 99.5v323h-67z" />
    <glyph glyph-name="u" unicode="u" horiz-adv-x="508" 
d="M236 -8q-156 0 -156 173v321h51v-310q0 -68 26 -103.5t92 -35.5q61 0 123 40v409h52v-486h-52v39q-57 -47 -136 -47z" />
    <glyph glyph-name="v" unicode="v" horiz-adv-x="432" 
d="M187 0l-168 486h54l144 -426l143 426h52l-169 -486h-56z" />
    <glyph glyph-name="w" unicode="w" horiz-adv-x="659" 
d="M430 0l-99 313l-96 -313h-58l-153 486h54l131 -424l100 323l-32 101h53l130 -424l122 424h51l-147 -486h-56z" />
    <glyph glyph-name="x" unicode="x" horiz-adv-x="438" 
d="M18 0l167 258l-154 228h59l128 -189l120 189h57l-150 -228l174 -258h-59l-148 220l-138 -220h-56z" />
    <glyph glyph-name="y" unicode="y" horiz-adv-x="433" 
d="M87 -188q-32 0 -51 8v42q21 -7 49 -7q40 0 62.5 26t36.5 73l15 49l-181 483h55l153 -414l136 414h52l-188 -554q-21 -63 -52.5 -91.5t-86.5 -28.5z" />
    <glyph glyph-name="z" unicode="z" horiz-adv-x="398" 
d="M40 0v42l256 401h-243v43h299v-45l-254 -398h263v-43h-321z" />
    <glyph glyph-name="braceleft" unicode="{" horiz-adv-x="333" 
d="M235 -111q-46 0 -73.5 27t-27.5 79v158q0 105 -110 106v52q110 1 110 105v158q0 52 27 79t74 27h77v-42h-65q-35 0 -48.5 -19t-13.5 -59v-151q0 -106 -103 -122v-1q103 -16 103 -128v-151q0 -40 13 -58t48 -18h66v-42h-77z" />
    <glyph glyph-name="bar" unicode="|" horiz-adv-x="272" 
d="M116 -250v1000h40v-1000h-40z" />
    <glyph glyph-name="braceright" unicode="}" horiz-adv-x="333" 
d="M98 680q46 0 73.5 -27t27.5 -79v-158q0 -105 110 -106v-52q-110 -1 -110 -105v-158q0 -52 -27 -79t-74 -27h-77v42h65q35 0 48.5 19t13.5 59v151q0 106 103 122v1q-103 16 -103 128v151q0 40 -13 58t-48 18h-66v42h77z" />
    <glyph glyph-name="asciitilde" unicode="~" horiz-adv-x="559" 
d="M79 189l-28 29q64 72 134 72q35 0 93 -23.5t93 -23.5q55 0 103 54l28 -29q-60 -72 -135 -72q-41 0 -99 23.5t-85 23.5q-57 0 -104 -54z" />
    <glyph glyph-name="uni00A0" unicode="&#xa0;" horiz-adv-x="236" 
 />
    <glyph glyph-name="exclamdown" unicode="&#xa1;" horiz-adv-x="260" 
d="M132 493q17 0 29.5 -12.5t12.5 -30.5t-12.5 -30t-29.5 -12q-18 0 -30.5 12t-12.5 30t12.5 30.5t30.5 12.5zM99 -138l11 463h42l11 -463h-64z" />
    <glyph glyph-name="cent" unicode="&#xa2;" horiz-adv-x="420" 
d="M230 -122v115q-88 8 -139 72t-51 167q0 107 48.5 180t141.5 81v114h45v-114q56 -5 92 -25v-45q-49 27 -113 27q-81 0 -121 -57.5t-40 -158.5q0 -96 46 -147t123 -51q69 0 115 26v-44q-43 -22 -102 -25v-115h-45z" />
    <glyph glyph-name="sterling" unicode="&#xa3;" horiz-adv-x="448" 
d="M56 288v42h89l-4 9q-40 88 -40 141q0 71 47 111t123 40q53 0 105 -15v-48q-51 17 -101 17q-57 0 -89 -26.5t-32 -78.5q0 -12 2 -24.5t3.5 -21t6.5 -23t7 -19.5t9 -22t8 -20q6 -14 8 -20h150v-42h-136q9 -38 9 -66q0 -58 -25.5 -104t-65.5 -74h270v-44h-343v37
q114 66 114 184q0 28 -11 67h-104z" />
    <glyph glyph-name="currency" unicode="&#xa4;" horiz-adv-x="495" 
d="M412 -21l-80 107q-37 -21 -84 -21q-49 0 -85 21l-79 -107l-38 27l82 106q-49 51 -49 134q0 82 49 132l-82 105l37 27l79 -105q38 22 86 22q47 0 85 -22l80 105l37 -27l-82 -105q47 -50 47 -133q0 -81 -48 -132l83 -107zM248 107q58 0 88 41.5t30 96.5q0 56 -30 98t-88 42
q-59 0 -89.5 -42t-30.5 -98q0 -55 30.5 -96.5t89.5 -41.5z" />
    <glyph glyph-name="yen" unicode="&#xa5;" horiz-adv-x="483" 
d="M60 231v38h141l-187 353h56l172 -329l170 329h56l-188 -353h150v-38h-163v-88h163v-39h-163v-104h-54v104h-153v39h153v88h-153z" />
    <glyph glyph-name="brokenbar" unicode="&#xa6;" horiz-adv-x="214" 
d="M86 -250v414h40v-414h-40zM86 346v404h40v-404h-40z" />
    <glyph glyph-name="section" unicode="&#xa7;" horiz-adv-x="459" 
d="M204 -141q-56 0 -98 14v47q41 -18 98 -18q41 0 65 20.5t24 58.5q0 27 -17.5 59.5t-35.5 54t-58 66.5q-50 55 -77 98.5t-27 89.5q0 70 71 114q-34 52 -34 101q0 59 38.5 91.5t101.5 32.5q56 0 98 -14v-47q-44 18 -98 18q-41 0 -65 -21t-24 -59t26 -76.5t76 -93.5
q35 -38 55.5 -63t39.5 -62.5t19 -71.5q0 -69 -72 -114q34 -54 34 -101q0 -59 -38.5 -91.5t-101.5 -32.5zM223 370q-5 6 -22 25.5t-26 30.5q-20 -12 -34 -32.5t-14 -44.5t16 -53.5t34 -51t55 -63.5q36 -40 52 -61q48 30 48 77q0 24 -17 54.5t-34 51.5t-58 67z" />
    <glyph glyph-name="dieresis" unicode="&#xa8;" horiz-adv-x="405" 
d="M121 578q-15 0 -26 11.5t-11 27.5t11 27t26 11q16 0 27 -11t11 -27t-11 -27.5t-27 -11.5zM284 578q-16 0 -27 11.5t-11 27.5t11 27t27 11q15 0 26 -11t11 -27t-11 -27.5t-26 -11.5z" />
    <glyph glyph-name="copyright" unicode="&#xa9;" horiz-adv-x="764" 
d="M390 121q-77 0 -124.5 50.5t-47.5 135.5q0 79 44 135t122 56q54 0 97 -20v-43q-46 23 -93 23q-55 0 -87.5 -40t-32.5 -112q0 -68 35.5 -105.5t91.5 -37.5q50 0 94 22v-42q-46 -22 -99 -22zM382 -8q-131 0 -223.5 93.5t-92.5 226.5q0 132 92.5 225.5t223.5 93.5t224 -93.5
t93 -225.5q0 -133 -93 -226.5t-224 -93.5zM382 26q120 0 199.5 82.5t79.5 203.5q0 120 -79.5 202.5t-199.5 82.5q-118 0 -198 -83t-80 -202q0 -121 79.5 -203.5t198.5 -82.5z" />
    <glyph glyph-name="ordfeminine" unicode="&#xaa;" horiz-adv-x="359" 
d="M158 266q-54 0 -87 25.5t-33 73.5q0 56 46 84t127 28q20 0 30 -1v33q0 43 -17 62t-63 19q-42 0 -90 -19v41q42 19 95 19q121 0 121 -112v-188q0 -25 23 -25q7 0 17 2v-37q-15 -5 -32 -5q-38 0 -48 32q-38 -32 -89 -32zM164 306q49 0 77 26v108q-8 1 -26 1
q-129 0 -129 -74q0 -29 20.5 -45t57.5 -16z" />
    <glyph glyph-name="guillemotleft" unicode="&#xab;" horiz-adv-x="453" 
d="M188 56l-138 189l138 189h56l-138 -189l138 -189h-56zM350 56l-138 189l138 189h55l-137 -189l137 -189h-55z" />
    <glyph glyph-name="logicalnot" unicode="&#xac;" horiz-adv-x="598" 
d="M498 30v218h-458v45h506v-263h-48z" />
    <glyph glyph-name="uni00AD" unicode="&#xad;" horiz-adv-x="301" 
d="M57 266v45h189v-45h-189z" />
    <glyph glyph-name="registered" unicode="&#xae;" horiz-adv-x="764" 
d="M506 130q-41 0 -64 38l-75 122h-52v-156h-46v362h116q52 0 84.5 -28t32.5 -76q0 -38 -25.5 -66t-61.5 -34l67 -105q14 -22 31 -22q10 0 16 1v-34q-14 -2 -23 -2zM382 -8q-131 0 -223.5 93.5t-92.5 226.5q0 132 92.5 225.5t223.5 93.5t224 -93.5t93 -225.5
q0 -133 -93 -226.5t-224 -93.5zM382 26q120 0 199.5 82.5t79.5 203.5q0 120 -79.5 202.5t-199.5 82.5q-118 0 -198 -83t-80 -202q0 -121 79.5 -203.5t198.5 -82.5zM315 458v-132h65q36 0 55.5 19t19.5 47q0 31 -19.5 48.5t-55.5 17.5h-65z" />
    <glyph glyph-name="macron" unicode="&#xaf;" horiz-adv-x="500" 
d="M116 567v44h267v-44h-267z" />
    <glyph glyph-name="degree" unicode="&#xb0;" horiz-adv-x="340" 
d="M170 424q-52 0 -89 37.5t-37 88.5t37 88.5t89 37.5t89.5 -37.5t37.5 -88.5t-37 -88.5t-90 -37.5zM170 463q36 0 59.5 25t23.5 62q0 36 -23.5 61.5t-59.5 25.5t-59 -25.5t-23 -61.5q0 -37 23 -62t59 -25z" />
    <glyph glyph-name="plusminus" unicode="&#xb1;" horiz-adv-x="579" 
d="M45 232v44h221v210h50v-210h218v-44h-218v-232h-50v232h-221zM77 -99v45h428v-45h-428z" />
    <glyph glyph-name="twosuperior" unicode="&#xb2;" horiz-adv-x="285" 
d="M247 301h-227v35q46 34 69.5 53t52.5 46t41.5 50t12.5 45q0 61 -73 61q-44 0 -86 -19v40q44 19 93 19q55 0 86 -24t31 -70q0 -50 -41 -93t-125 -103h166v-40z" />
    <glyph glyph-name="threesuperior" unicode="&#xb3;" horiz-adv-x="275" 
d="M115 296q-42 0 -86 12v40q38 -12 80 -12q38 0 63.5 15.5t25.5 42.5q0 59 -108 59h-14v34h9q103 0 103 56q0 23 -19.5 36t-52.5 13q-39 0 -77 -12v39q38 12 85 12q71 0 99 -37q16 -17 16 -44q0 -57 -71 -76v-1q81 -17 81 -80q0 -45 -38 -71t-96 -26z" />
    <glyph glyph-name="acute" unicode="&#xb4;" horiz-adv-x="500" 
d="M218 556l95 119h75l-122 -119h-48z" />
    <glyph glyph-name="mu" unicode="&#xb5;" horiz-adv-x="508" 
d="M81 -180v666h52v-318q0 -131 117 -131q61 0 123 40v409h52v-486h-52v39q-57 -47 -136 -47q-38 0 -67 14t-40 38h-2q5 -35 5 -91v-133h-52z" />
    <glyph glyph-name="paragraph" unicode="&#xb6;" horiz-adv-x="641" 
d="M266 -180v418q-81 0 -136 52.5t-55 138.5t55 140t136 54h295v-45h-83v-758h-48v758h-116v-758h-48z" />
    <glyph glyph-name="periodcentered" unicode="&#xb7;" horiz-adv-x="211" 
d="M106 246q-19 0 -32.5 13t-13.5 32t13.5 32t32.5 13t32 -13t13 -32t-13 -32t-32 -13z" />
    <glyph glyph-name="cedilla" unicode="&#xb8;" horiz-adv-x="404" 
d="M194 -198q-34 0 -54 9v34q20 -9 52 -9q25 0 41.5 10.5t16.5 32.5q0 42 -72 42l31 79h39l-20 -54q32 -4 49 -23t17 -44q0 -36 -27 -56.5t-73 -20.5z" />
    <glyph glyph-name="onesuperior" unicode="&#xb9;" horiz-adv-x="208" 
d="M145 301h-49v278q-31 -17 -85 -26v40q53 10 93 34h41v-326z" />
    <glyph glyph-name="ordmasculine" unicode="&#xba;" horiz-adv-x="387" 
d="M193 266q-76 0 -114 51t-38 130q0 80 37 132t115 52t115.5 -52t37.5 -131t-38.5 -130.5t-114.5 -51.5zM193 305q105 0 105 143t-105 143q-104 0 -104 -144q0 -142 104 -142z" />
    <glyph glyph-name="guillemotright" unicode="&#xbb;" horiz-adv-x="453" 
d="M264 435l138 -189l-138 -189h-56l138 189l-138 189h56zM102 435l138 -189l-138 -189h-55l137 189l-137 189h55z" />
    <glyph glyph-name="onequarter" unicode="&#xbc;" horiz-adv-x="628" 
d="M615 67h-57v-67h-48v67h-173v34l171 225h50v-220h57v-39zM511 104v169h-1l-128 -169h129zM145 301h-49v278q-31 -17 -85 -26v40q53 10 93 34h41v-326zM46 -36l423 679h48l-422 -679h-49z" />
    <glyph glyph-name="onehalf" unicode="&#xbd;" horiz-adv-x="658" 
d="M619 0h-227v35q46 34 69.5 53t52.5 46t41.5 50t12.5 45q0 61 -73 61q-44 0 -86 -19v40q44 19 93 19q55 0 86 -24t31 -70q0 -50 -41 -93t-125 -103h166v-40zM145 301h-49v278q-31 -17 -85 -26v40q53 10 93 34h41v-326zM46 -36l423 679h48l-422 -679h-49z" />
    <glyph glyph-name="threequarters" unicode="&#xbe;" horiz-adv-x="689" 
d="M677 67h-57v-67h-48v67h-173v34l171 225h50v-220h57v-39zM573 104v169h-1l-128 -169h129zM115 296q-42 0 -86 12v40q38 -12 80 -12q38 0 63.5 15.5t25.5 42.5q0 59 -108 59h-14v34h9q103 0 103 56q0 23 -19.5 36t-52.5 13q-39 0 -77 -12v39q38 12 85 12q71 0 99 -37
q16 -17 16 -44q0 -57 -71 -76v-1q81 -17 81 -80q0 -45 -38 -71t-96 -26zM108 -36l423 679h48l-422 -679h-49z" />
    <glyph glyph-name="questiondown" unicode="&#xbf;" horiz-adv-x="398" 
d="M269 324q7 -28 7 -50q0 -39 -17.5 -70t-42 -51.5t-49 -40.5t-42 -46.5t-17.5 -59.5q0 -50 35.5 -78.5t97.5 -28.5q50 0 97 19v-46q-52 -18 -104 -18q-83 0 -131.5 41.5t-48.5 105.5q0 42 18 74.5t43 53.5t50.5 40.5t43.5 47t18 62.5q0 17 -5 45h47zM242 493
q18 0 30.5 -12.5t12.5 -30.5t-12.5 -30t-30.5 -12q-17 0 -29.5 12t-12.5 30t12.5 30.5t29.5 12.5z" />
    <glyph glyph-name="Agrave" unicode="&#xc0;" horiz-adv-x="557" 
d="M23 0l226 623h65l220 -623h-59l-60 176h-276l-61 -176h-55zM279 575l-124 -353h244zM251 681l-121 119h75l94 -119h-48z" />
    <glyph glyph-name="Aacute" unicode="&#xc1;" horiz-adv-x="557" 
d="M23 0l226 623h65l220 -623h-59l-60 176h-276l-61 -176h-55zM279 575l-124 -353h244zM255 681l95 119h75l-122 -119h-48z" />
    <glyph glyph-name="Acircumflex" unicode="&#xc2;" horiz-adv-x="557" 
d="M23 0l226 623h65l220 -623h-59l-60 176h-276l-61 -176h-55zM279 575l-124 -353h244zM140 681l120 146h37l119 -146h-49l-90 100l-89 -100h-48z" />
    <glyph glyph-name="Atilde" unicode="&#xc3;" horiz-adv-x="557" 
d="M23 0l226 623h65l220 -623h-59l-60 176h-276l-61 -176h-55zM279 575l-124 -353h244zM172 698l-29 25q39 51 92 51q23 0 51 -14t43 -14q28 0 56 34l28 -26q-40 -51 -93 -51q-21 0 -48.5 14t-44.5 14q-31 0 -55 -33z" />
    <glyph glyph-name="Adieresis" unicode="&#xc4;" horiz-adv-x="557" 
d="M23 0l226 623h65l220 -623h-59l-60 176h-276l-61 -176h-55zM279 575l-124 -353h244zM196 703q-15 0 -26 11.5t-11 27.5t11 27t26 11q16 0 27 -11t11 -27t-11 -27.5t-27 -11.5zM359 703q-16 0 -27 11.5t-11 27.5t11 27t27 11q15 0 26 -11t11 -27t-11 -27.5t-26 -11.5z" />
    <glyph glyph-name="Aring" unicode="&#xc5;" horiz-adv-x="557" 
d="M23 0l226 623h65l220 -623h-59l-60 176h-276l-61 -176h-55zM279 575l-124 -353h244zM278 670q-36 0 -63.5 26.5t-27.5 63.5q0 38 27 64.5t64 26.5t64 -26.5t27 -64.5q0 -37 -27.5 -63.5t-63.5 -26.5zM278 702q24 0 39 17t15 41q0 25 -15 42t-39 17t-39 -17t-15 -42
q0 -24 15 -41t39 -17z" />
    <glyph glyph-name="AE" unicode="&#xc6;" horiz-adv-x="749" 
d="M-9 0l354 623h344v-46h-261v-217h224v-45h-224v-269h261v-46h-314v183h-224l-103 -183h-57zM375 580l-202 -357h202v357z" />
    <glyph glyph-name="Ccedilla" unicode="&#xc7;" horiz-adv-x="530" 
d="M260 -198q-34 0 -54 9v34q20 -9 52 -9q25 0 41.5 10.5t16.5 32.5q0 42 -72 42l30 77q-101 19 -157.5 100t-56.5 205q0 144 72 236t205 92q81 0 136 -25v-50q-56 28 -134 28q-109 0 -166 -76t-57 -205q0 -121 60 -192.5t169 -71.5q82 0 141 31v-50q-62 -28 -149 -28
q-5 0 -13 0.5t-13 0.5l-17 -47q32 -4 49 -23t17 -44q0 -36 -27 -56.5t-73 -20.5z" />
    <glyph glyph-name="Egrave" unicode="&#xc8;" horiz-adv-x="469" 
d="M94 0v623h314v-46h-260v-217h223v-45h-223v-269h260v-46h-314zM225 681l-121 119h75l94 -119h-48z" />
    <glyph glyph-name="Eacute" unicode="&#xc9;" horiz-adv-x="469" 
d="M228 681l95 119h75l-122 -119h-48zM94 0v623h314v-46h-260v-217h223v-45h-223v-269h260v-46h-314z" />
    <glyph glyph-name="Ecircumflex" unicode="&#xca;" horiz-adv-x="469" 
d="M112 681l120 146h37l119 -146h-49l-90 100l-89 -100h-48zM94 0v623h314v-46h-260v-217h223v-45h-223v-269h260v-46h-314z" />
    <glyph glyph-name="Edieresis" unicode="&#xcb;" horiz-adv-x="469" 
d="M169 703q-15 0 -26 11.5t-11 27.5t11 27t26 11q16 0 27 -11t11 -27t-11 -27.5t-27 -11.5zM332 703q-16 0 -27 11.5t-11 27.5t11 27t27 11q15 0 26 -11t11 -27t-11 -27.5t-26 -11.5zM94 0v623h314v-46h-260v-217h223v-45h-223v-269h260v-46h-314z" />
    <glyph glyph-name="Igrave" unicode="&#xcc;" horiz-adv-x="247" 
d="M96 0v623h54v-623h-54zM98 681l-121 119h75l94 -119h-48z" />
    <glyph glyph-name="Iacute" unicode="&#xcd;" horiz-adv-x="247" 
d="M96 0v623h54v-623h-54zM101 681l95 119h75l-122 -119h-48z" />
    <glyph glyph-name="Icircumflex" unicode="&#xce;" horiz-adv-x="247" 
d="M96 0v623h54v-623h-54zM-14 681l120 146h37l119 -146h-49l-90 100l-89 -100h-48z" />
    <glyph glyph-name="Idieresis" unicode="&#xcf;" horiz-adv-x="247" 
d="M96 0v623h54v-623h-54zM43 703q-15 0 -26 11.5t-11 27.5t11 27t26 11q16 0 27 -11t11 -27t-11 -27.5t-27 -11.5zM206 703q-16 0 -27 11.5t-11 27.5t11 27t27 11q15 0 26 -11t11 -27t-11 -27.5t-26 -11.5z" />
    <glyph glyph-name="Eth" unicode="&#xd0;" horiz-adv-x="612" 
d="M28 296v42h69v285h177q72 0 127 -25.5t87 -69.5t47.5 -98.5t15.5 -118.5q0 -61 -15.5 -114.5t-47 -99t-87 -71.5t-129.5 -26h-175v296h-69zM151 578v-240h108v-42h-108v-250h112q65 0 112 22t72 61t36.5 83.5t11.5 98.5t-11 98.5t-35.5 84t-71 62t-111.5 22.5h-115z" />
    <glyph glyph-name="Ntilde" unicode="&#xd1;" horiz-adv-x="634" 
d="M95 0v623h60l333 -546v545h51v-622h-62l-331 541v-541h-51zM213 698l-29 25q39 51 92 51q23 0 51 -14t43 -14q28 0 56 34l28 -26q-40 -51 -93 -51q-21 0 -48.5 14t-44.5 14q-31 0 -55 -33z" />
    <glyph glyph-name="Ograve" unicode="&#xd2;" horiz-adv-x="654" 
d="M328 -8q-136 0 -202 88t-66 231q0 87 26 157t88.5 116.5t153.5 46.5q135 0 201 -88.5t66 -230.5q0 -136 -67 -228t-200 -92zM328 38q105 0 157.5 75.5t52.5 198.5q0 124 -52 198.5t-158 74.5t-158.5 -75.5t-52.5 -198.5q0 -125 52 -199t159 -74zM301 681l-121 119h75
l94 -119h-48z" />
    <glyph glyph-name="Oacute" unicode="&#xd3;" horiz-adv-x="654" 
d="M304 681l95 119h75l-122 -119h-48zM328 -8q-136 0 -202 88t-66 231q0 87 26 157t88.5 116.5t153.5 46.5q135 0 201 -88.5t66 -230.5q0 -136 -67 -228t-200 -92zM328 38q105 0 157.5 75.5t52.5 198.5q0 124 -52 198.5t-158 74.5t-158.5 -75.5t-52.5 -198.5q0 -125 52 -199
t159 -74z" />
    <glyph glyph-name="Ocircumflex" unicode="&#xd4;" horiz-adv-x="654" 
d="M189 681l120 146h37l119 -146h-49l-90 100l-89 -100h-48zM328 -8q-136 0 -202 88t-66 231q0 87 26 157t88.5 116.5t153.5 46.5q135 0 201 -88.5t66 -230.5q0 -136 -67 -228t-200 -92zM328 38q105 0 157.5 75.5t52.5 198.5q0 124 -52 198.5t-158 74.5t-158.5 -75.5
t-52.5 -198.5q0 -125 52 -199t159 -74z" />
    <glyph glyph-name="Otilde" unicode="&#xd5;" horiz-adv-x="654" 
d="M328 -8q-136 0 -202 88t-66 231q0 87 26 157t88.5 116.5t153.5 46.5q135 0 201 -88.5t66 -230.5q0 -136 -67 -228t-200 -92zM328 38q105 0 157.5 75.5t52.5 198.5q0 124 -52 198.5t-158 74.5t-158.5 -75.5t-52.5 -198.5q0 -125 52 -199t159 -74zM221 698l-29 25
q39 51 92 51q23 0 51 -14t43 -14q28 0 56 34l28 -26q-40 -51 -93 -51q-21 0 -48.5 14t-44.5 14q-31 0 -55 -33z" />
    <glyph glyph-name="Odieresis" unicode="&#xd6;" horiz-adv-x="654" 
d="M246 703q-15 0 -26 11.5t-11 27.5t11 27t26 11q16 0 27 -11t11 -27t-11 -27.5t-27 -11.5zM409 703q-16 0 -27 11.5t-11 27.5t11 27t27 11q15 0 26 -11t11 -27t-11 -27.5t-26 -11.5zM328 -8q-136 0 -202 88t-66 231q0 87 26 157t88.5 116.5t153.5 46.5q135 0 201 -88.5
t66 -230.5q0 -136 -67 -228t-200 -92zM328 38q105 0 157.5 75.5t52.5 198.5q0 124 -52 198.5t-158 74.5t-158.5 -75.5t-52.5 -198.5q0 -125 52 -199t159 -74z" />
    <glyph glyph-name="multiply" unicode="&#xd7;" horiz-adv-x="512" 
d="M100 59l-31 32l152 155l-150 153l33 34l150 -154l150 154l31 -32l-150 -153l158 -162l-33 -33l-158 161z" />
    <glyph glyph-name="Oslash" unicode="&#xd8;" horiz-adv-x="654" 
d="M99 -50l-31 21l66 100q-74 84 -74 240q0 87 26 157t88.5 116.5t153.5 46.5q88 0 149 -41l57 85l31 -21l-58 -88q88 -84 88 -254q0 -136 -67 -228t-200 -92q-101 0 -167 52zM328 38q105 0 157.5 75.5t52.5 198.5q0 138 -61 209l-287 -433q53 -50 138 -50zM117 311
q0 -123 48 -193l284 429q-49 38 -121 38q-106 0 -158.5 -75.5t-52.5 -198.5z" />
    <glyph glyph-name="Ugrave" unicode="&#xd9;" horiz-adv-x="613" 
d="M307 -8q-98 0 -159 56.5t-61 163.5v411h54v-403q0 -88 42.5 -135t123.5 -47t124 47t43 135v403h52v-411q0 -106 -60.5 -163t-158.5 -57zM280 681l-121 119h75l94 -119h-48z" />
    <glyph glyph-name="Uacute" unicode="&#xda;" horiz-adv-x="613" 
d="M283 681l95 119h75l-122 -119h-48zM307 -8q-98 0 -159 56.5t-61 163.5v411h54v-403q0 -88 42.5 -135t123.5 -47t124 47t43 135v403h52v-411q0 -106 -60.5 -163t-158.5 -57z" />
    <glyph glyph-name="Ucircumflex" unicode="&#xdb;" horiz-adv-x="613" 
d="M168 681l120 146h37l119 -146h-49l-90 100l-89 -100h-48zM307 -8q-98 0 -159 56.5t-61 163.5v411h54v-403q0 -88 42.5 -135t123.5 -47t124 47t43 135v403h52v-411q0 -106 -60.5 -163t-158.5 -57z" />
    <glyph glyph-name="Udieresis" unicode="&#xdc;" horiz-adv-x="613" 
d="M224 703q-15 0 -26 11.5t-11 27.5t11 27t26 11q16 0 27 -11t11 -27t-11 -27.5t-27 -11.5zM387 703q-16 0 -27 11.5t-11 27.5t11 27t27 11q15 0 26 -11t11 -27t-11 -27.5t-26 -11.5zM307 -8q-98 0 -159 56.5t-61 163.5v411h54v-403q0 -88 42.5 -135t123.5 -47t124 47
t43 135v403h52v-411q0 -106 -60.5 -163t-158.5 -57z" />
    <glyph glyph-name="Yacute" unicode="&#xdd;" horiz-adv-x="473" 
d="M209 0v246l-200 376h60l170 -323l168 323h57l-201 -376v-246h-54zM214 681l95 119h75l-122 -119h-48z" />
    <glyph glyph-name="Thorn" unicode="&#xde;" horiz-adv-x="489" 
d="M94 0v623h54v-114h128q82 0 127.5 -50.5t45.5 -128.5q0 -79 -46 -129t-126 -50h-129v-151h-54zM148 466v-271h118q64 0 96 37t32 98q0 60 -32.5 98t-95.5 38h-118z" />
    <glyph glyph-name="germandbls" unicode="&#xdf;" horiz-adv-x="501" 
d="M306 -8q-57 0 -97 15v47q48 -17 100 -17q44 0 71.5 22.5t27.5 56.5q0 18 -7 33.5t-24.5 31t-30 24.5t-40.5 27q-36 24 -54.5 46t-18.5 55q0 26 20 52.5t44 46t44 50.5t20 66q0 43 -26 69.5t-77 26.5q-57 0 -88.5 -38t-31.5 -109v-497h-52v492q0 94 47 145t127 51
q70 0 112 -40t42 -96q0 -34 -13.5 -63t-32 -49t-37.5 -37t-32.5 -34.5t-13.5 -34.5q0 -14 10 -27.5t20.5 -21t30.5 -20.5q36 -24 57 -40.5t39.5 -45t18.5 -59.5q0 -62 -44.5 -95t-110.5 -33z" />
    <glyph glyph-name="agrave" unicode="&#xe0;" horiz-adv-x="447" 
d="M190 -8q-69 0 -109 37t-40 96q0 70 55.5 109t155.5 39q25 0 59 -2v70q0 58 -27 83t-88 25q-60 0 -116 -30v47q60 28 125 28q158 0 158 -137v-272q0 -49 42 -49q7 0 19 2v-40q-20 -6 -38 -6q-55 0 -69 53q-19 -22 -54.5 -37.5t-72.5 -15.5zM199 36q67 0 112 45v151
q-24 2 -54 2q-78 0 -120 -26.5t-42 -77.5q0 -43 28 -68.5t76 -25.5zM194 556l-121 119h75l94 -119h-48z" />
    <glyph glyph-name="aacute" unicode="&#xe1;" horiz-adv-x="447" 
d="M190 -8q-69 0 -109 37t-40 96q0 70 55.5 109t155.5 39q25 0 59 -2v70q0 58 -27 83t-88 25q-60 0 -116 -30v47q60 28 125 28q158 0 158 -137v-272q0 -49 42 -49q7 0 19 2v-40q-20 -6 -38 -6q-55 0 -69 53q-19 -22 -54.5 -37.5t-72.5 -15.5zM199 36q67 0 112 45v151
q-24 2 -54 2q-78 0 -120 -26.5t-42 -77.5q0 -43 28 -68.5t76 -25.5zM197 556l95 119h75l-122 -119h-48z" />
    <glyph glyph-name="acircumflex" unicode="&#xe2;" horiz-adv-x="447" 
d="M190 -8q-69 0 -109 37t-40 96q0 70 55.5 109t155.5 39q25 0 59 -2v70q0 58 -27 83t-88 25q-60 0 -116 -30v47q60 28 125 28q158 0 158 -137v-272q0 -49 42 -49q7 0 19 2v-40q-20 -6 -38 -6q-55 0 -69 53q-19 -22 -54.5 -37.5t-72.5 -15.5zM199 36q67 0 112 45v151
q-24 2 -54 2q-78 0 -120 -26.5t-42 -77.5q0 -43 28 -68.5t76 -25.5zM82 556l120 146h37l119 -146h-49l-90 100l-89 -100h-48z" />
    <glyph glyph-name="atilde" unicode="&#xe3;" horiz-adv-x="447" 
d="M190 -8q-69 0 -109 37t-40 96q0 70 55.5 109t155.5 39q25 0 59 -2v70q0 58 -27 83t-88 25q-60 0 -116 -30v47q60 28 125 28q158 0 158 -137v-272q0 -49 42 -49q7 0 19 2v-40q-20 -6 -38 -6q-55 0 -69 53q-19 -22 -54.5 -37.5t-72.5 -15.5zM199 36q67 0 112 45v151
q-24 2 -54 2q-78 0 -120 -26.5t-42 -77.5q0 -43 28 -68.5t76 -25.5zM114 573l-29 25q39 51 92 51q23 0 51 -14t43 -14q28 0 56 34l28 -26q-40 -51 -93 -51q-21 0 -48.5 14t-44.5 14q-31 0 -55 -33z" />
    <glyph glyph-name="adieresis" unicode="&#xe4;" horiz-adv-x="447" 
d="M190 -8q-69 0 -109 37t-40 96q0 70 55.5 109t155.5 39q25 0 59 -2v70q0 58 -27 83t-88 25q-60 0 -116 -30v47q60 28 125 28q158 0 158 -137v-272q0 -49 42 -49q7 0 19 2v-40q-20 -6 -38 -6q-55 0 -69 53q-19 -22 -54.5 -37.5t-72.5 -15.5zM199 36q67 0 112 45v151
q-24 2 -54 2q-78 0 -120 -26.5t-42 -77.5q0 -43 28 -68.5t76 -25.5zM138 578q-15 0 -26 11.5t-11 27.5t11 27t26 11q16 0 27 -11t11 -27t-11 -27.5t-27 -11.5zM301 578q-16 0 -27 11.5t-11 27.5t11 27t27 11q15 0 26 -11t11 -27t-11 -27.5t-26 -11.5z" />
    <glyph glyph-name="aring" unicode="&#xe5;" horiz-adv-x="447" 
d="M190 -8q-69 0 -109 37t-40 96q0 70 55.5 109t155.5 39q25 0 59 -2v70q0 58 -27 83t-88 25q-60 0 -116 -30v47q60 28 125 28q158 0 158 -137v-272q0 -49 42 -49q7 0 19 2v-40q-20 -6 -38 -6q-55 0 -69 53q-19 -22 -54.5 -37.5t-72.5 -15.5zM199 36q67 0 112 45v151
q-24 2 -54 2q-78 0 -120 -26.5t-42 -77.5q0 -43 28 -68.5t76 -25.5zM220 545q-36 0 -63.5 26.5t-27.5 63.5q0 38 27 64.5t64 26.5t64 -26.5t27 -64.5q0 -37 -27.5 -63.5t-63.5 -26.5zM220 577q24 0 39 17t15 41q0 25 -15 42t-39 17t-39 -17t-15 -42q0 -24 15 -41t39 -17z
" />
    <glyph glyph-name="ae" unicode="&#xe6;" horiz-adv-x="734" 
d="M191 -8q-68 0 -109 38t-41 100q0 75 56.5 115t159.5 40q37 0 54 -1v41q0 124 -120 124q-67 0 -117 -31v47q56 29 127 29q56 0 95.5 -25t53.5 -74q23 47 67.5 73t101.5 26q88 0 131.5 -64t43.5 -153q0 -25 -1 -39h-329v-5q0 -85 42.5 -141t124.5 -56q77 0 135 30v-46
q-52 -28 -136 -28q-116 0 -174 82q-71 -82 -165 -82zM199 36q43 0 79 20t57 52q-25 58 -25 130v6q-12 1 -48 1q-167 0 -167 -110q0 -44 28 -71.5t76 -27.5zM365 279h276v12q0 66 -32.5 112.5t-90.5 46.5q-64 0 -107 -43.5t-46 -127.5z" />
    <glyph glyph-name="ccedilla" unicode="&#xe7;" horiz-adv-x="412" 
d="M199 -198q-34 0 -54 9v34q20 -9 52 -9q25 0 41.5 10.5t16.5 32.5q0 42 -72 42l29 75q-79 14 -124 76.5t-45 159.5q0 113 53.5 187.5t155.5 74.5q72 0 118 -26v-45q-49 27 -113 27q-81 0 -121 -58t-40 -160q0 -95 46 -145.5t123 -50.5q69 0 115 26v-44q-49 -26 -122 -26
h-8l-17 -46q32 -4 49 -23t17 -44q0 -36 -27 -56.5t-73 -20.5z" />
    <glyph glyph-name="egrave" unicode="&#xe8;" horiz-adv-x="466" 
d="M267 -8q-109 0 -166.5 67t-57.5 182q0 114 56.5 183.5t152.5 69.5q60 0 101 -32t57 -76.5t16 -96.5q0 -21 -1 -34h-329v-12q0 -92 43 -149.5t129 -57.5q71 0 131 30v-46q-56 -28 -132 -28zM251 450q-55 0 -98 -35t-54 -119h274v5q0 62 -32.5 105.5t-89.5 43.5zM220 556
l-121 119h75l94 -119h-48z" />
    <glyph glyph-name="eacute" unicode="&#xe9;" horiz-adv-x="466" 
d="M222 556l95 119h75l-122 -119h-48zM267 -8q-109 0 -166.5 67t-57.5 182q0 114 56.5 183.5t152.5 69.5q60 0 101 -32t57 -76.5t16 -96.5q0 -21 -1 -34h-329v-12q0 -92 43 -149.5t129 -57.5q71 0 131 30v-46q-56 -28 -132 -28zM251 450q-55 0 -98 -35t-54 -119h274v5
q0 62 -32.5 105.5t-89.5 43.5z" />
    <glyph glyph-name="ecircumflex" unicode="&#xea;" horiz-adv-x="466" 
d="M108 556l120 146h37l119 -146h-49l-90 100l-89 -100h-48zM267 -8q-109 0 -166.5 67t-57.5 182q0 114 56.5 183.5t152.5 69.5q60 0 101 -32t57 -76.5t16 -96.5q0 -21 -1 -34h-329v-12q0 -92 43 -149.5t129 -57.5q71 0 131 30v-46q-56 -28 -132 -28zM251 450q-55 0 -98 -35
t-54 -119h274v5q0 62 -32.5 105.5t-89.5 43.5z" />
    <glyph glyph-name="edieresis" unicode="&#xeb;" horiz-adv-x="466" 
d="M164 578q-15 0 -26 11.5t-11 27.5t11 27t26 11q16 0 27 -11t11 -27t-11 -27.5t-27 -11.5zM327 578q-16 0 -27 11.5t-11 27.5t11 27t27 11q15 0 26 -11t11 -27t-11 -27.5t-26 -11.5zM267 -8q-109 0 -166.5 67t-57.5 182q0 114 56.5 183.5t152.5 69.5q60 0 101 -32
t57 -76.5t16 -96.5q0 -21 -1 -34h-329v-12q0 -92 43 -149.5t129 -57.5q71 0 131 30v-46q-56 -28 -132 -28zM251 450q-55 0 -98 -35t-54 -119h274v5q0 62 -32.5 105.5t-89.5 43.5z" />
    <glyph glyph-name="igrave" unicode="&#xec;" horiz-adv-x="229" 
d="M88 0v486h52v-486h-52zM89 556l-121 119h75l94 -119h-48z" />
    <glyph glyph-name="iacute" unicode="&#xed;" horiz-adv-x="229" 
d="M92 556l95 119h75l-122 -119h-48zM88 0v486h52v-486h-52z" />
    <glyph glyph-name="icircumflex" unicode="&#xee;" horiz-adv-x="229" 
d="M-23 556l120 146h37l119 -146h-49l-90 100l-89 -100h-48zM88 0v486h52v-486h-52z" />
    <glyph glyph-name="idieresis" unicode="&#xef;" horiz-adv-x="229" 
d="M34 578q-15 0 -26 11.5t-11 27.5t11 27t26 11q16 0 27 -11t11 -27t-11 -27.5t-27 -11.5zM197 578q-16 0 -27 11.5t-11 27.5t11 27t27 11q15 0 26 -11t11 -27t-11 -27.5t-26 -11.5zM88 0v486h52v-486h-52z" />
    <glyph glyph-name="eth" unicode="&#xf0;" horiz-adv-x="506" 
d="M201 550l-26 32l62 51q-55 22 -129 22v44q100 0 169 -34l73 60l24 -32l-60 -50q143 -101 143 -347q0 -304 -212 -304q-88 0 -142 63.5t-54 178.5q0 104 53.5 172.5t143.5 68.5q98 0 150 -67q-23 141 -120 204zM245 37q87 0 123 65.5t36 196.5q0 28 -1 37q-19 40 -58 67.5
t-94 27.5q-77 0 -113.5 -56t-36.5 -142q0 -88 37 -142t107 -54z" />
    <glyph glyph-name="ntilde" unicode="&#xf1;" horiz-adv-x="508" 
d="M84 0v486h52v-39q61 47 136 47q157 0 157 -173v-321h-52v312q0 67 -26.5 102t-92.5 35q-61 0 -122 -40v-409h-52zM150 573l-29 25q39 51 92 51q23 0 51 -14t43 -14q28 0 56 34l28 -26q-40 -51 -93 -51q-21 0 -48.5 14t-44.5 14q-31 0 -55 -33z" />
    <glyph glyph-name="ograve" unicode="&#xf2;" horiz-adv-x="494" 
d="M246 -8q-102 0 -152.5 69t-50.5 181q0 107 51.5 179.5t152.5 72.5q102 0 152.5 -69.5t50.5 -182.5q0 -106 -52 -178t-152 -72zM247 35q44 0 75 19t46.5 51.5t22 65.5t6.5 71q0 54 -11 97t-46.5 77t-93.5 34q-43 0 -74 -19t-46.5 -51.5t-22 -66t-6.5 -71.5
q0 -30 3.5 -57.5t14 -55.5t27 -48t43.5 -33t62 -13zM221 556l-121 119h75l94 -119h-48z" />
    <glyph glyph-name="oacute" unicode="&#xf3;" horiz-adv-x="494" 
d="M223 556l95 119h75l-122 -119h-48zM246 -8q-102 0 -152.5 69t-50.5 181q0 107 51.5 179.5t152.5 72.5q102 0 152.5 -69.5t50.5 -182.5q0 -106 -52 -178t-152 -72zM247 35q44 0 75 19t46.5 51.5t22 65.5t6.5 71q0 54 -11 97t-46.5 77t-93.5 34q-43 0 -74 -19t-46.5 -51.5
t-22 -66t-6.5 -71.5q0 -30 3.5 -57.5t14 -55.5t27 -48t43.5 -33t62 -13z" />
    <glyph glyph-name="ocircumflex" unicode="&#xf4;" horiz-adv-x="494" 
d="M109 556l120 146h37l119 -146h-49l-90 100l-89 -100h-48zM246 -8q-102 0 -152.5 69t-50.5 181q0 107 51.5 179.5t152.5 72.5q102 0 152.5 -69.5t50.5 -182.5q0 -106 -52 -178t-152 -72zM247 35q44 0 75 19t46.5 51.5t22 65.5t6.5 71q0 54 -11 97t-46.5 77t-93.5 34
q-43 0 -74 -19t-46.5 -51.5t-22 -66t-6.5 -71.5q0 -30 3.5 -57.5t14 -55.5t27 -48t43.5 -33t62 -13z" />
    <glyph glyph-name="otilde" unicode="&#xf5;" horiz-adv-x="494" 
d="M246 -8q-102 0 -152.5 69t-50.5 181q0 107 51.5 179.5t152.5 72.5q102 0 152.5 -69.5t50.5 -182.5q0 -106 -52 -178t-152 -72zM247 35q44 0 75 19t46.5 51.5t22 65.5t6.5 71q0 54 -11 97t-46.5 77t-93.5 34q-43 0 -74 -19t-46.5 -51.5t-22 -66t-6.5 -71.5
q0 -30 3.5 -57.5t14 -55.5t27 -48t43.5 -33t62 -13zM141 573l-29 25q39 51 92 51q23 0 51 -14t43 -14q28 0 56 34l28 -26q-40 -51 -93 -51q-21 0 -48.5 14t-44.5 14q-31 0 -55 -33z" />
    <glyph glyph-name="odieresis" unicode="&#xf6;" horiz-adv-x="494" 
d="M165 578q-15 0 -26 11.5t-11 27.5t11 27t26 11q16 0 27 -11t11 -27t-11 -27.5t-27 -11.5zM328 578q-16 0 -27 11.5t-11 27.5t11 27t27 11q15 0 26 -11t11 -27t-11 -27.5t-26 -11.5zM246 -8q-102 0 -152.5 69t-50.5 181q0 107 51.5 179.5t152.5 72.5q102 0 152.5 -69.5
t50.5 -182.5q0 -106 -52 -178t-152 -72zM247 35q44 0 75 19t46.5 51.5t22 65.5t6.5 71q0 54 -11 97t-46.5 77t-93.5 34q-43 0 -74 -19t-46.5 -51.5t-22 -66t-6.5 -71.5q0 -30 3.5 -57.5t14 -55.5t27 -48t43.5 -33t62 -13z" />
    <glyph glyph-name="divide" unicode="&#xf7;" horiz-adv-x="575" 
d="M288 51q-18 0 -30.5 12t-12.5 30q0 17 12.5 29t30.5 12q17 0 29 -12t12 -29q0 -18 -12 -30t-29 -12zM288 373q-18 0 -30.5 12.5t-12.5 29.5t12.5 29.5t30.5 12.5q17 0 29 -12.5t12 -29.5t-12 -29.5t-29 -12.5zM44 232v44h487v-44h-487z" />
    <glyph glyph-name="oslash" unicode="&#xf8;" horiz-adv-x="494" 
d="M72 -49l-31 21l57 84q-55 65 -55 186q0 107 51.5 179.5t152.5 72.5q73 0 121 -39l54 79l31 -22l-57 -84q54 -67 54 -186q0 -106 -52 -178t-152 -72q-73 0 -121 37zM97 242q0 -89 31 -142l213 315q-35 35 -95 35q-43 0 -74 -19t-46.5 -51.5t-22 -66t-6.5 -71.5zM247 35
q44 0 75 19t46.5 51.5t22 65.5t6.5 71q0 87 -31 142l-214 -315q37 -34 95 -34z" />
    <glyph glyph-name="ugrave" unicode="&#xf9;" horiz-adv-x="508" 
d="M236 -8q-156 0 -156 173v321h51v-310q0 -68 26 -103.5t92 -35.5q61 0 123 40v409h52v-486h-52v39q-57 -47 -136 -47zM226 556l-121 119h75l94 -119h-48z" />
    <glyph glyph-name="uacute" unicode="&#xfa;" horiz-adv-x="508" 
d="M228 556l95 119h75l-122 -119h-48zM236 -8q-156 0 -156 173v321h51v-310q0 -68 26 -103.5t92 -35.5q61 0 123 40v409h52v-486h-52v39q-57 -47 -136 -47z" />
    <glyph glyph-name="ucircumflex" unicode="&#xfb;" horiz-adv-x="508" 
d="M113 556l120 146h37l119 -146h-49l-90 100l-89 -100h-48zM236 -8q-156 0 -156 173v321h51v-310q0 -68 26 -103.5t92 -35.5q61 0 123 40v409h52v-486h-52v39q-57 -47 -136 -47z" />
    <glyph glyph-name="udieresis" unicode="&#xfc;" horiz-adv-x="508" 
d="M170 578q-15 0 -26 11.5t-11 27.5t11 27t26 11q16 0 27 -11t11 -27t-11 -27.5t-27 -11.5zM333 578q-16 0 -27 11.5t-11 27.5t11 27t27 11q15 0 26 -11t11 -27t-11 -27.5t-26 -11.5zM236 -8q-156 0 -156 173v321h51v-310q0 -68 26 -103.5t92 -35.5q61 0 123 40v409h52
v-486h-52v39q-57 -47 -136 -47z" />
    <glyph glyph-name="yacute" unicode="&#xfd;" horiz-adv-x="433" 
d="M87 -188q-32 0 -51 8v42q21 -7 49 -7q40 0 62.5 26t36.5 73l15 49l-181 483h55l153 -414l136 414h52l-188 -554q-21 -63 -52.5 -91.5t-86.5 -28.5zM196 556l95 119h75l-122 -119h-48z" />
    <glyph glyph-name="thorn" unicode="&#xfe;" horiz-adv-x="504" 
d="M83 -180v860h52v-234q17 18 49 33t72 15q102 0 152 -69.5t50 -181.5q0 -110 -54.5 -180.5t-154.5 -70.5q-63 0 -114 35v-207h-52zM240 38q83 0 123 58t40 147q0 91 -37 148t-120 57q-61 0 -111 -44v-336q48 -30 105 -30z" />
    <glyph glyph-name="ydieresis" unicode="&#xff;" horiz-adv-x="433" 
d="M87 -188q-32 0 -51 8v42q21 -7 49 -7q40 0 62.5 26t36.5 73l15 49l-181 483h55l153 -414l136 414h52l-188 -554q-21 -63 -52.5 -91.5t-86.5 -28.5zM136 578q-15 0 -26 11.5t-11 27.5t11 27t26 11q16 0 27 -11t11 -27t-11 -27.5t-27 -11.5zM299 578q-16 0 -27 11.5
t-11 27.5t11 27t27 11q15 0 26 -11t11 -27t-11 -27.5t-26 -11.5z" />
    <glyph glyph-name="dotlessi" unicode="&#x131;" horiz-adv-x="229" 
d="M88 0v486h52v-486h-52z" />
    <glyph glyph-name="IJ" unicode="&#x132;" horiz-adv-x="494" 
d="M96 0v623h54v-623h-54zM266 -151q-34 0 -54 7v46q21 -7 39 -7q49 0 71 22t22 69v637h53v-643q0 -67 -35.5 -99t-95.5 -32z" />
    <glyph glyph-name="ij" unicode="&#x133;" horiz-adv-x="462" 
d="M114 596q-15 0 -26 11.5t-11 27.5t11 27.5t26 11.5q16 0 27 -11.5t11 -27.5t-11 -27.5t-27 -11.5zM88 0v486h52v-486h-52zM247 -188q-23 0 -45 6v45q20 -6 41 -6q42 0 63 21t21 70v538h52v-539q0 -70 -32.5 -102.5t-99.5 -32.5zM353 596q-15 0 -26 11.5t-11 27.5t11 27.5
t26 11.5t26.5 -11.5t11.5 -27.5t-11.5 -27.5t-26.5 -11.5z" />
    <glyph glyph-name="Lslash" unicode="&#x141;" horiz-adv-x="425" 
d="M19 203l-24 31l101 79v310h54v-267l114 90l25 -31l-139 -109v-260h251v-46h-305v263z" />
    <glyph glyph-name="lslash" unicode="&#x142;" horiz-adv-x="230" 
d="M29 253l-23 30l82 65v332h52v-290l70 56l24 -31l-94 -75v-340h-52v299z" />
    <glyph glyph-name="OE" unicode="&#x152;" horiz-adv-x="814" 
d="M353 -8q-75 0 -131.5 27t-88 73.5t-46.5 101t-15 117.5q0 59 15 113t47 101t90 75t135 28q47 0 89 -5h305v-46h-261v-217h224v-45h-224v-269h261v-46h-294q-59 -8 -106 -8zM359 36q48 0 80 8v532q-42 6 -72 6q-65 0 -112.5 -22t-74 -61t-39 -85.5t-12.5 -102.5t11 -102.5
t36 -86.5t72 -63t111 -23z" />
    <glyph glyph-name="oe" unicode="&#x153;" horiz-adv-x="819" 
d="M246 -8q-102 0 -152.5 69t-50.5 181q0 107 51.5 179.5t152.5 72.5q134 0 178 -128q23 61 69.5 94.5t110.5 33.5q88 0 131.5 -61.5t43.5 -143.5q0 -8 -2 -34h-328v-12q0 -93 43 -150t129 -57q72 0 130 30v-46q-54 -28 -132 -28q-149 0 -197 128q-45 -128 -177 -128z
M247 35q44 0 75 19t46.5 51.5t22 65.5t6.5 71q0 54 -11 97t-46.5 77t-93.5 34q-43 0 -74 -19t-46.5 -51.5t-22 -66t-6.5 -71.5q0 -30 3.5 -57.5t14 -55.5t27 -48t43.5 -33t62 -13zM604 450q-54 0 -97 -34t-54 -120h273v5q0 62 -32 105.5t-90 43.5z" />
    <glyph glyph-name="Scaron" unicode="&#x160;" horiz-adv-x="459" 
d="M212 681l-117 150h50l88 -103l89 103h49l-119 -150h-40zM215 -8q-92 0 -160 29v49q70 -32 153 -32q63 0 102.5 30.5t39.5 90.5q0 53 -33 82.5t-119 68.5q-32 15 -50.5 26t-41.5 30.5t-33.5 47t-10.5 63.5q0 73 49.5 113.5t132.5 40.5q79 0 138 -27v-48q-58 29 -136 29
q-61 0 -96 -28.5t-35 -79.5q0 -47 28 -71.5t101 -57.5q31 -14 46 -21.5t41.5 -25t39.5 -34.5t24 -45t11 -61q0 -74 -52.5 -121.5t-138.5 -47.5z" />
    <glyph glyph-name="scaron" unicode="&#x161;" horiz-adv-x="383" 
d="M166 556l-117 150h50l88 -103l89 103h49l-119 -150h-40zM177 -8q-83 0 -135 27v46q58 -29 128 -29q119 0 119 93q0 22 -6.5 37t-25.5 27t-32 17.5t-47 18.5q-64 23 -97 54t-33 83q0 63 41.5 95.5t111.5 32.5q65 0 116 -23v-47q-47 26 -115 26q-49 0 -76 -21t-27 -60
q0 -36 25 -56t76 -38q33 -12 52.5 -21t43 -25.5t35 -41t11.5 -56.5q0 -63 -45.5 -101t-119.5 -38z" />
    <glyph glyph-name="Ydieresis" unicode="&#x178;" horiz-adv-x="473" 
d="M209 0v246l-200 376h60l170 -323l168 323h57l-201 -376v-246h-54zM155 703q-15 0 -26 11.5t-11 27.5t11 27t26 11q16 0 27 -11t11 -27t-11 -27.5t-27 -11.5zM318 703q-16 0 -27 11.5t-11 27.5t11 27t27 11q15 0 26 -11t11 -27t-11 -27.5t-26 -11.5z" />
    <glyph glyph-name="Zcaron" unicode="&#x17d;" horiz-adv-x="461" 
d="M212 681l-117 150h50l88 -103l89 103h49l-119 -150h-40zM39 0v47l321 530h-309v46h368v-49l-319 -528h327v-46h-388z" />
    <glyph glyph-name="zcaron" unicode="&#x17e;" horiz-adv-x="398" 
d="M182 556l-117 150h50l88 -103l89 103h49l-119 -150h-40zM40 0v42l256 401h-243v43h299v-45l-254 -398h263v-43h-321z" />
    <glyph glyph-name="longs" unicode="&#x17f;" horiz-adv-x="222" 
d="M86 0v550q0 138 134 138q31 0 52 -7v-45q-21 7 -43 7q-47 0 -69 -22t-22 -73v-548h-52z" />
    <glyph glyph-name="florin" unicode="&#x192;" horiz-adv-x="378" 
d="M68 381v42h95l14 123q8 70 46 106t101 36q37 0 68 -11v-42q-26 10 -57 10q-53 0 -77.5 -26t-31.5 -87l-12 -109h114v-42h-119l-50 -456q-5 -51 -38 -82.5t-89 -31.5q-34 0 -58 8v44q21 -8 51 -8q73 0 82 82l51 444h-90z" />
    <glyph glyph-name="uni02BB" unicode="&#x2bb;" horiz-adv-x="207" 
d="M71 473q-5 30 -5 54q0 92 76 161l28 -23q-48 -55 -48 -131q0 -31 7 -61h-58z" />
    <glyph glyph-name="afii57929" unicode="&#x2bc;" horiz-adv-x="207" 
d="M135 679q5 -30 5 -54q0 -92 -76 -161l-28 23q48 55 48 131q0 31 -7 61h58z" />
    <glyph glyph-name="circumflex" unicode="&#x2c6;" horiz-adv-x="500" 
d="M112 556l120 146h37l119 -146h-49l-90 100l-89 -100h-48z" />
    <glyph glyph-name="caron" unicode="&#x2c7;" horiz-adv-x="500" 
d="M229 556l-117 150h50l88 -103l89 103h49l-119 -150h-40z" />
    <glyph glyph-name="uni02C9" unicode="&#x2c9;" horiz-adv-x="500" 
d="M116 567v44h267v-44h-267z" />
    <glyph glyph-name="breve" unicode="&#x2d8;" horiz-adv-x="500" 
d="M250 550q-53 0 -92.5 35t-44.5 103h48q3 -43 27 -68.5t62 -25.5q37 0 61 25.5t27 68.5h49q-6 -68 -45 -103t-92 -35z" />
    <glyph glyph-name="dotaccent" unicode="&#x2d9;" horiz-adv-x="500" 
d="M250 590q-17 0 -29 12.5t-12 29.5q0 18 12 30.5t29 12.5t29 -12t12 -30t-12 -30.5t-29 -12.5z" />
    <glyph glyph-name="ring" unicode="&#x2da;" horiz-adv-x="500" 
d="M250 545q-36 0 -63.5 26.5t-27.5 63.5q0 38 27 64.5t64 26.5t64 -26.5t27 -64.5q0 -37 -27.5 -63.5t-63.5 -26.5zM250 577q24 0 39 17t15 41q0 25 -15 42t-39 17t-39 -17t-15 -42q0 -24 15 -41t39 -17z" />
    <glyph glyph-name="ogonek" unicode="&#x2db;" horiz-adv-x="500" 
d="M268 -215q-44 0 -70.5 24.5t-26.5 67.5q0 41 25.5 72.5t63.5 50.5h39q-81 -55 -81 -119q0 -25 16 -41.5t42 -16.5q38 0 59 13v-36q-32 -15 -67 -15z" />
    <glyph glyph-name="tilde" unicode="&#x2dc;" horiz-adv-x="500" 
d="M146 573l-29 25q39 51 92 51q23 0 51 -14t43 -14q28 0 56 34l28 -26q-40 -51 -93 -51q-21 0 -48.5 14t-44.5 14q-31 0 -55 -33z" />
    <glyph glyph-name="hungarumlaut" unicode="&#x2dd;" horiz-adv-x="501" 
d="M105 556l80 119h69l-102 -119h-47zM252 556l79 119h70l-102 -119h-47z" />
    <glyph glyph-name="gravecomb" unicode="&#x300;" horiz-adv-x="1" 
d="M-264 556l-121 119h75l94 -119h-48z" />
    <glyph glyph-name="acutecomb" unicode="&#x301;" horiz-adv-x="1" 
d="M-278 556l95 119h75l-122 -119h-48z" />
    <glyph glyph-name="uni0302" unicode="&#x302;" horiz-adv-x="1" 
d="M-384 546l120 146h37l119 -146h-49l-90 100l-89 -100h-48z" />
    <glyph glyph-name="tildecomb" unicode="&#x303;" horiz-adv-x="1" 
d="M-353 573l-29 25q39 51 92 51q23 0 51 -14t43 -14q28 0 56 34l28 -26q-40 -51 -93 -51q-21 0 -48.5 14t-44.5 14q-31 0 -55 -33z" />
    <glyph glyph-name="uni0304" unicode="&#x304;" horiz-adv-x="1" 
d="M-383 613v44h267v-44h-267z" />
    <glyph glyph-name="uni0306" unicode="&#x306;" horiz-adv-x="1" 
d="M-249 556q-53 0 -92.5 35t-44.5 103h48q3 -43 27 -68.5t62 -25.5q37 0 61 25.5t27 68.5h49q-6 -68 -45 -103t-92 -35z" />
    <glyph glyph-name="uni0307" unicode="&#x307;" horiz-adv-x="1" 
d="M-114 596q-15 0 -26 11.5t-11 27.5t11 27.5t26 11.5q16 0 27 -11.5t11 -27.5t-11 -27.5t-27 -11.5z" />
    <glyph glyph-name="uni0308" unicode="&#x308;" horiz-adv-x="1" 
d="M-284 578q-15 0 -26 11.5t-11 27.5t11 27t26 11q16 0 27 -11t11 -27t-11 -27.5t-27 -11.5zM-121 578q-16 0 -27 11.5t-11 27.5t11 27t27 11q15 0 26.5 -11t11.5 -27t-11.5 -27.5t-26.5 -11.5z" />
    <glyph glyph-name="uni030A" unicode="&#x30a;" horiz-adv-x="1" 
d="M-249 545q-36 0 -63.5 26.5t-27.5 63.5q0 38 27 64.5t64 26.5t64 -26.5t27 -64.5q0 -37 -27.5 -63.5t-63.5 -26.5zM-249 577q24 0 39 17t15 41q0 25 -15 42t-39 17t-39 -17t-15 -42q0 -24 15 -41t39 -17z" />
    <glyph glyph-name="uni030B" unicode="&#x30b;" horiz-adv-x="1" 
d="M-395 556l80 119h69l-102 -119h-47zM-248 556l79 119h70l-102 -119h-47z" />
    <glyph glyph-name="uni030C" unicode="&#x30c;" horiz-adv-x="1" 
d="M-210 550l-117 150h50l88 -103l89 103h49l-119 -150h-40z" />
    <glyph glyph-name="uni0312" unicode="&#x312;" horiz-adv-x="1" 
d="M-214 714l28 -23q-41 -45 -41 -100q0 -21 4 -38h-53q-3 18 -3 35q0 67 65 126z" />
    <glyph glyph-name="uni0326" unicode="&#x326;" horiz-adv-x="1" 
d="M-284 -213l-28 22q41 44 41 100q0 21 -4 38h53q4 -16 4 -35q0 -68 -66 -125z" />
    <glyph glyph-name="uni0327" unicode="&#x327;" horiz-adv-x="1" 
d="M-209 -198q-34 0 -54 9v34q20 -9 52 -9q25 0 41.5 10.5t16.5 32.5q0 42 -72 42l31 79h39l-20 -54q32 -4 49 -23t17 -44q0 -36 -27 -56.5t-73 -20.5z" />
    <glyph glyph-name="uni0394" unicode="&#x394;" horiz-adv-x="648" 
d="M31 0l270 680h46l270 -680h-586zM324 604l-217 -559h433z" />
    <glyph glyph-name="uni03A9" unicode="&#x3a9;" horiz-adv-x="660" 
d="M59 0v45h127q-110 95 -110 273q0 63 14 117t43 99t80.5 71t120.5 26t120 -26t80.5 -71t43.5 -99t14 -117q0 -176 -109 -273h119v-45h-174v50q107 83 107 269q0 120 -48.5 193t-152.5 73q-103 0 -152 -73.5t-49 -192.5q0 -185 107 -269v-50h-181z" />
    <glyph glyph-name="uni03BC" unicode="&#x3bc;" horiz-adv-x="508" 
d="M81 -180v666h52v-318q0 -131 117 -131q61 0 123 40v409h52v-486h-52v39q-57 -47 -136 -47q-38 0 -67 14t-40 38h-2q5 -35 5 -91v-133h-52z" />
    <glyph glyph-name="pi" unicode="&#x3c0;" horiz-adv-x="585" 
d="M501 -8q-60 0 -88 32t-28 103v315h-191v-442h-53v442h-116v44h545v-44h-132v-310q0 -51 17 -73t56 -22q33 0 57 12v-45q-29 -12 -67 -12z" />
    <glyph glyph-name="uni2007" unicode="&#x2007;" horiz-adv-x="571" 
 />
    <glyph glyph-name="uni2008" unicode="&#x2008;" horiz-adv-x="207" 
 />
    <glyph glyph-name="uni200B" unicode="&#x200b;" horiz-adv-x="0" 
 />
    <glyph glyph-name="endash" unicode="&#x2013;" horiz-adv-x="516" 
d="M56 256v43h404v-43h-404z" />
    <glyph glyph-name="emdash" unicode="&#x2014;" horiz-adv-x="818" 
d="M56 256v43h706v-43h-706z" />
    <glyph glyph-name="quoteleft" unicode="&#x2018;" horiz-adv-x="207" 
d="M71 473q-5 30 -5 54q0 92 76 161l28 -23q-48 -55 -48 -131q0 -31 7 -61h-58z" />
    <glyph glyph-name="quoteright" unicode="&#x2019;" horiz-adv-x="207" 
d="M135 679q5 -30 5 -54q0 -92 -76 -161l-28 23q48 55 48 131q0 31 -7 61h58z" />
    <glyph glyph-name="quotesinglbase" unicode="&#x201a;" horiz-adv-x="208" 
d="M135 85q5 -30 5 -54q0 -92 -76 -161l-28 23q48 55 48 131q0 31 -7 61h58z" />
    <glyph glyph-name="quotedblleft" unicode="&#x201c;" horiz-adv-x="353" 
d="M216 473q-5 30 -5 54q0 92 76 161l28 -23q-48 -55 -48 -131q0 -31 7 -61h-58zM71 473q-5 30 -5 54q0 92 76 161l28 -23q-48 -55 -48 -131q0 -31 7 -61h-58z" />
    <glyph glyph-name="quotedblright" unicode="&#x201d;" horiz-adv-x="353" 
d="M281 679q5 -30 5 -54q0 -92 -76 -161l-28 23q48 55 48 131q0 31 -7 61h58zM135 679q5 -30 5 -54q0 -92 -76 -161l-28 23q48 55 48 131q0 31 -7 61h58z" />
    <glyph glyph-name="quotedblbase" unicode="&#x201e;" horiz-adv-x="353" 
d="M281 85q5 -30 5 -54q0 -92 -76 -161l-28 23q48 55 48 131q0 31 -7 61h58zM135 85q5 -30 5 -54q0 -92 -76 -161l-28 23q48 55 48 131q0 31 -7 61h58z" />
    <glyph glyph-name="dagger" unicode="&#x2020;" horiz-adv-x="528" 
d="M57 397v46h181v237h52v-237h181v-46h-181v-577h-52v577h-181z" />
    <glyph glyph-name="daggerdbl" unicode="&#x2021;" horiz-adv-x="528" 
d="M57 397v46h181v237h52v-237h181v-46h-181v-291h181v-47h-181v-239h-52v239h-181v47h181v291h-181z" />
    <glyph glyph-name="bullet" unicode="&#x2022;" horiz-adv-x="333" 
d="M167 181q-44 0 -75 30.5t-31 74.5t31 74.5t75 30.5q43 0 74 -30.5t31 -74.5t-30.5 -74.5t-74.5 -30.5z" />
    <glyph glyph-name="ellipsis" unicode="&#x2026;" horiz-adv-x="606" 
d="M487 -8q-18 0 -30.5 12.5t-12.5 30.5t12.5 30t30.5 12q17 0 29.5 -12t12.5 -30t-12.5 -30.5t-29.5 -12.5zM302 -8q-18 0 -30.5 12.5t-12.5 30.5t12.5 30t30.5 12q17 0 29.5 -12t12.5 -30t-12.5 -30.5t-29.5 -12.5zM117 -8q-18 0 -30.5 12.5t-12.5 30.5t12.5 30t30.5 12
q17 0 29.5 -12t12.5 -30t-12.5 -30.5t-29.5 -12.5z" />
    <glyph glyph-name="perthousand" unicode="&#x2030;" horiz-adv-x="1187" 
d="M190 297q-71 0 -113.5 49t-42.5 118q0 70 42.5 118.5t113.5 48.5q70 0 111.5 -48.5t41.5 -117.5q0 -71 -41.5 -119.5t-111.5 -48.5zM190 336q50 0 76.5 38t26.5 90q0 51 -26.5 89t-76.5 38q-51 0 -78.5 -38t-27.5 -89q0 -50 28 -89t78 -39zM619 -8q-71 0 -113.5 48.5
t-42.5 118.5t42.5 118t113.5 48q70 0 111.5 -48t41.5 -118t-41.5 -118.5t-111.5 -48.5zM619 31q50 0 76.5 38t26.5 90q0 50 -26.5 88.5t-76.5 38.5q-52 0 -79 -37.5t-27 -89.5q0 -50 27.5 -89t78.5 -39zM1000 -8q-71 0 -113.5 48.5t-42.5 118.5t42.5 118t113.5 48
q70 0 111.5 -48t41.5 -118t-41.5 -118.5t-111.5 -48.5zM1000 31q50 0 76.5 38t26.5 90q0 50 -26.5 88.5t-76.5 38.5q-52 0 -79 -37.5t-27 -89.5q0 -50 27.5 -89t78.5 -39zM172 -23l420 666h48l-421 -666h-47z" />
    <glyph glyph-name="guilsinglleft" unicode="&#x2039;" horiz-adv-x="291" 
d="M188 56l-138 189l138 189h56l-138 -189l138 -189h-56z" />
    <glyph glyph-name="guilsinglright" unicode="&#x203a;" horiz-adv-x="291" 
d="M102 435l138 -189l-138 -189h-56l138 189l-138 189h56z" />
    <glyph glyph-name="fraction" unicode="&#x2044;" horiz-adv-x="159" 
d="M-167 -36l423 679h48l-422 -679h-49z" />
    <glyph glyph-name="uni2070" unicode="&#x2070;" horiz-adv-x="344" 
d="M311 463q0 -69 -34 -118t-105 -49q-72 0 -105.5 48.5t-33.5 118.5q0 69 33.5 118t105.5 49q71 0 105 -49t34 -118zM260 463q0 58 -22 93.5t-66 35.5q-45 0 -67 -35t-22 -94t22 -94t67 -35q44 0 66 35.5t22 93.5z" />
    <glyph glyph-name="uni2074" unicode="&#x2074;" horiz-adv-x="308" 
d="M296 368h-57v-67h-48v67h-173v34l171 225h50v-220h57v-39zM192 405v169h-1l-128 -169h129z" />
    <glyph glyph-name="uni2075" unicode="&#x2075;" horiz-adv-x="273" 
d="M243 405q0 -51 -40.5 -80t-101.5 -29q-49 0 -77 12v38q30 -11 70 -11q46 0 73 17.5t27 50.5q0 63 -90 63q-29 0 -67 -6l7 167h180v-39h-139l-4 -88q11 2 39 2q57 0 90 -25t33 -72z" />
    <glyph glyph-name="uni2076" unicode="&#x2076;" horiz-adv-x="322" 
d="M205 593q-102 0 -118 -106q38 25 89 25t80 -28t29 -76t-33 -80t-87 -32q-62 0 -95.5 41t-33.5 113q0 83 43.5 132t119.5 49q36 0 63 -9v-38q-31 9 -57 9zM164 476q-44 0 -79 -24v-7q0 -113 80 -113q33 0 51.5 20.5t18.5 53.5q0 70 -71 70z" />
    <glyph glyph-name="uni2077" unicode="&#x2077;" horiz-adv-x="259" 
d="M248 593q-113 -141 -134 -292h-51q23 152 132 287h-176v39h229v-34z" />
    <glyph glyph-name="uni2078" unicode="&#x2078;" horiz-adv-x="307" 
d="M268 554q0 -47 -76 -80q41 -17 64 -37.5t23 -54.5q0 -37 -34 -62t-90 -25q-58 0 -92.5 24.5t-34.5 60.5q0 33 23 54t65 38q-38 16 -58 34t-20 47q0 34 31.5 56.5t82.5 22.5q53 0 84.5 -22t31.5 -56zM220 553q0 19 -19 31t-48 12t-48 -11.5t-19 -31.5q0 -22 17.5 -35.5
t51.5 -27.5q31 13 48 27t17 36zM229 384q0 25 -19.5 40.5t-57.5 31.5q-37 -16 -56 -31.5t-19 -40.5q0 -24 22.5 -38.5t55.5 -14.5t53.5 14t20.5 39z" />
    <glyph glyph-name="uni2079" unicode="&#x2079;" horiz-adv-x="311" 
d="M275 476q0 -85 -43 -132.5t-118 -47.5q-38 0 -63 10v37q32 -9 58 -9q52 0 80 29t33 78q-34 -24 -85 -24t-80 27t-29 75t32.5 80t84.5 32q63 0 96.5 -40.5t33.5 -114.5zM148 452q43 0 76 24v6q0 113 -77 113q-32 0 -51 -21t-19 -53q0 -33 18.5 -51t52.5 -18z" />
    <glyph glyph-name="uni2080" unicode="&#x2080;" horiz-adv-x="344" 
d="M311 0q0 -69 -34 -118t-105 -49q-72 0 -105.5 48.5t-33.5 118.5q0 69 33.5 118t105.5 49q71 0 105 -49t34 -118zM260 0q0 58 -22 93.5t-66 35.5q-45 0 -67 -35t-22 -94t22 -94t67 -35q44 0 66 35.5t22 93.5z" />
    <glyph glyph-name="uni2081" unicode="&#x2081;" horiz-adv-x="208" 
d="M145 -162h-49v278q-31 -17 -85 -26v40q53 10 93 34h41v-326z" />
    <glyph glyph-name="uni2082" unicode="&#x2082;" horiz-adv-x="285" 
d="M247 -162h-227v35q46 34 69.5 53t52.5 46t41.5 50t12.5 45q0 61 -73 61q-44 0 -86 -19v40q44 19 93 19q55 0 86 -24t31 -70q0 -50 -41 -93t-125 -103h166v-40z" />
    <glyph glyph-name="uni2083" unicode="&#x2083;" horiz-adv-x="275" 
d="M115 -167q-42 0 -86 12v40q38 -12 80 -12q38 0 63.5 15.5t25.5 42.5q0 59 -108 59h-14v34h9q103 0 103 56q0 23 -19.5 36t-52.5 13q-39 0 -77 -12v39q38 12 85 12q71 0 99 -37q16 -17 16 -44q0 -57 -71 -76v-1q81 -17 81 -80q0 -45 -38 -71t-96 -26z" />
    <glyph glyph-name="uni2084" unicode="&#x2084;" horiz-adv-x="308" 
d="M296 -95h-57v-67h-48v67h-173v34l171 225h50v-220h57v-39zM192 -58v169h-1l-128 -169h129z" />
    <glyph glyph-name="uni2085" unicode="&#x2085;" horiz-adv-x="273" 
d="M243 -58q0 -51 -40.5 -80t-101.5 -29q-49 0 -77 12v38q30 -11 70 -11q46 0 73 17.5t27 50.5q0 63 -90 63q-29 0 -67 -6l7 167h180v-39h-139l-4 -88q11 2 39 2q57 0 90 -25t33 -72z" />
    <glyph glyph-name="uni2086" unicode="&#x2086;" horiz-adv-x="322" 
d="M205 130q-102 0 -118 -106q38 25 89 25t80 -28t29 -76t-33 -80t-87 -32q-62 0 -95.5 41t-33.5 113q0 83 43.5 132t119.5 49q36 0 63 -9v-38q-31 9 -57 9zM164 13q-44 0 -79 -24v-7q0 -113 80 -113q33 0 51.5 20.5t18.5 53.5q0 70 -71 70z" />
    <glyph glyph-name="uni2087" unicode="&#x2087;" horiz-adv-x="259" 
d="M248 130q-113 -141 -134 -292h-51q23 152 132 287h-176v39h229v-34z" />
    <glyph glyph-name="uni2088" unicode="&#x2088;" horiz-adv-x="307" 
d="M268 91q0 -47 -76 -80q41 -17 64 -37.5t23 -54.5q0 -37 -34 -62t-90 -25q-58 0 -92.5 24.5t-34.5 60.5q0 33 23 54t65 38q-38 16 -58 34t-20 47q0 34 31.5 56.5t82.5 22.5q53 0 84.5 -22t31.5 -56zM220 90q0 19 -19 31t-48 12t-48 -11.5t-19 -31.5q0 -22 17.5 -35.5
t51.5 -27.5q31 13 48 27t17 36zM229 -79q0 25 -19.5 40.5t-57.5 31.5q-37 -16 -56 -31.5t-19 -40.5q0 -24 22.5 -38.5t55.5 -14.5t53.5 14t20.5 39z" />
    <glyph glyph-name="uni2089" unicode="&#x2089;" horiz-adv-x="311" 
d="M275 13q0 -85 -43 -132.5t-118 -47.5q-38 0 -63 10v37q32 -9 58 -9q52 0 80 29t33 78q-34 -24 -85 -24t-80 27t-29 75t32.5 80t84.5 32q63 0 96.5 -40.5t33.5 -114.5zM148 -11q43 0 76 24v6q0 113 -77 113q-32 0 -51 -21t-19 -53q0 -33 18.5 -51t52.5 -18z" />
    <glyph glyph-name="Euro" unicode="&#x20ac;" horiz-adv-x="591" 
d="M51 351v42h79q20 109 86.5 173.5t176.5 64.5q73 0 127 -23v-52q-58 28 -121 28q-89 0 -142.5 -50.5t-69.5 -140.5h176v-42h-182q-2 -16 -2 -48q0 -27 3 -49h182v-42h-176q19 -82 73.5 -127.5t140.5 -45.5q75 0 131 29v-50q-53 -26 -136 -26q-107 0 -176 58.5t-90 161.5
h-80v42h74q-2 32 -2 49q0 32 2 48h-74z" />
    <glyph glyph-name="trademark" unicode="&#x2122;" horiz-adv-x="690" 
d="M303 344l29 279h48l63 -176q13 -39 19 -64h2q8 34 19 65l66 175h48l29 -279h-39l-18 174q-4 36 -4 63h-1q-8 -35 -21 -70l-64 -167h-36l-59 163q-17 49 -22 74h-2q0 -37 -3 -64l-17 -173h-37zM125 344v245h-80v34h200v-33h-81v-246h-39z" />
    <glyph glyph-name="Omega" unicode="&#x2126;" horiz-adv-x="660" 
d="M59 0v45h127q-110 95 -110 273q0 63 14 117t43 99t80.5 71t120.5 26t120 -26t80.5 -71t43.5 -99t14 -117q0 -176 -109 -273h119v-45h-174v50q107 83 107 269q0 120 -48.5 193t-152.5 73q-103 0 -152 -73.5t-49 -192.5q0 -185 107 -269v-50h-181z" />
    <glyph glyph-name="onethird" unicode="&#x2153;" horiz-adv-x="648" 
d="M487 -5q-42 0 -86 12v40q38 -12 80 -12q38 0 63.5 15.5t25.5 42.5q0 59 -108 59h-14v34h9q103 0 103 56q0 23 -19.5 36t-52.5 13q-39 0 -77 -12v39q38 12 85 12q71 0 99 -37q16 -17 16 -44q0 -57 -71 -76v-1q81 -17 81 -80q0 -45 -38 -71t-96 -26zM145 301h-49v278
q-31 -17 -85 -26v40q53 10 93 34h41v-326zM46 -36l423 679h48l-422 -679h-49z" />
    <glyph glyph-name="twothirds" unicode="&#x2154;" horiz-adv-x="719" 
d="M247 301h-227v35q46 34 69.5 53t52.5 46t41.5 50t12.5 45q0 61 -73 61q-44 0 -86 -19v40q44 19 93 19q55 0 86 -24t31 -70q0 -50 -41 -93t-125 -103h166v-40zM559 -5q-42 0 -86 12v40q38 -12 80 -12q38 0 63.5 15.5t25.5 42.5q0 59 -108 59h-14v34h9q103 0 103 56
q0 23 -19.5 36t-52.5 13q-39 0 -77 -12v39q38 12 85 12q71 0 99 -37q16 -17 16 -44q0 -57 -71 -76v-1q81 -17 81 -80q0 -45 -38 -71t-96 -26zM118 -36l423 679h48l-422 -679h-49z" />
    <glyph glyph-name="uni2155" unicode="&#x2155;" horiz-adv-x="645" 
d="M615 104q0 -51 -40.5 -80t-101.5 -29q-49 0 -77 12v38q30 -11 70 -11q46 0 73 17.5t27 50.5q0 63 -90 63q-29 0 -67 -6l7 167h180v-39h-139l-4 -88q11 2 39 2q57 0 90 -25t33 -72zM145 301h-49v278q-31 -17 -85 -26v40q53 10 93 34h41v-326zM46 -36l423 679h48l-422 -679
h-49z" />
    <glyph glyph-name="uni2156" unicode="&#x2156;" horiz-adv-x="717" 
d="M687 104q0 -51 -40.5 -80t-101.5 -29q-48 0 -77 12v38q30 -11 70 -11q46 0 73 17.5t27 50.5q0 63 -90 63q-29 0 -67 -6l7 167h180v-39h-139l-4 -88q11 2 39 2q57 0 90 -25t33 -72zM247 301h-227v35q46 34 69.5 53t52.5 46t41.5 50t12.5 45q0 61 -73 61q-44 0 -86 -19v40
q44 19 93 19q55 0 86 -24t31 -70q0 -50 -41 -93t-125 -103h166v-40zM118 -36l423 679h48l-422 -679h-49z" />
    <glyph glyph-name="uni2157" unicode="&#x2157;" horiz-adv-x="707" 
d="M677 104q0 -51 -40.5 -80t-101.5 -29q-49 0 -77 12v38q30 -11 70 -11q46 0 73 17.5t27 50.5q0 63 -90 63q-29 0 -67 -6l7 167h180v-39h-139l-4 -88q11 2 39 2q57 0 90 -25t33 -72zM115 296q-42 0 -86 12v40q38 -12 80 -12q38 0 63.5 15.5t25.5 42.5q0 59 -108 59h-14v34
h9q103 0 103 56q0 23 -19.5 36t-52.5 13q-39 0 -77 -12v39q38 12 85 12q71 0 99 -37q16 -17 16 -44q0 -57 -71 -76v-1q81 -17 81 -80q0 -45 -38 -71t-96 -26zM108 -36l423 679h48l-422 -679h-49z" />
    <glyph glyph-name="uni2158" unicode="&#x2158;" horiz-adv-x="740" 
d="M296 368h-57v-67h-48v67h-173v34l171 225h50v-220h57v-39zM192 405v169h-1l-128 -169h129zM710 104q0 -51 -40.5 -80t-101.5 -29q-48 0 -77 12v38q30 -11 70 -11q46 0 73 17.5t27 50.5q0 63 -90 63q-29 0 -67 -6l7 167h180v-39h-139l-4 -88q11 2 39 2q57 0 90 -25t33 -72
zM141 -36l423 679h48l-422 -679h-49z" />
    <glyph glyph-name="uni2159" unicode="&#x2159;" horiz-adv-x="665" 
d="M548 292q-102 0 -118 -106q38 25 89 25t80 -28t29 -76t-33 -80t-87 -32q-62 0 -95.5 41t-33.5 113q0 83 43.5 132t119.5 49q36 0 63 -9v-38q-31 9 -57 9zM507 175q-44 0 -79 -24v-7q0 -113 80 -113q33 0 51.5 20.5t18.5 53.5q0 70 -71 70zM145 301h-49v278
q-31 -17 -85 -26v40q53 10 93 34h41v-326zM46 -36l423 679h48l-422 -679h-49z" />
    <glyph glyph-name="uni215A" unicode="&#x215a;" horiz-adv-x="724" 
d="M612 292q-102 0 -118 -106q38 25 89 25t80 -28t29 -76t-33 -80t-87 -32q-62 0 -95.5 41t-33.5 113q0 83 43.5 132t119.5 49q36 0 63 -9v-38q-31 9 -57 9zM571 175q-44 0 -79 -24v-7q0 -113 80 -113q33 0 51.5 20.5t18.5 53.5q0 70 -71 70zM243 405q0 -51 -40.5 -80
t-101.5 -29q-49 0 -77 12v38q30 -11 70 -11q46 0 73 17.5t27 50.5q0 63 -90 63q-29 0 -67 -6l7 167h180v-39h-139l-4 -88q11 2 39 2q57 0 90 -25t33 -72zM106 -36l423 679h48l-422 -679h-49z" />
    <glyph glyph-name="oneeighth" unicode="&#x215b;" horiz-adv-x="679" 
d="M145 301h-49v278q-31 -17 -85 -26v40q53 10 93 34h41v-326zM46 -36l423 679h48l-422 -679h-49zM640 253q0 -47 -76 -80q41 -17 64 -37.5t23 -54.5q0 -37 -34 -62t-90 -25q-58 0 -92.5 24.5t-34.5 60.5q0 33 23 54t65 38q-38 16 -58 34t-20 47q0 34 31.5 56.5t82.5 22.5
q53 0 84.5 -22t31.5 -56zM592 252q0 19 -19 31t-48 12t-48 -11.5t-19 -31.5q0 -22 17.5 -35.5t51.5 -27.5q31 13 48 27t17 36zM601 83q0 25 -19.5 40.5t-57.5 31.5q-37 -16 -56 -31.5t-19 -40.5q0 -24 22.5 -38.5t55.5 -14.5t53.5 14t20.5 39z" />
    <glyph glyph-name="threeeighths" unicode="&#x215c;" horiz-adv-x="741" 
d="M115 296q-42 0 -86 12v40q38 -12 80 -12q38 0 63.5 15.5t25.5 42.5q0 59 -108 59h-14v34h9q103 0 103 56q0 23 -19.5 36t-52.5 13q-39 0 -77 -12v39q38 12 85 12q71 0 99 -37q16 -17 16 -44q0 -57 -71 -76v-1q81 -17 81 -80q0 -45 -38 -71t-96 -26zM108 -36l423 679h48
l-422 -679h-49zM702 253q0 -47 -76 -80q41 -17 64 -37.5t23 -54.5q0 -37 -34 -62t-90 -25q-58 0 -92.5 24.5t-34.5 60.5q0 33 23 54t65 38q-38 16 -58 34t-20 47q0 34 31.5 56.5t82.5 22.5q53 0 84.5 -22t31.5 -56zM654 252q0 19 -19 31t-48 12t-48 -11.5t-19 -31.5
q0 -22 17.5 -35.5t51.5 -27.5q31 13 48 27t17 36zM663 83q0 25 -19.5 40.5t-57.5 31.5q-37 -16 -56 -31.5t-19 -40.5q0 -24 22.5 -38.5t55.5 -14.5t53.5 14t20.5 39z" />
    <glyph glyph-name="fiveeighths" unicode="&#x215d;" horiz-adv-x="739" 
d="M243 405q0 -51 -40.5 -80t-101.5 -29q-49 0 -77 12v38q30 -11 70 -11q46 0 73 17.5t27 50.5q0 63 -90 63q-29 0 -67 -6l7 167h180v-39h-139l-4 -88q11 2 39 2q57 0 90 -25t33 -72zM106 -36l423 679h48l-422 -679h-49zM700 253q0 -47 -76 -80q41 -17 64 -37.5t23 -54.5
q0 -37 -34 -62t-90 -25q-58 0 -92.5 24.5t-34.5 60.5q0 33 23 54t65 38q-38 16 -58 34t-20 47q0 34 31.5 56.5t82.5 22.5q53 0 84.5 -22t31.5 -56zM652 252q0 19 -19 31t-48 12t-48 -11.5t-19 -31.5q0 -22 17.5 -35.5t51.5 -27.5q31 13 48 27t17 36zM661 83q0 25 -19.5 40.5
t-57.5 31.5q-37 -16 -56 -31.5t-19 -40.5q0 -24 22.5 -38.5t55.5 -14.5t53.5 14t20.5 39z" />
    <glyph glyph-name="seveneighths" unicode="&#x215e;" horiz-adv-x="695" 
d="M248 593q-113 -141 -134 -292h-51q23 152 132 287h-176v39h229v-34zM62 -36l423 679h48l-422 -679h-49zM656 253q0 -47 -76 -80q41 -17 64 -37.5t23 -54.5q0 -37 -34 -62t-90 -25q-58 0 -92.5 24.5t-34.5 60.5q0 33 23 54t65 38q-38 16 -58 34t-20 47q0 34 31.5 56.5
t82.5 22.5q53 0 84.5 -22t31.5 -56zM608 252q0 19 -19 31t-48 12t-48 -11.5t-19 -31.5q0 -22 17.5 -35.5t51.5 -27.5q31 13 48 27t17 36zM617 83q0 25 -19.5 40.5t-57.5 31.5q-37 -16 -56 -31.5t-19 -40.5q0 -24 22.5 -38.5t55.5 -14.5t53.5 14t20.5 39z" />
    <glyph glyph-name="uni215F" unicode="&#x215f;" horiz-adv-x="372" 
d="M145 301h-49v278q-31 -17 -85 -26v40q53 10 93 34h41v-326zM46 -36l423 679h48l-422 -679h-49z" />
    <glyph glyph-name="partialdiff" unicode="&#x2202;" horiz-adv-x="512" 
d="M226 -8q-84 0 -131.5 59t-47.5 139q0 99 53 155t143 56q40 0 82 -15t68 -36q-5 149 -52.5 221t-156.5 72q-30 0 -60 -8v46q36 8 65 8q58 0 103 -18.5t74 -50.5t48 -79t26.5 -101t7.5 -120q0 -161 -57 -244.5t-165 -83.5zM231 37q55 0 93 35t53.5 87.5t15.5 118.5v22
q-65 57 -146 57q-68 0 -106.5 -44t-38.5 -118q0 -70 33.5 -114t95.5 -44z" />
    <glyph glyph-name="Delta" unicode="&#x2206;" horiz-adv-x="648" 
d="M31 0l270 680h46l270 -680h-586zM324 604l-217 -559h433z" />
    <glyph glyph-name="product" unicode="&#x220f;" horiz-adv-x="835" 
d="M182 -174v880h-109v44h680v-44h-110v-880h-52v880h-357v-880h-52z" />
    <glyph glyph-name="summation" unicode="&#x2211;" horiz-adv-x="590" 
d="M68 -134v42l272 400l-272 400v42h463v-46h-399l271 -396l-271 -396h399v-46h-463z" />
    <glyph glyph-name="minus" unicode="&#x2212;" horiz-adv-x="512" 
d="M58 232v44h395v-44h-395z" />
    <glyph glyph-name="uni2215" unicode="&#x2215;" horiz-adv-x="396" 
d="M8 -113l412 833h50l-411 -833h-51z" />
    <glyph glyph-name="uni2219" unicode="&#x2219;" horiz-adv-x="572" 
d="M286 181q-44 0 -75 30.5t-31 74.5t31 74.5t75 30.5t74.5 -30.5t30.5 -74.5t-30.5 -74.5t-74.5 -30.5z" />
    <glyph glyph-name="radical" unicode="&#x221a;" horiz-adv-x="565" 
d="M260 0l-125 321h-87v42h124l114 -301l195 618h52l-221 -680h-52z" />
    <glyph glyph-name="infinity" unicode="&#x221e;" horiz-adv-x="866" 
d="M663 120q-45 0 -93 23t-139 90q-91 -68 -137.5 -90.5t-91.5 -22.5q-75 0 -120 40.5t-45 98.5q0 61 48.5 103.5t118.5 42.5q47 0 94.5 -24.5t134.5 -90.5q86 65 136.5 90t95.5 25q75 0 118 -40t43 -102q0 -59 -48 -101t-115 -42zM205 163q58 0 190 97q-76 56 -115 78.5
t-77 22.5q-52 0 -85 -29t-33 -70q0 -44 34.5 -71.5t85.5 -27.5zM664 163q49 0 82 30t33 70q0 41 -32.5 69.5t-84.5 28.5q-35 0 -78 -23t-115 -76q75 -55 118.5 -77t76.5 -22z" />
    <glyph glyph-name="integral" unicode="&#x222b;" horiz-adv-x="258" 
d="M19 -188q-38 0 -68 10v44q26 -11 57 -11q51 0 73 22.5t22 78.5v652q0 73 32.5 107.5t103.5 34.5q39 0 67 -10v-44q-26 11 -56 11q-52 0 -73.5 -22.5t-21.5 -78.5v-652q0 -73 -32.5 -107.5t-103.5 -34.5z" />
    <glyph glyph-name="approxequal" unicode="&#x2248;" horiz-adv-x="561" 
d="M80 138l-22 36q58 49 123 49q46 0 102 -19t94 -19q56 0 106 40l20 -38q-54 -48 -129 -48q-46 0 -103.5 19t-92.5 19q-50 0 -98 -39zM80 280l-22 36q58 49 123 49q46 0 102 -19t94 -19q56 0 106 40l20 -38q-54 -48 -129 -48q-46 0 -103.5 19t-92.5 19q-51 0 -98 -39z" />
    <glyph glyph-name="notequal" unicode="&#x2260;" horiz-adv-x="584" 
d="M49 313v42h287l79 129l38 -22l-66 -107h148v-42h-174l-75 -122h249v-42h-275l-92 -150l-36 20l79 130h-162v42h187l75 122h-262z" />
    <glyph glyph-name="lessequal" unicode="&#x2264;" horiz-adv-x="580" 
d="M501 32l-425 207v37l425 207v-50l-369 -176l369 -176v-49zM77 -99v45h427v-45h-427z" />
    <glyph glyph-name="greaterequal" unicode="&#x2265;" horiz-adv-x="580" 
d="M502 239l-425 -207v49l369 176l-369 176v50l425 -207v-37zM501 -54v-45h-427v45h427z" />
    <glyph glyph-name="dotmath" unicode="&#x22c5;" horiz-adv-x="572" 
d="M286 246q-19 0 -32.5 13t-13.5 32t13.5 32t32.5 13t32 -13t13 -32t-13 -32t-32 -13z" />
    <glyph glyph-name="lozenge" unicode="&#x25ca;" horiz-adv-x="597" 
d="M279 -8l-224 320l230 311h31l227 -325l-230 -306h-34zM114 313l183 -266l186 250l-182 268z" />
    <glyph glyph-name="uniFB00" unicode="&#xfb00;" horiz-adv-x="530" 
d="M154 444v-444h-52v444h-78v42h78v53q0 69 33.5 103.5t96.5 34.5q30 0 51 -7v-45q-24 8 -43 8q-44 0 -65 -22.5t-21 -73.5v-51h187v64q0 138 134 138q31 0 52 -7v-45q-21 7 -43 7q-47 0 -69 -22t-22 -73v-62h117v-42h-117v-444h-52v444h-187z" />
    <glyph glyph-name="fi" unicode="&#xfb01;" horiz-adv-x="484" 
d="M343 0v444h-189v-444h-52v444h-78v42h78v45q0 80 45.5 118.5t122.5 38.5q51 0 97 -16v-45q-44 16 -94 16q-63 0 -91 -28.5t-28 -86.5v-42h241v-486h-52z" />
    <glyph glyph-name="fl" unicode="&#xfb02;" horiz-adv-x="478" 
d="M24 444v42h78v46q0 80 47 118t121 38q61 0 124 -15v-673h-52v637q-25 6 -69 6q-62 0 -90.5 -28.5t-28.5 -86.5v-42h114v-42h-114v-444h-52v444h-78z" />
    <glyph glyph-name="uniFB03" unicode="&#xfb03;" horiz-adv-x="723" 
d="M341 0v444h-187v-444h-52v444h-78v42h78v53q0 69 33.5 103.5t96.5 34.5q30 0 51 -7v-45q-24 8 -43 8q-44 0 -65 -22.5t-21 -73.5v-51h187v45q0 80 45.5 118.5t122.5 38.5q51 0 97 -16v-45q-44 16 -94 16q-63 0 -91 -28.5t-28 -86.5v-42h241v-486h-52v444h-189v-444h-52z
" />
    <glyph glyph-name="uniFB04" unicode="&#xfb04;" horiz-adv-x="718" 
d="M154 444v-444h-52v444h-78v42h78v53q0 69 33.5 103.5t96.5 34.5q30 0 51 -7v-45q-24 8 -43 8q-44 0 -65 -22.5t-21 -73.5v-51h187v46q0 80 47 118t121 38q61 0 124 -15v-673h-52v637q-25 6 -69 6q-62 0 -90.5 -28.5t-28.5 -86.5v-42h114v-42h-114v-444h-52v444h-187z" />
    <glyph glyph-name="zero.numr" horiz-adv-x="344" 
d="M311 463q0 -69 -34 -118t-105 -49q-72 0 -105.5 48.5t-33.5 118.5q0 69 33.5 118t105.5 49q71 0 105 -49t34 -118zM260 463q0 58 -22 93.5t-66 35.5q-45 0 -67 -35t-22 -94t22 -94t67 -35q44 0 66 35.5t22 93.5z" />
    <glyph glyph-name="one.numr" horiz-adv-x="208" 
d="M145 301h-49v278q-31 -17 -85 -26v40q53 10 93 34h41v-326z" />
    <glyph glyph-name="two.numr" horiz-adv-x="285" 
d="M247 301h-227v35q46 34 69.5 53t52.5 46t41.5 50t12.5 45q0 61 -73 61q-44 0 -86 -19v40q44 19 93 19q55 0 86 -24t31 -70q0 -50 -41 -93t-125 -103h166v-40z" />
    <glyph glyph-name="three.numr" horiz-adv-x="275" 
d="M115 296q-42 0 -86 12v40q38 -12 80 -12q38 0 63.5 15.5t25.5 42.5q0 59 -108 59h-14v34h9q103 0 103 56q0 23 -19.5 36t-52.5 13q-39 0 -77 -12v39q38 12 85 12q71 0 99 -37q16 -17 16 -44q0 -57 -71 -76v-1q81 -17 81 -80q0 -45 -38 -71t-96 -26z" />
    <glyph glyph-name="four.numr" horiz-adv-x="308" 
d="M296 368h-57v-67h-48v67h-173v34l171 225h50v-220h57v-39zM192 405v169h-1l-128 -169h129z" />
    <glyph glyph-name="five.numr" horiz-adv-x="273" 
d="M243 405q0 -51 -40.5 -80t-101.5 -29q-49 0 -77 12v38q30 -11 70 -11q46 0 73 17.5t27 50.5q0 63 -90 63q-29 0 -67 -6l7 167h180v-39h-139l-4 -88q11 2 39 2q57 0 90 -25t33 -72z" />
    <glyph glyph-name="six.numr" horiz-adv-x="322" 
d="M205 593q-102 0 -118 -106q38 25 89 25t80 -28t29 -76t-33 -80t-87 -32q-62 0 -95.5 41t-33.5 113q0 83 43.5 132t119.5 49q36 0 63 -9v-38q-31 9 -57 9zM164 476q-44 0 -79 -24v-7q0 -113 80 -113q33 0 51.5 20.5t18.5 53.5q0 70 -71 70z" />
    <glyph glyph-name="seven.numr" horiz-adv-x="259" 
d="M248 593q-113 -141 -134 -292h-51q23 152 132 287h-176v39h229v-34z" />
    <glyph glyph-name="eight.numr" horiz-adv-x="307" 
d="M268 554q0 -47 -76 -80q41 -17 64 -37.5t23 -54.5q0 -37 -34 -62t-90 -25q-58 0 -92.5 24.5t-34.5 60.5q0 33 23 54t65 38q-38 16 -58 34t-20 47q0 34 31.5 56.5t82.5 22.5q53 0 84.5 -22t31.5 -56zM220 553q0 19 -19 31t-48 12t-48 -11.5t-19 -31.5q0 -22 17.5 -35.5
t51.5 -27.5q31 13 48 27t17 36zM229 384q0 25 -19.5 40.5t-57.5 31.5q-37 -16 -56 -31.5t-19 -40.5q0 -24 22.5 -38.5t55.5 -14.5t53.5 14t20.5 39z" />
    <glyph glyph-name="nine.numr" horiz-adv-x="311" 
d="M275 476q0 -85 -43 -132.5t-118 -47.5q-38 0 -63 10v37q32 -9 58 -9q52 0 80 29t33 78q-34 -24 -85 -24t-80 27t-29 75t32.5 80t84.5 32q63 0 96.5 -40.5t33.5 -114.5zM148 452q43 0 76 24v6q0 113 -77 113q-32 0 -51 -21t-19 -53q0 -33 18.5 -51t52.5 -18z" />
    <glyph glyph-name="zero.dnom" horiz-adv-x="344" 
d="M311 162q0 -69 -34 -118t-105 -49q-72 0 -105.5 48.5t-33.5 118.5q0 69 33.5 118t105.5 49q71 0 105 -49t34 -118zM260 162q0 58 -22 93.5t-66 35.5q-45 0 -67 -35t-22 -94t22 -94t67 -35q44 0 66 35.5t22 93.5z" />
    <glyph glyph-name="one.dnom" horiz-adv-x="208" 
d="M145 0h-49v278q-31 -17 -85 -26v40q53 10 93 34h41v-326z" />
    <glyph glyph-name="two.dnom" horiz-adv-x="285" 
d="M247 0h-227v35q46 34 69.5 53t52.5 46t41.5 50t12.5 45q0 61 -73 61q-44 0 -86 -19v40q44 19 93 19q55 0 86 -24t31 -70q0 -50 -41 -93t-125 -103h166v-40z" />
    <glyph glyph-name="three.dnom" horiz-adv-x="275" 
d="M115 -5q-42 0 -86 12v40q38 -12 80 -12q38 0 63.5 15.5t25.5 42.5q0 59 -108 59h-14v34h9q103 0 103 56q0 23 -19.5 36t-52.5 13q-39 0 -77 -12v39q38 12 85 12q71 0 99 -37q16 -17 16 -44q0 -57 -71 -76v-1q81 -17 81 -80q0 -45 -38 -71t-96 -26z" />
    <glyph glyph-name="four.dnom" horiz-adv-x="308" 
d="M296 67h-57v-67h-48v67h-173v34l171 225h50v-220h57v-39zM192 104v169h-1l-128 -169h129z" />
    <glyph glyph-name="five.dnom" horiz-adv-x="273" 
d="M243 104q0 -51 -40.5 -80t-101.5 -29q-49 0 -77 12v38q30 -11 70 -11q46 0 73 17.5t27 50.5q0 63 -90 63q-29 0 -67 -6l7 167h180v-39h-139l-4 -88q11 2 39 2q57 0 90 -25t33 -72z" />
    <glyph glyph-name="six.dnom" horiz-adv-x="322" 
d="M205 292q-102 0 -118 -106q38 25 89 25t80 -28t29 -76t-33 -80t-87 -32q-62 0 -95.5 41t-33.5 113q0 83 43.5 132t119.5 49q36 0 63 -9v-38q-31 9 -57 9zM164 175q-44 0 -79 -24v-7q0 -113 80 -113q33 0 51.5 20.5t18.5 53.5q0 70 -71 70z" />
    <glyph glyph-name="seven.dnom" horiz-adv-x="259" 
d="M248 292q-113 -141 -134 -292h-51q23 152 132 287h-176v39h229v-34z" />
    <glyph glyph-name="eight.dnom" horiz-adv-x="307" 
d="M268 253q0 -47 -76 -80q41 -17 64 -37.5t23 -54.5q0 -37 -34 -62t-90 -25q-58 0 -92.5 24.5t-34.5 60.5q0 33 23 54t65 38q-38 16 -58 34t-20 47q0 34 31.5 56.5t82.5 22.5q53 0 84.5 -22t31.5 -56zM220 252q0 19 -19 31t-48 12t-48 -11.5t-19 -31.5q0 -22 17.5 -35.5
t51.5 -27.5q31 13 48 27t17 36zM229 83q0 25 -19.5 40.5t-57.5 31.5q-37 -16 -56 -31.5t-19 -40.5q0 -24 22.5 -38.5t55.5 -14.5t53.5 14t20.5 39z" />
    <glyph glyph-name="nine.dnom" horiz-adv-x="311" 
d="M275 175q0 -85 -43 -132.5t-118 -47.5q-38 0 -63 10v37q32 -9 58 -9q52 0 80 29t33 78q-34 -24 -85 -24t-80 27t-29 75t32.5 80t84.5 32q63 0 96.5 -40.5t33.5 -114.5zM148 151q43 0 76 24v6q0 113 -77 113q-32 0 -51 -21t-19 -53q0 -33 18.5 -51t52.5 -18z" />
    <glyph glyph-name="space.frac" horiz-adv-x="47" 
 />
    <glyph glyph-name="numbersign.tf" 
d="M308 0h-43l28 186h-117l-28 -186h-43l28 186h-104l6 42h104l28 187h-103l6 42h104l25 165h43l-25 -165h117l25 165h43l-25 -165h103l-6 -42h-104l-28 -187h103l-6 -42h-103zM299 228l28 187h-117l-28 -187h117z" />
    <glyph glyph-name="dollar.tf" 
d="M217 -101v93q-80 3 -129 25v49q73 -30 137 -30q63 0 102.5 28.5t39.5 84.5q0 27 -10.5 47.5t-34.5 38t-42 27t-55 25.5q-32 15 -51.5 26t-43 30t-34.5 45.5t-11 60.5q0 58 37.5 96.5t103.5 45.5v81h45v-79q58 -3 114 -25v-49q-54 28 -125 28q-56 0 -88.5 -26t-32.5 -73
q0 -22 9 -39.5t29.5 -32.5t35.5 -23t44 -22q34 -16 50 -24t42.5 -25.5t39 -33.5t23 -41.5t10.5 -56.5q0 -63 -44 -106.5t-116 -50.5v-94h-45z" />
    <glyph glyph-name="percent.tf" 
d="M130 363q-55 0 -88 39t-33 95t33 94.5t88 38.5t88 -38.5t33 -94.5t-33 -95t-88 -39zM130 402q37 0 57 26.5t20 68.5q0 41 -20 68t-57 27q-36 0 -56 -27t-20 -68q0 -42 20 -68.5t56 -26.5zM380 -8q-55 0 -88 38.5t-33 94.5t33 95t88 39t88 -38.5t33 -94.5t-33 -95t-88 -39
zM380 31q37 0 56.5 26.5t19.5 68.5q0 41 -19.5 67.5t-56.5 26.5t-56.5 -26.5t-19.5 -68.5t19.5 -68t56.5 -26zM62 -19l337 661h45l-337 -661h-45z" />
    <glyph glyph-name="plus.tf" 
d="M12 232v44h219v210h49v-210h218v-44h-218v-232h-49v232h-219z" />
    <glyph glyph-name="zero.tf" 
d="M254 -8q-58 0 -102 28t-68 75.5t-35.5 101.5t-11.5 114t11 114t34.5 102t67.5 76t104 28q58 0 102 -28.5t68.5 -76.5t36 -102t11.5 -113q0 -60 -11.5 -114t-36 -101.5t-68.5 -75.5t-102 -28zM254 37q81 0 121 76t40 198q0 121 -40 198t-121 77t-120.5 -76t-39.5 -199
q0 -122 39.5 -198t120.5 -76z" />
    <glyph glyph-name="one.tf" 
d="M264 0v565q-28 -18 -82 -38t-95 -27v45q43 7 100.5 31t87.5 47h42v-623h-53z" />
    <glyph glyph-name="two.tf" 
d="M62 0v43q159 148 230 237.5t71 173.5q0 66 -34.5 98.5t-96.5 32.5q-70 0 -140 -36v46q64 36 147 36q88 0 134 -46.5t46 -129.5q0 -42 -16.5 -85.5t-38 -77.5t-66.5 -82.5t-76 -78t-92 -85.5h289v-46h-357z" />
    <glyph glyph-name="three.tf" 
d="M215 -8q-77 0 -136 24v48q62 -26 133 -26q67 0 111.5 35.5t44.5 97.5q0 133 -208 133v45q193 0 193 127q0 51 -34 80t-95 29q-72 0 -126 -24v47q59 23 131 23q84 0 132 -42t48 -110q0 -54 -32.5 -92t-88.5 -56v-1q65 -14 101.5 -55.5t36.5 -99.5q0 -82 -58.5 -132.5
t-152.5 -50.5z" />
    <glyph glyph-name="four.tf" 
d="M326 0v137h-299v36l294 450h56v-442h91v-44h-91v-137h-51zM325 550l-239 -369h240z" />
    <glyph glyph-name="five.tf" 
d="M208 -9q-75 0 -126 23v48q55 -25 122 -25q79 0 129 41.5t50 113.5q0 67 -44 104t-121 37q-54 0 -110 -14l11 304h291v-45h-244l-7 -207q54 6 69 6q98 0 154 -47.5t56 -134.5q0 -97 -66 -150.5t-164 -53.5z" />
    <glyph glyph-name="six.tf" 
d="M267 -8q-104 0 -157 77t-53 215q0 153 73.5 250t191.5 97q55 0 101 -14v-48q-41 17 -95 17q-91 0 -148 -67t-66 -176q25 22 70.5 39t88.5 17q86 0 134.5 -53.5t48.5 -145.5q0 -88 -52 -148t-137 -60zM263 37q65 0 101.5 45.5t36.5 116.5q0 69 -34.5 112.5t-99.5 43.5
q-83 0 -155 -55q-2 -24 -2 -35q0 -105 40.5 -166.5t112.5 -61.5z" />
    <glyph glyph-name="seven.tf" 
d="M154 0q25 144 91 304t144 273h-330v46h386v-41q-91 -138 -155 -299t-82 -283h-54z" />
    <glyph glyph-name="eight.tf" 
d="M257 -8q-87 0 -141.5 47.5t-54.5 112.5q0 62 39.5 102t107.5 74q-44 25 -67.5 41t-44 48t-20.5 72q0 59 52.5 100.5t123.5 41.5q79 0 128 -41t49 -99t-35 -94t-95 -66q36 -19 54.5 -30.5t45 -33.5t38 -49.5t11.5 -63.5q0 -74 -56.5 -118t-134.5 -44zM258 38q58 0 97 31.5
t39 85.5q0 49 -39 84t-108 68q-63 -31 -98.5 -65.5t-35.5 -87.5q0 -51 43 -83.5t102 -32.5zM129 490q0 -26 9.5 -46.5t31.5 -38t39 -27.5t51 -27q118 57 118 138q0 42 -36.5 69.5t-87.5 27.5q-52 0 -88.5 -27t-36.5 -69z" />
    <glyph glyph-name="nine.tf" 
d="M193 -8q-60 0 -108 16v48q47 -19 103 -19q90 0 146.5 65t64.5 181q-27 -25 -71.5 -40.5t-86.5 -15.5q-84 0 -136 52.5t-52 143.5q0 87 52 147.5t139 60.5q104 0 158 -75.5t54 -218.5q0 -159 -72.5 -252t-190.5 -93zM246 271q91 0 155 54q1 11 1 31q0 111 -40 170.5
t-114 59.5q-65 0 -102.5 -45t-37.5 -116q0 -69 37 -111.5t101 -42.5z" />
    <glyph glyph-name="less.tf" 
d="M352 29l-245 214l246 216l31 -32l-207 -182l206 -181z" />
    <glyph glyph-name="equal.tf" 
d="M61 165v45h385v-45h-385zM61 323v45h385v-45h-385z" />
    <glyph glyph-name="greater.tf" 
d="M156 460l245 -214l-246 -216l-31 32l207 182l-206 181z" />
    <glyph glyph-name="cent.tf" 
d="M275 -122v115q-87 8 -138.5 72t-51.5 167q0 108 48.5 181t141.5 80v114h45v-114q57 -5 91 -25v-45q-47 27 -112 27q-81 0 -121 -57.5t-40 -158.5q0 -96 46 -147t123 -51q69 0 115 26v-44q-43 -22 -102 -25v-115h-45z" />
    <glyph glyph-name="sterling.tf" 
d="M83 288v42h89l-6 14q-1 3 -7.5 17t-8.5 19t-6.5 17.5t-6.5 20t-4.5 18.5t-3.5 22t-1 22q0 71 47 111t123 40q52 0 105 -15v-48q-51 17 -101 17q-57 0 -89 -26.5t-32 -78.5q0 -12 2 -24.5t3.5 -21t6.5 -23t7 -19.5t9 -22t8 -20l8 -20h150v-42h-136q9 -38 9 -66
q0 -58 -25.5 -104t-65.5 -74h270v-44h-343v37q114 66 114 184q0 28 -11 67h-104z" />
    <glyph glyph-name="yen.tf" 
d="M73 231v38h142l-176 353h56l161 -328l159 328h55l-177 -353h151v-38h-164v-88h164v-39h-164v-104h-53v104h-154v39h154v88h-154z" />
    <glyph glyph-name="section.tf" 
d="M109 -127v47q53 -19 114 -19q53 0 83 20.5t30 59.5q0 27 -22 60.5t-41.5 53t-61.5 57.5q-42 40 -65.5 64.5t-44 60.5t-20.5 68q0 75 81 116q-39 53 -39 105q0 58 44 90.5t116 32.5q68 0 117 -15v-46q-50 18 -116 18q-111 0 -111 -80q0 -12 3.5 -25t12 -26.5t16.5 -24
t22.5 -26t23.5 -24.5t27.5 -26t26.5 -25q3 -3 25 -24t27 -26t21.5 -23t21 -27t13.5 -25t12 -31t3 -31q0 -72 -83 -116q40 -52 40 -103q0 -59 -43 -91.5t-117 -32.5q-70 0 -116 14zM257 367q-57 52 -67 62q-61 -31 -61 -80q0 -14 6 -29t12.5 -26.5t22 -29t24 -26t30.5 -29.5
t30 -28q7 -7 29.5 -28.5t33.5 -33.5q63 31 63 81q0 36 -30.5 73.5t-92.5 93.5z" />
    <glyph glyph-name="logicalnot.tf" 
d="M403 30v218h-347v45h395v-263h-48z" />
    <glyph glyph-name="plusminus.tf" 
d="M10 232v44h222v210h49v-210h219v-44h-219v-232h-49v232h-222zM42 -101v45h428v-45h-428z" />
    <glyph glyph-name="multiply.tf" 
d="M98 59l-31 32l152 155l-150 153l33 34l150 -154l150 154l31 -32l-150 -153l158 -162l-33 -33l-158 161z" />
    <glyph glyph-name="divide.tf" 
d="M255 51q-18 0 -30.5 12t-12.5 30q0 17 12.5 29t30.5 12q17 0 29.5 -12t12.5 -29q0 -18 -12.5 -30t-29.5 -12zM255 373q-18 0 -30.5 12.5t-12.5 29.5t12.5 29.5t30.5 12.5q17 0 29.5 -12.5t12.5 -29.5t-12.5 -29.5t-29.5 -12.5zM22 232v44h465v-44h-465z" />
    <glyph glyph-name="florin.tf" 
d="M128 381v42h105l14 119q17 146 154 146q45 0 75 -13v-42q-29 12 -64 12q-55 0 -82 -28t-34 -89l-12 -105h125v-42h-130l-50 -455q-6 -51 -40 -83t-94 -32q-33 0 -66 11v44q24 -11 59 -11q40 0 62.5 23t27.5 61l50 442h-100z" />
    <glyph glyph-name="uni2007.tf" 
 />
    <glyph glyph-name="perthousand.tf" 
d="M130 -8q-56 0 -88 38.5t-32 94.5t32 94t88 38q54 0 86.5 -38.5t32.5 -93.5q0 -56 -32.5 -94.5t-86.5 -38.5zM130 30q36 0 55.5 26.5t19.5 68.5q0 41 -19.5 67.5t-55.5 26.5t-55.5 -26.5t-19.5 -67.5q0 -42 19.5 -68.5t55.5 -26.5zM132 365q-55 0 -88 38.5t-33 93.5
q0 56 33 94.5t88 38.5q54 0 87.5 -38.5t33.5 -93.5t-33.5 -94t-87.5 -39zM132 403q37 0 56.5 26.5t19.5 68.5q0 41 -19.5 67.5t-56.5 26.5t-56.5 -27t-19.5 -68t19.5 -67.5t56.5 -26.5zM389 -8q-55 0 -87.5 38.5t-32.5 94.5t32.5 94t87.5 38t87.5 -38t32.5 -94t-32.5 -94.5
t-87.5 -38.5zM389 30q36 0 55.5 26.5t19.5 68.5q0 41 -19.5 67.5t-55.5 26.5t-55.5 -26.5t-19.5 -67.5q0 -42 19.5 -68.5t55.5 -26.5zM32 274l-22 29l473 94l22 -29z" />
    <glyph glyph-name="Euro.tf" 
d="M19 351v42h78q19 107 84.5 172.5t173.5 65.5q68 0 117 -20v-52q-55 25 -111 25q-172 0 -207 -191h169v-42h-174q-2 -16 -2 -48q0 -19 2 -49h175v-42h-168q19 -81 71.5 -127t137.5 -46q68 0 120 26v-50q-51 -23 -126 -23q-106 0 -173 59t-88 161h-79v42h73q-2 32 -2 49
q0 32 2 48h-73z" />
    <glyph glyph-name="minus.tf" 
d="M56 232v44h395v-44h-395z" />
    <glyph glyph-name="uni2215.tf" 
d="M24 -113l412 833h50l-411 -833h-51z" />
    <glyph glyph-name="uni2219.tf" 
d="M255 181q-44 0 -75 30.5t-31 74.5t31 74.5t75 30.5q43 0 74 -30.5t31 -74.5t-30.5 -74.5t-74.5 -30.5z" />
    <glyph glyph-name="approxequal.tf" 
d="M61 138l-22 36q58 49 123 49q46 0 98 -19t90 -19q56 0 106 40l20 -38q-54 -48 -129 -48q-46 0 -99.5 19t-88.5 19q-52 0 -98 -39zM61 280l-22 36q58 49 123 49q46 0 98 -19t90 -19q56 0 106 40l20 -38q-54 -48 -129 -48q-46 0 -99.5 19t-88.5 19q-51 0 -98 -39z" />
    <glyph glyph-name="notequal.tf" 
d="M27 313v42h272l79 129l37 -22l-66 -107h133v-42h-158l-75 -122h233v-42h-259l-92 -150l-36 20l79 130h-147v42h172l75 122h-247z" />
    <glyph glyph-name="lessequal.tf" 
d="M466 32l-425 207v37l425 207v-50l-369 -176l369 -176v-49zM42 -99v45h427v-45h-427z" />
    <glyph glyph-name="greaterequal.tf" 
d="M467 239l-425 -207v49l369 176l-369 176v50l425 -207v-37zM466 -54v-45h-427v45h427z" />
    <glyph glyph-name="dotmath.tf" 
d="M255 246q-19 0 -32.5 13t-13.5 32t13.5 32t32.5 13t32 -13t13 -32t-13 -32t-32 -13z" />
    <glyph glyph-name="numbersign.lf" horiz-adv-x="477" 
d="M292 0h-43l28 186h-117l-28 -186h-43l28 186h-90l6 42h90l28 187h-89l6 42h90l25 165h43l-25 -165h117l25 165h43l-25 -165h89l-6 -42h-90l-28 -187h89l-6 -42h-89zM283 228l28 187h-117l-28 -187h117z" />
    <glyph glyph-name="dollar.lf" horiz-adv-x="447" 
d="M187 -101v93q-80 3 -129 25v49q73 -30 137 -30q63 0 102.5 28.5t39.5 84.5q0 27 -10.5 47.5t-34.5 38t-42 27t-55 25.5q-32 15 -51.5 26t-43 30t-34.5 45.5t-11 60.5q0 58 37.5 96.5t103.5 45.5v81h45v-79q58 -3 114 -25v-49q-54 28 -125 28q-56 0 -88.5 -26t-32.5 -73
q0 -22 9 -39.5t29.5 -32.5t35.5 -23t44 -22q34 -16 50 -24t42.5 -25.5t39 -33.5t23 -41.5t10.5 -56.5q0 -63 -44 -106.5t-116 -50.5v-94h-45z" />
    <glyph glyph-name="percent.lf" horiz-adv-x="806" 
d="M190 297q-71 0 -113.5 49t-42.5 118q0 70 42.5 118.5t113.5 48.5q70 0 111.5 -48.5t41.5 -117.5q0 -71 -41.5 -119.5t-111.5 -48.5zM190 336q50 0 76.5 38t26.5 90q0 51 -26.5 89t-76.5 38q-51 0 -78.5 -38t-27.5 -89q0 -50 28 -89t78 -39zM619 -8q-71 0 -113.5 48.5
t-42.5 118.5t42.5 118t113.5 48q70 0 111.5 -48t41.5 -118t-41.5 -118.5t-111.5 -48.5zM619 31q50 0 76.5 38t26.5 90q0 50 -26.5 88.5t-76.5 38.5q-52 0 -79 -37.5t-27 -89.5q0 -50 27.5 -89t78.5 -39zM172 -23l420 666h48l-421 -666h-47z" />
    <glyph glyph-name="plus.lf" horiz-adv-x="572" 
d="M43 232v44h219v210h49v-210h218v-44h-218v-232h-49v232h-219z" />
    <glyph glyph-name="zero.lf" horiz-adv-x="563" 
d="M281 -8q-61 0 -106.5 28t-70.5 75.5t-36.5 101.5t-11.5 114q0 61 11 114t35.5 101.5t70.5 76.5t108 28q49 0 88.5 -19t65 -50.5t42.5 -74t24 -86t7 -90.5q0 -60 -12 -114t-37.5 -101.5t-71 -75.5t-106.5 -28zM281 37q86 0 128 76t42 198q0 121 -42.5 198t-127.5 77
q-86 0 -127.5 -76t-41.5 -199q0 -122 41.5 -198t127.5 -76z" />
    <glyph glyph-name="one.lf" horiz-adv-x="328" 
d="M168 0v565q-61 -34 -136 -47v45q31 6 75.5 23.5t71.5 36.5h42v-623h-53z" />
    <glyph glyph-name="two.lf" horiz-adv-x="454" 
d="M397 0h-352v43q159 148 230 237.5t71 173.5q0 131 -131 131q-72 0 -139 -36v46q61 36 146 36q88 0 134 -46.5t46 -129.5q0 -42 -16.5 -85.5t-38 -77.5t-66.5 -82.5t-76 -78t-92 -85.5h81h203v-46z" />
    <glyph glyph-name="three.lf" horiz-adv-x="432" 
d="M181 -8q-77 0 -136 24v48q62 -26 133 -26q67 0 111.5 35.5t44.5 97.5q0 133 -201 133h-7v45h5q188 0 188 127q0 51 -34 80t-95 29q-72 0 -126 -24v47q59 23 131 23q84 0 132 -42t48 -110q0 -54 -32.5 -92t-88.5 -56v-1q65 -14 101.5 -55.5t36.5 -99.5q0 -82 -58.5 -132.5
t-152.5 -50.5z" />
    <glyph glyph-name="four.lf" horiz-adv-x="533" 
d="M491 137h-98v-137h-51v137h-308v36l303 450h56v-442h98v-44zM342 181v369l-1 -1l-247 -368h248z" />
    <glyph glyph-name="five.lf" horiz-adv-x="456" 
d="M183 -9q-73 0 -121 22v48q53 -24 117 -24q78 0 126 41t48 113q0 67 -42.5 105t-117.5 38q-52 0 -105 -12l11 301h279v-45h-233l-7 -205q38 6 65 6q96 0 150.5 -48.5t54.5 -136.5q0 -97 -64 -150t-161 -53z" />
    <glyph glyph-name="six.lf" horiz-adv-x="513" 
d="M273 -8q-103 0 -154.5 76.5t-51.5 215.5q0 154 71 250.5t189 96.5q54 0 100 -14v-48q-41 17 -95 17q-90 0 -144 -66t-64 -177q25 23 68.5 39.5t86.5 16.5q85 0 132.5 -53.5t47.5 -145.5q0 -88 -50 -148t-136 -60zM269 37q65 0 100.5 45.5t35.5 116.5q0 69 -33.5 112.5
t-98.5 43.5q-79 0 -151 -55q-2 -24 -2 -35q0 -106 38.5 -167t110.5 -61z" />
    <glyph glyph-name="seven.lf" horiz-adv-x="415" 
d="M102 0q25 147 88 307t138 270h-302v46h358v-41q-90 -135 -149.5 -294.5t-78.5 -287.5h-54z" />
    <glyph glyph-name="eight.lf" horiz-adv-x="496" 
d="M250 -8q-84 0 -135.5 47.5t-51.5 112.5q0 63 37 104t102 73q-32 18 -50.5 30.5t-39 31.5t-30 43t-9.5 55q0 59 51 100.5t121 41.5q79 0 126.5 -40.5t47.5 -99.5t-34 -95t-92 -65q34 -17 53.5 -30t42.5 -34t33.5 -49t10.5 -64q0 -74 -53.5 -118t-129.5 -44zM252 38
q55 0 91 31.5t36 85.5q0 49 -37 85t-100 67q-60 -30 -93.5 -64.5t-33.5 -88.5q0 -51 40.5 -83.5t96.5 -32.5zM126 490q0 -26 9 -46t30.5 -37.5t38.5 -27.5t50 -27q114 55 114 137q0 42 -35 69.5t-86 27.5t-86 -26.5t-35 -69.5z" />
    <glyph glyph-name="nine.lf" horiz-adv-x="508" 
d="M190 -8q-59 0 -104 15v48q44 -18 99 -18q90 0 144 64.5t62 181.5q-27 -25 -69 -40.5t-83 -15.5q-84 0 -134 52t-50 144q0 88 50 148t137 60q103 0 154.5 -75t51.5 -219q0 -160 -70 -252.5t-188 -92.5zM243 271q86 0 150 54q1 12 1 31q0 112 -38 171t-111 59
q-64 0 -100 -44.5t-36 -116.5q0 -69 35.5 -111.5t98.5 -42.5z" />
    <glyph glyph-name="less.lf" horiz-adv-x="360" 
d="M280 29l-245 214l246 216l31 -32l-207 -182l206 -181z" />
    <glyph glyph-name="equal.lf" horiz-adv-x="456" 
d="M35 165v45h385v-45h-385zM35 323v45h385v-45h-385z" />
    <glyph glyph-name="greater.lf" horiz-adv-x="360" 
d="M79 459l245 -214l-246 -216l-31 32l207 182l-206 181z" />
    <glyph glyph-name="cent.lf" horiz-adv-x="420" 
d="M230 -122v115q-88 8 -139 72t-51 167q0 107 48.5 180t141.5 81v114h45v-114q56 -5 92 -25v-45q-49 27 -113 27q-81 0 -121 -57.5t-40 -158.5q0 -96 46 -147t123 -51q69 0 115 26v-44q-43 -22 -102 -25v-115h-45z" />
    <glyph glyph-name="sterling.lf" horiz-adv-x="448" 
d="M56 288v42h89l-6 14q-1 3 -7.5 17t-8.5 19t-6.5 17.5t-6.5 20t-4.5 18.5t-3.5 22t-1 22q0 71 47 111t123 40q53 0 105 -15v-48q-51 17 -101 17q-57 0 -89 -26.5t-32 -78.5q0 -12 2 -24.5t3.5 -21t6.5 -23t7 -19.5t9 -22t8 -20l8 -20h150v-42h-136q9 -38 9 -66
q0 -58 -25.5 -104t-65.5 -74h270v-44h-343v37q114 66 114 184q0 28 -11 67h-104z" />
    <glyph glyph-name="yen.lf" horiz-adv-x="483" 
d="M60 231v38h141l-187 353h56l172 -329l170 329h56l-188 -353h150v-38h-163v-88h163v-39h-163v-104h-54v104h-153v39h153v88h-153z" />
    <glyph glyph-name="section.lf" horiz-adv-x="459" 
d="M204 -141q-56 0 -98 14v47q41 -18 98 -18q41 0 65 20.5t24 58.5q0 27 -17.5 59.5t-35.5 54t-58 66.5q-50 55 -77 98.5t-27 89.5q0 70 71 114q-34 52 -34 101q0 59 38.5 91.5t101.5 32.5q56 0 98 -14v-47q-44 18 -98 18q-41 0 -65 -21t-24 -59t26 -76.5t76 -93.5
q35 -38 55.5 -63t39.5 -62.5t19 -71.5q0 -69 -72 -114q34 -54 34 -101q0 -59 -38.5 -91.5t-101.5 -32.5zM223 370q-5 6 -22 25.5t-26 30.5q-20 -12 -34 -32.5t-14 -44.5t16 -53.5t34 -51t55 -63.5q36 -40 52 -61q48 30 48 77q0 24 -17 54.5t-34 51.5t-58 67z" />
    <glyph glyph-name="logicalnot.lf" horiz-adv-x="598" 
d="M498 30v218h-458v45h506v-263h-48z" />
    <glyph glyph-name="plusminus.lf" horiz-adv-x="579" 
d="M45 232v44h221v210h50v-210h218v-44h-218v-232h-50v232h-221zM77 -99v45h428v-45h-428z" />
    <glyph glyph-name="multiply.lf" horiz-adv-x="512" 
d="M100 59l-31 32l152 155l-150 153l33 34l150 -154l150 154l31 -32l-150 -153l158 -162l-33 -33l-158 161z" />
    <glyph glyph-name="divide.lf" horiz-adv-x="575" 
d="M288 51q-18 0 -30.5 12t-12.5 30q0 17 12.5 29t30.5 12q17 0 29 -12t12 -29q0 -18 -12 -30t-29 -12zM288 373q-18 0 -30.5 12.5t-12.5 29.5t12.5 29.5t30.5 12.5q17 0 29 -12.5t12 -29.5t-12 -29.5t-29 -12.5zM44 232v44h487v-44h-487z" />
    <glyph glyph-name="florin.lf" horiz-adv-x="378" 
d="M68 381v42h95l14 123q8 70 46 106t101 36q37 0 68 -11v-42q-26 10 -57 10q-53 0 -77.5 -26t-31.5 -87l-12 -109h114v-42h-119l-50 -456q-5 -51 -38 -82.5t-89 -31.5q-34 0 -58 8v44q21 -8 51 -8q73 0 82 82l51 444h-90z" />
    <glyph glyph-name="perthousand.lf" horiz-adv-x="1187" 
d="M190 297q-71 0 -113.5 49t-42.5 118q0 70 42.5 118.5t113.5 48.5q70 0 111.5 -48.5t41.5 -117.5q0 -71 -41.5 -119.5t-111.5 -48.5zM190 336q50 0 76.5 38t26.5 90q0 51 -26.5 89t-76.5 38q-51 0 -78.5 -38t-27.5 -89q0 -50 28 -89t78 -39zM619 -8q-71 0 -113.5 48.5
t-42.5 118.5t42.5 118t113.5 48q70 0 111.5 -48t41.5 -118t-41.5 -118.5t-111.5 -48.5zM619 31q50 0 76.5 38t26.5 90q0 50 -26.5 88.5t-76.5 38.5q-52 0 -79 -37.5t-27 -89.5q0 -50 27.5 -89t78.5 -39zM1000 -8q-71 0 -113.5 48.5t-42.5 118.5t42.5 118t113.5 48
q70 0 111.5 -48t41.5 -118t-41.5 -118.5t-111.5 -48.5zM1000 31q50 0 76.5 38t26.5 90q0 50 -26.5 88.5t-76.5 38.5q-52 0 -79 -37.5t-27 -89.5q0 -50 27.5 -89t78.5 -39zM172 -23l420 666h48l-421 -666h-47z" />
    <glyph glyph-name="Euro.lf" horiz-adv-x="591" 
d="M51 351v42h79q20 109 86.5 173.5t176.5 64.5q73 0 127 -23v-52q-58 28 -121 28q-89 0 -142.5 -50.5t-69.5 -140.5h176v-42h-182q-2 -16 -2 -48q0 -27 3 -49h182v-42h-176q19 -82 73.5 -127.5t140.5 -45.5q75 0 131 29v-50q-53 -26 -136 -26q-107 0 -176 58.5t-90 161.5
h-80v42h74q-2 32 -2 49q0 32 2 48h-74z" />
    <glyph glyph-name="minus.lf" horiz-adv-x="512" 
d="M58 232v44h395v-44h-395z" />
    <glyph glyph-name="uni2215.lf" horiz-adv-x="396" 
d="M8 -113l412 833h50l-411 -833h-51z" />
    <glyph glyph-name="uni2219.lf" horiz-adv-x="572" 
d="M286 181q-44 0 -75 30.5t-31 74.5t31 74.5t75 30.5t74.5 -30.5t30.5 -74.5t-30.5 -74.5t-74.5 -30.5z" />
    <glyph glyph-name="approxequal.lf" horiz-adv-x="561" 
d="M80 138l-22 36q58 49 123 49q46 0 102 -19t94 -19q56 0 106 40l20 -38q-54 -48 -129 -48q-46 0 -103.5 19t-92.5 19q-50 0 -98 -39zM80 280l-22 36q58 49 123 49q46 0 102 -19t94 -19q56 0 106 40l20 -38q-54 -48 -129 -48q-46 0 -103.5 19t-92.5 19q-51 0 -98 -39z" />
    <glyph glyph-name="notequal.lf" horiz-adv-x="584" 
d="M49 313v42h287l79 129l38 -22l-66 -107h148v-42h-174l-75 -122h249v-42h-275l-92 -150l-36 20l79 130h-162v42h187l75 122h-262z" />
    <glyph glyph-name="lessequal.lf" horiz-adv-x="580" 
d="M501 32l-425 207v37l425 207v-50l-369 -176l369 -176v-49zM77 -99v45h427v-45h-427z" />
    <glyph glyph-name="greaterequal.lf" horiz-adv-x="580" 
d="M502 239l-425 -207v49l369 176l-369 176v50l425 -207v-37zM501 -54v-45h-427v45h427z" />
    <glyph glyph-name="dotmath.lf" horiz-adv-x="512" 
d="M256 246q-19 0 -32.5 13t-13.5 32t13.5 32t32.5 13t32 -13t13 -32t-13 -32t-32 -13z" />
    <glyph glyph-name="numbersign.tosf" 
d="M320 0h-43l23 152h-118l-23 -152h-43l23 152h-111l6 42h111l19 127h-110l6 42h111l20 134h43l-20 -134h118l20 134h43l-20 -134h107l-6 -42h-108l-19 -127h107l-6 -42h-107zM306 194l19 127h-118l-19 -127h118z" />
    <glyph glyph-name="dollar.tosf" 
d="M217 -101v93q-80 3 -129 25v49q73 -30 137 -30q63 0 102.5 28.5t39.5 84.5q0 27 -10.5 47.5t-34.5 38t-42 27t-55 25.5q-32 15 -51.5 26t-43 30t-34.5 45.5t-11 60.5q0 58 37.5 96.5t103.5 45.5v81h45v-79q58 -3 114 -25v-49q-54 28 -125 28q-56 0 -88.5 -26t-32.5 -73
q0 -22 9 -39.5t29.5 -32.5t35.5 -23t44 -22q34 -16 50 -24t42.5 -25.5t39 -33.5t23 -41.5t10.5 -56.5q0 -63 -44 -106.5t-116 -50.5v-94h-45z" />
    <glyph glyph-name="percent.tosf" 
d="M105 363q-55 0 -88 39t-33 95t33 94.5t88 38.5t88 -38.5t33 -94.5t-33 -95t-88 -39zM105 402q37 0 57 26.5t20 68.5q0 41 -20 68t-57 27q-36 0 -56 -27t-20 -68q0 -42 20 -68.5t56 -26.5zM355 -8q-55 0 -88 38.5t-33 94.5t33 95t88 39t88 -38.5t33 -94.5t-33 -95t-88 -39
zM355 31q37 0 56.5 26.5t19.5 68.5q0 41 -19.5 67.5t-56.5 26.5t-56.5 -26.5t-19.5 -68.5t19.5 -68t56.5 -26zM37 -19l337 661h45l-337 -661h-45z" />
    <glyph glyph-name="plus.tosf" 
d="M-13 232v44h219v210h49v-210h218v-44h-218v-232h-49v232h-219z" />
    <glyph glyph-name="zero.tosf" 
d="M256 -8q-104 0 -162 70t-58 180q0 104 59 178t161 74q104 0 161 -70.5t57 -180.5q0 -104 -58 -177.5t-160 -73.5zM256 37q83 0 123 61.5t40 144.5t-40 144.5t-123 61.5q-57 0 -95.5 -33t-54 -78t-15.5 -96t15.5 -95.5t54 -77t95.5 -32.5z" />
    <glyph glyph-name="one.tosf" 
d="M263 0v428q-31 -18 -81.5 -38t-85.5 -26v45q37 5 92 29.5t86 47.5h42v-486h-53z" />
    <glyph glyph-name="two.tosf" 
d="M74 0v40q10 7 53.5 37.5t63 45.5t55 46.5t53 54.5t32 55t14.5 63q0 48 -30.5 78t-93.5 30q-65 0 -129 -36v45q65 35 136 35q82 0 127 -41.5t45 -109.5q0 -46 -22 -89t-67 -84.5t-76 -65t-87 -61.5h279v-43h-353z" />
    <glyph glyph-name="three.tosf" 
d="M209 -141q-68 0 -127 23v46q63 -24 121 -24q71 0 116 32t45 92q0 77 -52.5 106.5t-148.5 29.5v42q82 2 134 32.5t52 98.5q0 52 -32.5 82.5t-93.5 30.5q-73 0 -120 -20v45q53 19 125 19q82 0 128.5 -42t46.5 -112q0 -55 -32 -93t-88 -56v-1q67 -13 102 -55t35 -104
q0 -78 -57.5 -125t-153.5 -47z" />
    <glyph glyph-name="four.tosf" 
d="M327 -132v132h-307v35l302 451h57v-443h97v-43h-97v-132h-52zM326 413l-247 -370h248z" />
    <glyph glyph-name="five.tosf" 
d="M205 -141q-70 0 -109 16v46q46 -17 104 -17q81 0 128.5 41t47.5 116q0 67 -40 104t-113 37q-55 0 -105 -13l11 297h271v-45h-223l-8 -199q30 6 58 6q96 0 150 -49.5t54 -133.5q0 -100 -63.5 -153t-162.5 -53z" />
    <glyph glyph-name="six.tosf" 
d="M271 -8q-105 0 -158 76t-53 216q0 154 73 250.5t193 96.5q55 0 98 -13v-48q-43 16 -95 16q-90 0 -146.5 -66.5t-65.5 -176.5q25 22 69.5 39t87.5 17q86 0 134 -53.5t48 -145.5q0 -88 -50.5 -148t-134.5 -60zM267 37q64 0 99.5 45.5t35.5 116.5q0 69 -34.5 112.5
t-99.5 43.5q-81 0 -153 -55q-2 -24 -2 -35q0 -106 39.5 -167t114.5 -61z" />
    <glyph glyph-name="seven.tosf" 
d="M150 -132q28 140 89 297t137 275h-302v46h359v-39q-87 -132 -147.5 -297t-80.5 -282h-55z" />
    <glyph glyph-name="eight.tosf" 
d="M257 -8q-84 0 -135.5 47.5t-51.5 112.5q0 63 37 104t102 73q-32 18 -50.5 30.5t-39 31.5t-30 43t-9.5 55q0 59 51 100.5t121 41.5q79 0 126.5 -40.5t47.5 -99.5t-34 -95t-92 -65q34 -17 53.5 -30t42.5 -34t33.5 -49t10.5 -64q0 -74 -53.5 -118t-129.5 -44zM259 38
q55 0 91 31.5t36 85.5q0 49 -37 85t-100 67q-60 -30 -93.5 -64.5t-33.5 -88.5q0 -52 40.5 -84t96.5 -32zM133 490q0 -26 9 -46t30.5 -37.5t38 -27.5t49.5 -27q115 54 115 137q0 42 -35 69.5t-86 27.5t-86 -26.5t-35 -69.5z" />
    <glyph glyph-name="nine.tosf" 
d="M190 -141q-63 0 -103 15v47q48 -17 100 -17q91 0 145.5 64t62.5 177q-27 -24 -70.5 -39.5t-84.5 -15.5q-85 0 -135 52t-50 144q0 87 51 147.5t136 60.5q210 0 210 -294q0 -155 -70.5 -248t-191.5 -93zM246 134q86 0 151 53q1 12 1 32q0 230 -152 230q-64 0 -100 -44
t-36 -118q0 -69 36.5 -111t99.5 -42z" />
    <glyph glyph-name="less.tosf" 
d="M327 29l-245 214l246 216l31 -32l-207 -182l206 -181z" />
    <glyph glyph-name="equal.tosf" 
d="M36 165v45h385v-45h-385zM36 323v45h385v-45h-385z" />
    <glyph glyph-name="greater.tosf" 
d="M131 460l245 -214l-246 -216l-31 32l207 182l-206 181z" />
    <glyph glyph-name="cent.tosf" 
d="M275 -122v115q-87 8 -138.5 72t-51.5 167q0 108 48.5 181t141.5 80v114h45v-114q57 -5 91 -25v-45q-47 27 -112 27q-81 0 -121 -57.5t-40 -158.5q0 -96 46 -147t123 -51q69 0 115 26v-44q-43 -22 -102 -25v-115h-45z" />
    <glyph glyph-name="sterling.tosf" 
d="M83 288v42h89l-6 14q-1 3 -7.5 17t-8.5 19t-6.5 17.5t-6.5 20t-4.5 18.5t-3.5 22t-1 22q0 71 47 111t123 40q52 0 105 -15v-48q-51 17 -101 17q-57 0 -89 -26.5t-32 -78.5q0 -12 2 -24.5t3.5 -21t6.5 -23t7 -19.5t9 -22t8 -20l8 -20h150v-42h-136q9 -38 9 -66
q0 -58 -25.5 -104t-65.5 -74h270v-44h-343v37q114 66 114 184q0 28 -11 67h-104z" />
    <glyph glyph-name="yen.tosf" 
d="M73 231v38h142l-176 353h56l161 -328l159 328h55l-177 -353h151v-38h-164v-88h164v-39h-164v-104h-53v104h-154v39h154v88h-154z" />
    <glyph glyph-name="section.tosf" 
d="M84 -127v47q53 -19 114 -19q53 0 83 20.5t30 59.5q0 27 -22 60.5t-41.5 53t-61.5 57.5q-42 40 -65.5 64.5t-44 60.5t-20.5 68q0 75 81 116q-39 53 -39 105q0 58 44 90.5t116 32.5q68 0 117 -15v-46q-50 18 -116 18q-111 0 -111 -80q0 -12 3.5 -25t12 -26.5t16.5 -24
t22.5 -26t23.5 -24.5t27.5 -26t26.5 -25q3 -3 25 -24t27 -26t21.5 -23t21 -27t13.5 -25t12 -31t3 -31q0 -72 -83 -116q40 -52 40 -103q0 -59 -43 -91.5t-117 -32.5q-70 0 -116 14zM232 367q-57 52 -67 62q-61 -31 -61 -80q0 -14 6 -29t12.5 -26.5t22 -29t24 -26t30.5 -29.5
t30 -28q7 -7 29.5 -28.5t33.5 -33.5q63 31 63 81q0 36 -30.5 73.5t-92.5 93.5z" />
    <glyph glyph-name="logicalnot.tosf" 
d="M378 30v218h-347v45h395v-263h-48z" />
    <glyph glyph-name="plusminus.tosf" 
d="M-15 232v44h222v210h49v-210h219v-44h-219v-232h-49v232h-222zM17 -101v45h428v-45h-428z" />
    <glyph glyph-name="multiply.tosf" 
d="M73 59l-31 32l152 155l-150 153l33 34l150 -154l150 154l31 -32l-150 -153l158 -162l-33 -33l-158 161z" />
    <glyph glyph-name="divide.tosf" 
d="M230 51q-18 0 -30.5 12t-12.5 30q0 17 12.5 29t30.5 12q17 0 29.5 -12t12.5 -29q0 -18 -12.5 -30t-29.5 -12zM230 373q-18 0 -30.5 12.5t-12.5 29.5t12.5 29.5t30.5 12.5q17 0 29.5 -12.5t12.5 -29.5t-12.5 -29.5t-29.5 -12.5zM-3 232v44h465v-44h-465z" />
    <glyph glyph-name="florin.tosf" 
d="M128 381v42h105l14 119q17 146 154 146q45 0 75 -13v-42q-29 12 -64 12q-55 0 -82 -28t-34 -89l-12 -105h125v-42h-130l-50 -455q-6 -51 -40 -83t-94 -32q-33 0 -66 11v44q24 -11 59 -11q40 0 62.5 23t27.5 61l50 442h-100z" />
    <glyph glyph-name="uni2007.tosf" 
 />
    <glyph glyph-name="perthousand.tosf" 
d="M105 -8q-56 0 -88 38.5t-32 94.5t32 94t88 38q54 0 86.5 -38.5t32.5 -93.5q0 -56 -32.5 -94.5t-86.5 -38.5zM105 30q36 0 55.5 26.5t19.5 68.5q0 41 -19.5 67.5t-55.5 26.5t-55.5 -26.5t-19.5 -67.5q0 -42 19.5 -68.5t55.5 -26.5zM107 365q-55 0 -88 38.5t-33 93.5
q0 56 33 94.5t88 38.5q54 0 87.5 -38.5t33.5 -93.5t-33.5 -94t-87.5 -39zM107 403q37 0 56.5 26.5t19.5 68.5q0 41 -19.5 67.5t-56.5 26.5t-56.5 -27t-19.5 -68t19.5 -67.5t56.5 -26.5zM364 -8q-55 0 -87.5 38.5t-32.5 94.5t32.5 94t87.5 38t87.5 -38t32.5 -94t-32.5 -94.5
t-87.5 -38.5zM364 30q36 0 55.5 26.5t19.5 68.5q0 41 -19.5 67.5t-55.5 26.5t-55.5 -26.5t-19.5 -67.5q0 -42 19.5 -68.5t55.5 -26.5zM7 274l-22 29l473 94l22 -29z" />
    <glyph glyph-name="Euro.tosf" 
d="M19 351v42h78q19 107 84.5 172.5t173.5 65.5q68 0 117 -20v-52q-55 25 -111 25q-172 0 -207 -191h169v-42h-174q-2 -16 -2 -48q0 -19 2 -49h175v-42h-168q19 -81 71.5 -127t137.5 -46q68 0 120 26v-50q-51 -23 -126 -23q-106 0 -173 59t-88 161h-79v42h73q-2 32 -2 49
q0 32 2 48h-73z" />
    <glyph glyph-name="minus.tosf" 
d="M31 232v44h395v-44h-395z" />
    <glyph glyph-name="uni2215.tosf" 
d="M24 -113l412 833h50l-411 -833h-51z" />
    <glyph glyph-name="uni2219.tosf" 
d="M255 181q-44 0 -75 30.5t-31 74.5t31 74.5t75 30.5q43 0 74 -30.5t31 -74.5t-30.5 -74.5t-74.5 -30.5z" />
    <glyph glyph-name="approxequal.tosf" 
d="M36 138l-22 36q58 49 123 49q46 0 98 -19t90 -19q56 0 106 40l20 -38q-54 -48 -129 -48q-46 0 -99.5 19t-88.5 19q-52 0 -98 -39zM36 280l-22 36q58 49 123 49q46 0 98 -19t90 -19q56 0 106 40l20 -38q-54 -48 -129 -48q-46 0 -99.5 19t-88.5 19q-51 0 -98 -39z" />
    <glyph glyph-name="notequal.tosf" 
d="M2 313v42h272l79 129l37 -22l-66 -107h133v-42h-158l-75 -122h233v-42h-259l-92 -150l-36 20l79 130h-147v42h172l75 122h-247z" />
    <glyph glyph-name="lessequal.tosf" 
d="M441 32l-425 207v37l425 207v-50l-369 -176l369 -176v-49zM17 -99v45h427v-45h-427z" />
    <glyph glyph-name="greaterequal.tosf" 
d="M442 239l-425 -207v49l369 176l-369 176v50l425 -207v-37zM441 -54v-45h-427v45h427z" />
    <glyph glyph-name="dotmath.tosf" 
d="M255 246q-19 0 -32.5 13t-13.5 32t13.5 32t32.5 13t32 -13t13 -32t-13 -32t-32 -13z" />
    <glyph glyph-name="f_i.sc" horiz-adv-x="668" 
d="M94 0v507h291v-43h-238v-181h210v-42h-210v-241h-53zM518 0v507h53v-507h-53z" />
    <glyph glyph-name="f_l.sc" horiz-adv-x="817" 
d="M94 0v507h291v-43h-238v-181h210v-42h-210v-241h-53zM515 0v507h53v-464h229v-43h-282z" />
    <glyph glyph-name="ampersand.sc" horiz-adv-x="516" 
d="M220 -8q-79 0 -128 39t-49 97q0 46 26 81t87 66q-37 38 -53.5 65t-16.5 58q0 53 38.5 85.5t98.5 32.5q55 0 91 -31t36 -77q0 -42 -28 -73.5t-95 -68.5l143 -147q36 53 49 122l47 -8q-16 -82 -65 -146q47 -50 77 -50q16 0 30 5v-41q-21 -8 -38 -8q-42 0 -97 57l-3 2
q-65 -60 -150 -60zM220 34q69 0 120 49l-156 163q-89 -46 -89 -117q0 -39 34 -67t91 -28zM136 400q0 -39 63 -105q55 28 78.5 54t23.5 57q0 28 -20.5 49t-58.5 21q-39 0 -62.5 -20.5t-23.5 -55.5z" />
    <glyph glyph-name="a.sc" horiz-adv-x="496" 
d="M25 0l193 507h66l188 -507h-56l-51 142h-234l-51 -142h-55zM249 467l-102 -282h203z" />
    <glyph glyph-name="b.sc" horiz-adv-x="493" 
d="M94 0v507h160q80 0 122.5 -32.5t42.5 -92.5q0 -40 -25.5 -70t-64.5 -42v-1q48 -11 77 -42t29 -81q0 -65 -47.5 -105.5t-128.5 -40.5h-165zM147 246v-204h105q60 0 93 27t33 76t-33.5 75t-94.5 26h-103zM147 465v-177h100q54 0 85.5 25.5t31.5 66.5q0 40 -29 62.5
t-85 22.5h-103z" />
    <glyph glyph-name="c.sc" horiz-adv-x="481" 
d="M304 -8q-113 0 -180 69.5t-67 186.5t63 192.5t176 75.5q78 0 133 -23v-48q-52 27 -126 27q-93 0 -142 -60t-49 -164q0 -99 51.5 -155t147.5 -56q75 0 129 27v-48q-53 -24 -136 -24z" />
    <glyph glyph-name="d.sc" horiz-adv-x="546" 
d="M94 0v507h147q125 0 187 -72t62 -181q0 -111 -62 -182.5t-191 -71.5h-143zM147 464v-421h85q203 0 203 211q0 210 -198 210h-90z" />
    <glyph glyph-name="e.sc" horiz-adv-x="465" 
d="M94 0v507h305v-43h-252v-171h217v-44h-217v-206h252v-43h-305z" />
    <glyph glyph-name="f.sc" horiz-adv-x="421" 
d="M94 0v507h291v-43h-238v-181h210v-42h-210v-241h-53z" />
    <glyph glyph-name="g.sc" horiz-adv-x="544" 
d="M309 -8q-112 0 -182 69t-70 187t64 193t183 75q77 0 133 -26v-45q-58 28 -126 28q-100 0 -149.5 -61t-49.5 -164q0 -96 55 -154.5t149 -58.5q49 0 96 15v169h-99v43h149v-243q-70 -27 -153 -27z" />
    <glyph glyph-name="h.sc" horiz-adv-x="592" 
d="M94 0v507h53v-218h298v218h53v-507h-53v246h-298v-246h-53z" />
    <glyph glyph-name="i.sc" horiz-adv-x="247" 
d="M97 0v507h53v-507h-53z" />
    <glyph glyph-name="j.sc" horiz-adv-x="247" 
d="M38 -143q-32 0 -60 10v44q23 -9 52 -9q70 0 70 73v532h53v-534q0 -58 -32.5 -87t-82.5 -29z" />
    <glyph glyph-name="k.sc" horiz-adv-x="477" 
d="M435 -7q-54 0 -99 50l-189 211v-254h-53v507h53v-237l237 237h62l-244 -243l181 -199q27 -29 57 -29q11 0 17 1v-41q-7 -3 -22 -3z" />
    <glyph glyph-name="l.sc" horiz-adv-x="396" 
d="M94 0v507h53v-464h229v-43h-282z" />
    <glyph glyph-name="m.sc" horiz-adv-x="671" 
d="M64 0l63 507h70l139 -448l137 448h70l64 -507h-51l-54 438l-136 -438h-64l-137 442l-51 -442h-50z" />
    <glyph glyph-name="n.sc" horiz-adv-x="579" 
d="M94 0v507h59l282 -436v436h50v-507h-61l-280 434v-434h-50z" />
    <glyph glyph-name="o.sc" horiz-adv-x="572" 
d="M286 -8q-109 0 -169 74.5t-60 187.5t60 187.5t169 74.5t169 -75t60 -188t-60 -187t-169 -74zM286 35q88 0 131 61t43 157t-43 158t-131 62t-131 -61.5t-43 -157.5q0 -97 42.5 -158t131.5 -61z" />
    <glyph glyph-name="p.sc" horiz-adv-x="475" 
d="M94 0v507h172q74 0 117 -40t43 -107q0 -65 -42.5 -107.5t-117.5 -42.5h-119v-210h-53zM147 465v-214h109q57 0 85.5 29.5t28.5 79.5q0 48 -28.5 76.5t-85.5 28.5h-109z" />
    <glyph glyph-name="q.sc" horiz-adv-x="572" 
d="M406 -155q-62 0 -103.5 38.5t-43.5 110.5q-96 9 -149 81.5t-53 178.5q0 113 60 187.5t169 74.5t169 -75t60 -188q0 -106 -53.5 -178t-150.5 -81q6 -105 101 -105q33 0 66 12v-43q-37 -13 -72 -13zM286 35q88 0 131 61t43 157t-43 158t-131 62t-131 -61.5t-43 -157.5
q0 -97 42.5 -158t131.5 -61z" />
    <glyph glyph-name="r.sc" horiz-adv-x="497" 
d="M438 -7q-55 0 -87 50l-118 188h-86v-231h-53v507h170q78 0 119 -36.5t41 -101.5q0 -50 -36 -88.5t-100 -47.5l107 -165q20 -32 57 -32q8 0 16 2v-41q-16 -4 -30 -4zM147 465v-194h114q49 0 78 28t29 72q0 94 -107 94h-114z" />
    <glyph glyph-name="s.sc" horiz-adv-x="419" 
d="M184 -8q-75 0 -131 28v47q64 -32 128 -32q62 0 97 24t35 70q0 42 -27 65.5t-88 49.5q-72 30 -105 61.5t-33 86.5q0 57 44.5 90.5t121.5 33.5q71 0 120 -27v-46q-52 29 -119 29q-115 0 -115 -80q0 -21 8 -37t27 -28.5t32 -19t41 -18.5q73 -30 110 -63.5t37 -95.5
q0 -61 -48.5 -99.5t-134.5 -38.5z" />
    <glyph glyph-name="t.sc" horiz-adv-x="385" 
d="M162 0v464h-148v43h357v-43h-156v-464h-53z" />
    <glyph glyph-name="u.sc" horiz-adv-x="555" 
d="M279 -7q-92 0 -143.5 48.5t-51.5 132.5v333h53v-324q0 -69 35 -108.5t107 -39.5t106.5 39.5t34.5 108.5v324h51v-333q0 -83 -51.5 -132t-140.5 -49z" />
    <glyph glyph-name="v.sc" horiz-adv-x="464" 
d="M206 0l-187 507h58l157 -443l158 443h54l-188 -507h-52z" />
    <glyph glyph-name="w.sc" horiz-adv-x="672" 
d="M446 0l-109 356l-103 -356h-59l-151 507h55l125 -440l109 367l-22 73h54l130 -440l121 440h50l-143 -507h-57z" />
    <glyph glyph-name="x.sc" horiz-adv-x="447" 
d="M16 0l175 268l-163 239h58l136 -202l132 202h54l-160 -238l183 -269h-58l-155 229l-148 -229h-54z" />
    <glyph glyph-name="y.sc" horiz-adv-x="432" 
d="M189 0v204l-174 303h57l146 -257l144 257h55l-175 -303v-204h-53z" />
    <glyph glyph-name="z.sc" horiz-adv-x="415" 
d="M37 0v43l276 421h-265v43h323v-45l-273 -419h280v-43h-341z" />
    <glyph glyph-name="germandbls.sc" horiz-adv-x="838" 
d="M603 -8q-75 0 -131 28v47q64 -32 128 -32q62 0 97 24t35 70q0 42 -27 65.5t-88 49.5q-72 30 -105 61.5t-33 86.5q0 57 44.5 90.5t121.5 33.5q71 0 120 -27v-46q-52 29 -119 29q-115 0 -115 -80q0 -21 8 -37t27 -28.5t32 -19t41 -18.5q73 -30 110 -63.5t37 -95.5
q0 -61 -48.5 -99.5t-134.5 -38.5zM184 -8q-75 0 -131 28v47q64 -32 128 -32q62 0 97 24t35 70q0 42 -27 65.5t-88 49.5q-72 30 -105 61.5t-33 86.5q0 57 44.5 90.5t121.5 33.5q71 0 120 -27v-46q-52 29 -119 29q-115 0 -115 -80q0 -21 8 -37t27 -28.5t32 -19t41 -18.5
q73 -30 110 -63.5t37 -95.5q0 -61 -48.5 -99.5t-134.5 -38.5z" />
    <glyph glyph-name="agrave.sc" horiz-adv-x="496" 
d="M25 0l193 507h66l188 -507h-56l-51 142h-234l-51 -142h-55zM249 467l-102 -282h203zM223 556l-121 119h75l94 -119h-48z" />
    <glyph glyph-name="aacute.sc" horiz-adv-x="496" 
d="M225 556l95 119h75l-122 -119h-48zM25 0l193 507h66l188 -507h-56l-51 142h-234l-51 -142h-55zM249 467l-102 -282h203z" />
    <glyph glyph-name="acircumflex.sc" horiz-adv-x="496" 
d="M111 556l120 146h37l119 -146h-49l-90 100l-89 -100h-48zM25 0l193 507h66l188 -507h-56l-51 142h-234l-51 -142h-55zM249 467l-102 -282h203z" />
    <glyph glyph-name="atilde.sc" horiz-adv-x="496" 
d="M25 0l193 507h66l188 -507h-56l-51 142h-234l-51 -142h-55zM249 467l-102 -282h203zM143 573l-29 25q39 51 92 51q23 0 51 -14t43 -14q28 0 56 34l28 -26q-40 -51 -93 -51q-21 0 -48.5 14t-44.5 14q-31 0 -55 -33z" />
    <glyph glyph-name="adieresis.sc" horiz-adv-x="496" 
d="M167 578q-15 0 -26 11.5t-11 27.5t11 27t26 11q16 0 27 -11t11 -27t-11 -27.5t-27 -11.5zM330 578q-16 0 -27 11.5t-11 27.5t11 27t27 11q15 0 26 -11t11 -27t-11 -27.5t-26 -11.5zM25 0l193 507h66l188 -507h-56l-51 142h-234l-51 -142h-55zM249 467l-102 -282h203z" />
    <glyph glyph-name="aring.sc" horiz-adv-x="496" 
d="M249 545q-36 0 -63.5 26.5t-27.5 63.5q0 38 27 64.5t64 26.5t64 -26.5t27 -64.5q0 -37 -27.5 -63.5t-63.5 -26.5zM249 577q24 0 39 17t15 41q0 25 -15 42t-39 17t-39 -17t-15 -42q0 -24 15 -41t39 -17zM25 0l193 507h66l188 -507h-56l-51 142h-234l-51 -142h-55zM249 467
l-102 -282h203z" />
    <glyph glyph-name="ae.sc" horiz-adv-x="700" 
d="M7 0l302 507h325v-43h-251v-171h217v-44h-217v-206h251v-43h-304v140h-187l-81 -140h-55zM330 459l-162 -276h162v276z" />
    <glyph glyph-name="ccedilla.sc" horiz-adv-x="481" 
d="M262 -198q-34 0 -54 9v34q20 -9 52 -9q25 0 41.5 10.5t16.5 32.5q0 42 -72 42l28 73q-101 9 -159 77t-58 177q0 117 63 192.5t176 75.5q78 0 133 -23v-48q-52 27 -126 27q-93 0 -142 -60t-49 -164q0 -99 51.5 -155t147.5 -56q75 0 129 27v-48q-50 -22 -127 -24l-17 -46
q32 -4 49 -23t17 -44q0 -36 -27 -56.5t-73 -20.5z" />
    <glyph glyph-name="egrave.sc" horiz-adv-x="465" 
d="M221 556l-121 119h75l94 -119h-48zM94 0v507h305v-43h-252v-171h217v-44h-217v-206h252v-43h-305z" />
    <glyph glyph-name="eacute.sc" horiz-adv-x="465" 
d="M223 556l95 119h75l-122 -119h-48zM94 0v507h305v-43h-252v-171h217v-44h-217v-206h252v-43h-305z" />
    <glyph glyph-name="ecircumflex.sc" horiz-adv-x="465" 
d="M109 556l120 146h37l119 -146h-49l-90 100l-89 -100h-48zM94 0v507h305v-43h-252v-171h217v-44h-217v-206h252v-43h-305z" />
    <glyph glyph-name="edieresis.sc" horiz-adv-x="465" 
d="M165 578q-15 0 -26 11.5t-11 27.5t11 27t26 11q16 0 27 -11t11 -27t-11 -27.5t-27 -11.5zM328 578q-16 0 -27 11.5t-11 27.5t11 27t27 11q15 0 26 -11t11 -27t-11 -27.5t-26 -11.5zM94 0v507h305v-43h-252v-171h217v-44h-217v-206h252v-43h-305z" />
    <glyph glyph-name="igrave.sc" horiz-adv-x="247" 
d="M97 0v507h53v-507h-53zM98 556l-121 119h75l94 -119h-48z" />
    <glyph glyph-name="iacute.sc" horiz-adv-x="247" 
d="M101 556l95 119h75l-122 -119h-48zM97 0v507h53v-507h-53z" />
    <glyph glyph-name="icircumflex.sc" horiz-adv-x="247" 
d="M-14 556l120 146h37l119 -146h-49l-90 100l-89 -100h-48zM97 0v507h53v-507h-53z" />
    <glyph glyph-name="idieresis.sc" horiz-adv-x="247" 
d="M43 578q-15 0 -26 11.5t-11 27.5t11 27t26 11q16 0 27 -11t11 -27t-11 -27.5t-27 -11.5zM206 578q-16 0 -27 11.5t-11 27.5t11 27t27 11q15 0 26 -11t11 -27t-11 -27.5t-26 -11.5zM97 0v507h53v-507h-53z" />
    <glyph glyph-name="eth.sc" horiz-adv-x="544" 
d="M33 239v41h59v227h147q125 0 187 -72t62 -181q0 -111 -62 -182.5t-191 -71.5h-143v239h-59zM145 464v-184h104v-41h-104v-196h85q203 0 203 211q0 210 -198 210h-90z" />
    <glyph glyph-name="ntilde.sc" horiz-adv-x="579" 
d="M94 0v507h59l282 -436v436h50v-507h-61l-280 434v-434h-50zM185 573l-29 25q39 51 92 51q23 0 51 -14t43 -14q28 0 56 34l28 -26q-40 -51 -93 -51q-21 0 -48.5 14t-44.5 14q-31 0 -55 -33z" />
    <glyph glyph-name="ograve.sc" horiz-adv-x="572" 
d="M286 -8q-109 0 -169 74.5t-60 187.5t60 187.5t169 74.5t169 -75t60 -188t-60 -187t-169 -74zM286 35q88 0 131 61t43 157t-43 158t-131 62t-131 -61.5t-43 -157.5q0 -97 42.5 -158t131.5 -61zM259 556l-121 119h75l94 -119h-48z" />
    <glyph glyph-name="oacute.sc" horiz-adv-x="572" 
d="M286 -8q-109 0 -169 74.5t-60 187.5t60 187.5t169 74.5t169 -75t60 -188t-60 -187t-169 -74zM286 35q88 0 131 61t43 157t-43 158t-131 62t-131 -61.5t-43 -157.5q0 -97 42.5 -158t131.5 -61zM263 556l95 119h75l-122 -119h-48z" />
    <glyph glyph-name="ocircumflex.sc" horiz-adv-x="572" 
d="M147 556l120 146h37l119 -146h-49l-90 100l-89 -100h-48zM286 -8q-109 0 -169 74.5t-60 187.5t60 187.5t169 74.5t169 -75t60 -188t-60 -187t-169 -74zM286 35q88 0 131 61t43 157t-43 158t-131 62t-131 -61.5t-43 -157.5q0 -97 42.5 -158t131.5 -61z" />
    <glyph glyph-name="otilde.sc" horiz-adv-x="572" 
d="M286 -8q-109 0 -169 74.5t-60 187.5t60 187.5t169 74.5t169 -75t60 -188t-60 -187t-169 -74zM286 35q88 0 131 61t43 157t-43 158t-131 62t-131 -61.5t-43 -157.5q0 -97 42.5 -158t131.5 -61zM180 573l-29 25q39 51 92 51q23 0 51 -14t43 -14q28 0 56 34l28 -26
q-40 -51 -93 -51q-21 0 -48.5 14t-44.5 14q-31 0 -55 -33z" />
    <glyph glyph-name="odieresis.sc" horiz-adv-x="572" 
d="M204 578q-15 0 -26 11.5t-11 27.5t11 27t26 11q16 0 27 -11t11 -27t-11 -27.5t-27 -11.5zM367 578q-16 0 -27 11.5t-11 27.5t11 27t27 11q15 0 26 -11t11 -27t-11 -27.5t-26 -11.5zM286 -8q-109 0 -169 74.5t-60 187.5t60 187.5t169 74.5t169 -75t60 -188t-60 -187
t-169 -74zM286 35q88 0 131 61t43 157t-43 158t-131 62t-131 -61.5t-43 -157.5q0 -97 42.5 -158t131.5 -61z" />
    <glyph glyph-name="oslash.sc" horiz-adv-x="572" 
d="M95 -49l-31 21l60 86q-67 73 -67 196q0 113 60 187.5t169 74.5q76 0 131 -39l55 78l31 -22l-57 -82q69 -74 69 -198q0 -113 -60 -187t-169 -74q-79 0 -134 41zM286 35q88 0 131 61t43 157q0 99 -43 158l-238 -341q41 -35 107 -35zM112 254q0 -98 41 -155l237 340
q-42 34 -104 34q-88 0 -131 -61.5t-43 -157.5z" />
    <glyph glyph-name="ugrave.sc" horiz-adv-x="555" 
d="M250 556l-121 119h75l94 -119h-48zM279 -7q-92 0 -143.5 48.5t-51.5 132.5v333h53v-324q0 -69 35 -108.5t107 -39.5t106.5 39.5t34.5 108.5v324h51v-333q0 -83 -51.5 -132t-140.5 -49z" />
    <glyph glyph-name="uacute.sc" horiz-adv-x="555" 
d="M253 556l95 119h75l-122 -119h-48zM279 -7q-92 0 -143.5 48.5t-51.5 132.5v333h53v-324q0 -69 35 -108.5t107 -39.5t106.5 39.5t34.5 108.5v324h51v-333q0 -83 -51.5 -132t-140.5 -49z" />
    <glyph glyph-name="ucircumflex.sc" horiz-adv-x="555" 
d="M138 556l120 146h37l119 -146h-49l-90 100l-89 -100h-48zM279 -7q-92 0 -143.5 48.5t-51.5 132.5v333h53v-324q0 -69 35 -108.5t107 -39.5t106.5 39.5t34.5 108.5v324h51v-333q0 -83 -51.5 -132t-140.5 -49z" />
    <glyph glyph-name="udieresis.sc" horiz-adv-x="555" 
d="M195 578q-15 0 -26 11.5t-11 27.5t11 27t26 11q16 0 27 -11t11 -27t-11 -27.5t-27 -11.5zM358 578q-16 0 -27 11.5t-11 27.5t11 27t27 11q15 0 26 -11t11 -27t-11 -27.5t-26 -11.5zM279 -7q-92 0 -143.5 48.5t-51.5 132.5v333h53v-324q0 -69 35 -108.5t107 -39.5
t106.5 39.5t34.5 108.5v324h51v-333q0 -83 -51.5 -132t-140.5 -49z" />
    <glyph glyph-name="yacute.sc" horiz-adv-x="432" 
d="M194 556l95 119h75l-122 -119h-48zM189 0v204l-174 303h57l146 -257l144 257h55l-175 -303v-204h-53z" />
    <glyph glyph-name="thorn.sc" horiz-adv-x="475" 
d="M94 0v507h53v-84h118q74 0 117.5 -40.5t43.5 -107.5q0 -65 -43 -107.5t-118 -42.5h-118v-125h-53zM147 381v-214h109q57 0 85.5 29.5t28.5 78.5q0 48 -28.5 77t-85.5 29h-109z" />
    <glyph glyph-name="ydieresis.sc" horiz-adv-x="432" 
d="M135 578q-15 0 -26 11.5t-11 27.5t11 27t26 11q16 0 27 -11t11 -27t-11 -27.5t-27 -11.5zM298 578q-16 0 -27 11.5t-11 27.5t11 27t27 11q15 0 26 -11t11 -27t-11 -27.5t-26 -11.5zM189 0v204l-174 303h57l146 -257l144 257h55l-175 -303v-204h-53z" />
    <glyph glyph-name="dotlessi.sc" horiz-adv-x="247" 
d="M97 0v507h53v-507h-53z" />
    <glyph glyph-name="ij.sc" horiz-adv-x="493" 
d="M97 0v507h53v-507h-53zM284 -143q-32 0 -60 10v44q23 -9 52 -9q70 0 70 73v532h53v-534q0 -58 -32.5 -87t-82.5 -29z" />
    <glyph glyph-name="lslash.sc" horiz-adv-x="404" 
d="M33 137l-24 30l93 73v267h53v-226l114 90l24 -30l-138 -109v-189h229v-43h-282v191z" />
    <glyph glyph-name="oe.sc" horiz-adv-x="737" 
d="M289 -7q-110 0 -171 74t-61 187t61 186.5t171 73.5q41 0 86 -7h296v-43h-252v-171h217v-44h-217v-206h252v-43h-286q-49 -7 -96 -7zM289 36q46 0 77 7v420q-32 8 -77 8q-89 0 -133 -60.5t-44 -156.5t44 -157t133 -61z" />
    <glyph glyph-name="scaron.sc" horiz-adv-x="419" 
d="M190 556l-117 150h50l88 -103l89 103h49l-119 -150h-40zM184 -8q-75 0 -131 28v47q64 -32 128 -32q62 0 97 24t35 70q0 42 -27 65.5t-88 49.5q-72 30 -105 61.5t-33 86.5q0 57 44.5 90.5t121.5 33.5q71 0 120 -27v-46q-52 29 -119 29q-115 0 -115 -80q0 -21 8 -37
t27 -28.5t32 -19t41 -18.5q73 -30 110 -63.5t37 -95.5q0 -61 -48.5 -99.5t-134.5 -38.5z" />
    <glyph glyph-name="zcaron.sc" horiz-adv-x="415" 
d="M187 556l-117 150h50l88 -103l89 103h49l-119 -150h-40zM37 0v43l276 421h-265v43h323v-45l-273 -419h280v-43h-341z" />
    <glyph glyph-name="longs.sc" horiz-adv-x="419" 
d="M184 -8q-75 0 -131 28v47q64 -32 128 -32q62 0 97 24t35 70q0 42 -27 65.5t-88 49.5q-72 30 -105 61.5t-33 86.5q0 57 44.5 90.5t121.5 33.5q71 0 120 -27v-46q-52 29 -119 29q-115 0 -115 -80q0 -21 8 -37t27 -28.5t32 -19t41 -18.5q73 -30 110 -63.5t37 -95.5
q0 -61 -48.5 -99.5t-134.5 -38.5z" />
    <glyph glyph-name="gravecomb.sc" horiz-adv-x="1" 
d="M-311 556l-121 119h75l94 -119h-48z" />
    <glyph glyph-name="acutecomb.sc" horiz-adv-x="1" 
d="M-308 556l95 119h75l-122 -119h-48z" />
    <glyph glyph-name="uni0302.sc" horiz-adv-x="1" 
d="M-421 546l120 146h37l119 -146h-49l-90 100l-89 -100h-48z" />
    <glyph glyph-name="tildecomb.sc" horiz-adv-x="1" 
d="M-387 573l-29 25q39 51 92 51q23 0 51 -14t43 -14q28 0 56 34l28 -26q-40 -51 -93 -51q-21 0 -48.5 14t-44.5 14q-31 0 -55 -33z" />
    <glyph glyph-name="uni0304.sc" horiz-adv-x="1" 
d="M-383 592v44h267v-44h-267z" />
    <glyph glyph-name="uni0306.sc" horiz-adv-x="1" 
d="M-249 556q-53 0 -92.5 35t-44.5 103h48q3 -43 27 -68.5t62 -25.5q37 0 61 25.5t27 68.5h49q-6 -68 -45 -103t-92 -35z" />
    <glyph glyph-name="uni0307.sc" horiz-adv-x="1" 
d="M-249 574q-17 0 -29 12.5t-12 29.5q0 18 12 30.5t29 12.5t29 -12t12 -30t-12 -30.5t-29 -12.5z" />
    <glyph glyph-name="uni0308.sc" horiz-adv-x="1" 
d="M-284 578q-15 0 -26 11.5t-11 27.5t11 27t26 11q16 0 27 -11t11 -27t-11 -27.5t-27 -11.5zM-121 578q-16 0 -27 11.5t-11 27.5t11 27t27 11q15 0 26.5 -11t11.5 -27t-11.5 -27.5t-26.5 -11.5z" />
    <glyph glyph-name="uni030A.sc" horiz-adv-x="1" 
d="M-249 545q-36 0 -63.5 26.5t-27.5 63.5q0 38 27 64.5t64 26.5t64 -26.5t27 -64.5q0 -37 -27.5 -63.5t-63.5 -26.5zM-249 577q24 0 39 17t15 41q0 25 -15 42t-39 17t-39 -17t-15 -42q0 -24 15 -41t39 -17z" />
    <glyph glyph-name="uni030B.sc" horiz-adv-x="1" 
d="M-395 556l80 119h69l-102 -119h-47zM-248 556l79 119h70l-102 -119h-47z" />
    <glyph glyph-name="uni030C.sc" horiz-adv-x="1" 
d="M-215 550l-117 150h50l88 -103l89 103h49l-119 -150h-40z" />
    <glyph glyph-name="fi.sc" horiz-adv-x="668" 
d="M94 0v507h291v-43h-238v-181h210v-42h-210v-241h-53zM518 0v507h53v-507h-53z" />
    <glyph glyph-name="fl.sc" horiz-adv-x="817" 
d="M94 0v507h291v-43h-238v-181h210v-42h-210v-241h-53zM515 0v507h53v-464h229v-43h-282z" />
    <glyph glyph-name="parenleft.case" horiz-adv-x="302" 
d="M242 -95q-88 77 -134.5 181.5t-46.5 212.5q0 236 182 417h53q-181 -187 -181 -418q0 -121 52.5 -223t128.5 -170h-54z" />
    <glyph glyph-name="parenright.case" horiz-adv-x="302" 
d="M59 -95h-54q76 68 128.5 170t52.5 223q0 231 -181 418h53q182 -181 182 -417q0 -108 -46.5 -212.5t-134.5 -181.5z" />
    <glyph glyph-name="hyphen.case" horiz-adv-x="304" 
d="M58 287v45h189v-45h-189z" />
    <glyph glyph-name="bracketleft.case" horiz-adv-x="298" 
d="M86 -85v791h185v-42h-134v-707h134v-42h-185z" />
    <glyph glyph-name="bracketright.case" horiz-adv-x="298" 
d="M212 706v-791h-185v42h134v707h-134v42h185z" />
    <glyph glyph-name="braceleft.case" horiz-adv-x="333" 
d="M235 -85q-46 0 -73.5 27t-27.5 79v158q0 105 -110 106v52q110 1 110 105v158q0 52 27 79t74 27h77v-42h-65q-35 0 -48.5 -19t-13.5 -59v-151q0 -106 -103 -122v-1q103 -16 103 -128v-151q0 -40 13 -58t48 -18h66v-42h-77z" />
    <glyph glyph-name="braceright.case" horiz-adv-x="333" 
d="M98 706q46 0 73.5 -27t27.5 -79v-158q0 -105 110 -106v-52q-110 -1 -110 -105v-158q0 -52 -27 -79t-74 -27h-77v42h65q35 0 48.5 19t13.5 59v151q0 106 103 122v1q-103 16 -103 128v151q0 40 -13 58t-48 18h-66v42h77z" />
    <glyph glyph-name="guillemotleft.case" horiz-adv-x="453" 
d="M188 121l-138 189l138 189h56l-138 -189l138 -189h-56zM350 121l-138 189l138 189h55l-137 -189l137 -189h-55z" />
    <glyph glyph-name="uni00AD.case" horiz-adv-x="304" 
d="M58 287v45h189v-45h-189z" />
    <glyph glyph-name="guillemotright.case" horiz-adv-x="453" 
d="M264 500l138 -189l-138 -189h-56l138 189l-138 189h56zM102 500l138 -189l-138 -189h-55l137 189l-137 189h55z" />
    <glyph glyph-name="gravecomb.case" horiz-adv-x="1" 
d="M-344 680l-121 119h75l94 -119h-48z" />
    <glyph glyph-name="acutecomb.case" horiz-adv-x="1" 
d="M-358 680l95 119h75l-122 -119h-48z" />
    <glyph glyph-name="uni0302.case" horiz-adv-x="1" 
d="M-464 670l120 146h37l119 -146h-49l-90 100l-89 -100h-48z" />
    <glyph glyph-name="tildecomb.case" horiz-adv-x="1" 
d="M-430 697l-29 25q39 51 92 51q23 0 51 -14t43 -14q28 0 56 34l28 -26q-40 -51 -93 -51q-21 0 -48.5 14t-44.5 14q-31 0 -55 -33z" />
    <glyph glyph-name="uni0304.case" horiz-adv-x="1" 
d="M-383 727v44h267v-44h-267z" />
    <glyph glyph-name="uni0306.case" horiz-adv-x="1" 
d="M-249 681q-53 0 -92.5 35t-44.5 103h48q3 -43 27 -68.5t62 -25.5q37 0 61 25.5t27 68.5h49q-6 -68 -45 -103t-92 -35z" />
    <glyph glyph-name="uni0307.case" horiz-adv-x="1" 
d="M-249 699q-17 0 -29 12.5t-12 29.5q0 18 12 30.5t29 12.5t29 -12t12 -30t-12 -30.5t-29 -12.5z" />
    <glyph glyph-name="uni0308.case" horiz-adv-x="1" 
d="M-284 702q-15 0 -26 11.5t-11 27.5t11 27t26 11q16 0 27 -11t11 -27t-11 -27.5t-27 -11.5zM-121 702q-16 0 -27 11.5t-11 27.5t11 27t27 11q15 0 26.5 -11t11.5 -27t-11.5 -27.5t-26.5 -11.5z" />
    <glyph glyph-name="uni030A.case" horiz-adv-x="1" 
d="M-249 669q-36 0 -63.5 26.5t-27.5 63.5q0 38 27 64.5t64 26.5t64 -26.5t27 -64.5q0 -37 -27.5 -63.5t-63.5 -26.5zM-249 701q24 0 39 17t15 41q0 25 -15 42t-39 17t-39 -17t-15 -42q0 -24 15 -41t39 -17z" />
    <glyph glyph-name="uni030B.case" horiz-adv-x="1" 
d="M-395 681l80 119h69l-102 -119h-47zM-248 681l79 119h70l-102 -119h-47z" />
    <glyph glyph-name="uni030C.case" horiz-adv-x="1" 
d="M-238 674l-117 150h50l88 -103l89 103h49l-119 -150h-40z" />
    <glyph glyph-name="endash.case" horiz-adv-x="516" 
d="M56 289v43h404v-43h-404z" />
    <glyph glyph-name="emdash.case" horiz-adv-x="818" 
d="M56 289v43h706v-43h-706z" />
    <glyph glyph-name="guilsinglleft.case" horiz-adv-x="291" 
d="M188 121l-138 189l138 189h56l-138 -189l138 -189h-56z" />
    <glyph glyph-name="guilsinglright.case" horiz-adv-x="291" 
d="M102 500l138 -189l-138 -189h-56l138 189l-138 189h56z" />
    <glyph glyph-name="g.ss01" horiz-adv-x="504" 
d="M235 -188q-74 0 -126 23v46q60 -24 123 -24q72 0 104.5 35.5t32.5 106.5v39q-16 -18 -48.5 -32t-71.5 -14q-97 0 -150 67.5t-53 185.5q0 108 59 178.5t163 70.5q60 0 101 -31v23h52v-490q0 -184 -186 -184zM259 38q63 0 110 40v338q-38 33 -97 33q-83 0 -127 -55.5
t-44 -148.5q0 -91 38 -149t120 -58z" />
    <glyph glyph-name="ampersand.ss08" horiz-adv-x="570" 
d="M272 -8q-227 0 -227 177q0 58 34 100t96 54v1q-113 31 -113 146q0 73 48 117t136 44q67 0 121 -15v-47q-44 17 -116 17q-62 0 -98.5 -30t-36.5 -86q0 -40 17.5 -67.5t46.5 -40.5t57.5 -18t60.5 -5h116v148h50v-148h93v-43h-93v-285q-76 -19 -192 -19zM277 35q86 0 137 14
v247h-116q-197 0 -197 -125q0 -69 43 -102.5t133 -33.5z" />
    <glyph glyph-name="ampersand.sc.ss08" horiz-adv-x="533" 
d="M260 -8q-206 0 -206 143q0 47 28 81.5t80 45.5v1q-41 11 -65.5 41.5t-24.5 77.5q0 60 41.5 97t118.5 37q48 0 83 -10v-45q-36 12 -82 12q-50 0 -79 -23.5t-29 -70.5q0 -99 151 -99h93v118h49v-118h88v-42h-88v-222q-64 -24 -158 -24zM263 34q58 0 106 14v190h-100
q-159 0 -159 -102t153 -102z" />
    <glyph glyph-name="caronslovak" horiz-adv-x="500" 
d="M205 520l43 160h60l-62 -160h-41z" />
    </font>
</defs>
</svg>
