<?xml version="1.0" encoding="utf-8"?>
<!-- Generator: Adobe Illustrator 16.0.0, SVG Export Plug-In . SVG Version: 6.00 Build 0)  -->
<!DOCTYPE svg PUBLIC "-//W3C//DTD SVG 1.1//EN" "http://www.w3.org/Graphics/SVG/1.1/DTD/svg11.dtd">
<svg version="1.1" id="Layer_1" xmlns="http://www.w3.org/2000/svg" xmlns:xlink="http://www.w3.org/1999/xlink" x="0px" y="0px"
	 width="82.529px" height="82.529px" viewBox="0 0 82.529 82.529" enable-background="new 0 0 82.529 82.529" xml:space="preserve">
<g>
	<g>
		<path fill="#FFFFFF" d="M41.304,80.536c-14.005,0-27.049-7.525-34.043-19.64C-3.564,42.147,2.883,18.086,21.632,7.26
			c5.969-3.446,12.744-5.267,19.594-5.267c14.005,0,27.049,7.525,34.043,19.64c10.825,18.75,4.378,42.811-14.371,53.636
			C54.929,78.715,48.153,80.536,41.304,80.536z"/>
		<path fill="#6798AC" d="M41.228-0.007v4h0.001c13.29,0,25.67,7.142,32.309,18.64c10.273,17.794,4.154,40.63-13.64,50.904
			c-5.665,3.271-12.095,5-18.594,5c-13.292,0-25.673-7.142-32.312-18.64c-10.273-17.794-4.154-40.63,13.64-50.904
			c5.665-3.271,12.095-4.999,18.595-5L41.228-0.007 M41.226-0.007c-6.999,0-14.096,1.784-20.594,5.535
			C0.896,16.924-5.866,42.16,5.528,61.896c7.644,13.239,21.513,20.64,35.775,20.64c6.999,0,14.096-1.784,20.594-5.535
			c19.736-11.396,26.498-36.632,15.104-56.368C69.357,7.394,55.488-0.008,41.226-0.007L41.226-0.007z"/>
	</g>
	<g>
		<path fill="#6798AC" d="M71.805,23.631c4.11,7.119,5.453,15.085,4.357,22.646l-28.58-16.501l-4.753-2.752L64.35,14.599
			C67.252,17.104,69.78,20.124,71.805,23.631z"/>
		<path fill="#6798AC" d="M63.064,13.552l-33.359,19.26l-0.001-24.86C41.142,3.98,53.75,6.238,63.064,13.552z"/>
		<path fill="#6798AC" d="M28.158,8.532v32.4l0.006,0.69l-0.006,5.429L6.647,34.634C8.516,24.931,14.416,16.05,23.63,10.73
			C25.111,9.875,26.617,9.145,28.158,8.532z"/>
		<path fill="#6798AC" d="M39.714,55.508L18.193,67.933c-2.901-2.505-5.444-5.528-7.47-9.036C6.614,51.777,5.285,43.815,6.373,36.26
			l28.036,16.179l0.553,0.317L39.714,55.508z"/>
		<path fill="#6798AC" d="M52.824,49.717l-0.003,24.874c-11.438,3.971-24.051,1.703-33.364-5.609l28.067-16.205
			c0.101-0.046,0.196-0.102,0.291-0.156c0.078-0.046,0.165-0.095,0.237-0.148L52.824,49.717z"/>
		<path fill="#6798AC" d="M75.887,47.902c-1.868,9.704-7.776,18.589-16.991,23.909c-1.481,0.854-2.987,1.586-4.527,2.197
			l0.004-32.473l0.004-6.052L75.887,47.902z"/>
	</g>
</g>
</svg>
